<?xml version="1.0" encoding="UTF-8" standalone="no"?>
<!DOCTYPE svg PUBLIC "-//W3C//DTD SVG 1.1//EN"
 "http://www.w3.org/Graphics/SVG/1.1/DTD/svg11.dtd">
<!-- Generated by graphviz version 8.0.5 (20230430.1635)
 -->
<!-- Title: dependency&#45;cruiser output Pages: 1 -->
<svg width="520pt" height="598pt"
 viewBox="0.00 0.00 519.75 598.00" xmlns="http://www.w3.org/2000/svg" xmlns:xlink="http://www.w3.org/1999/xlink">
<g id="graph0" class="graph" transform="scale(1 1) rotate(0) translate(4 594)">
<title>dependency&#45;cruiser output</title>
<polygon fill="white" stroke="none" points="-4,4 -4,-594 515.75,-594 515.75,4 -4,4"/>
<g id="clust1" class="cluster">
<title>cluster_src</title>
<path fill="#ffffff" stroke="black" stroke-width="2" d="M20,-8C20,-8 491.75,-8 491.75,-8 497.75,-8 503.75,-14 503.75,-20 503.75,-20 503.75,-570 503.75,-570 503.75,-576 497.75,-582 491.75,-582 491.75,-582 20,-582 20,-582 14,-582 8,-576 8,-570 8,-570 8,-20 8,-20 8,-14 14,-8 20,-8"/>
<text text-anchor="middle" x="255.88" y="-569.45" font-family="Helvetica,sans-Serif" font-weight="bold" font-size="9.00">src</text>
</g>
<g id="clust2" class="cluster">
<title>cluster_src/components</title>
<path fill="#ffffff" stroke="black" stroke-width="2" d="M28,-16C28,-16 483.75,-16 483.75,-16 489.75,-16 495.75,-22 495.75,-28 495.75,-28 495.75,-544 495.75,-544 495.75,-550 489.75,-556 483.75,-556 483.75,-556 28,-556 28,-556 22,-556 16,-550 16,-544 16,-544 16,-28 16,-28 16,-22 22,-16 28,-16"/>
<text text-anchor="middle" x="255.88" y="-543.45" font-family="Helvetica,sans-Serif" font-weight="bold" font-size="9.00">components</text>
</g>
<g id="clust3" class="cluster">
<title>cluster_src/components/Chessboard</title>
<path fill="#ffffff" stroke="black" stroke-width="2" d="M36,-24C36,-24 475.75,-24 475.75,-24 481.75,-24 487.75,-30 487.75,-36 487.75,-36 487.75,-518 487.75,-518 487.75,-524 481.75,-530 475.75,-530 475.75,-530 36,-530 36,-530 30,-530 24,-524 24,-518 24,-518 24,-36 24,-36 24,-30 30,-24 36,-24"/>
<text text-anchor="middle" x="255.88" y="-517.45" font-family="Helvetica,sans-Serif" font-weight="bold" font-size="9.00">Chessboard</text>
</g>
<g id="clust4" class="cluster">
<title>cluster_src/components/Chessboard/Modals</title>
<path fill="#ffffff" stroke="black" stroke-width="2" d="M127.25,-58C127.25,-58 368.5,-58 368.5,-58 374.5,-58 380.5,-64 380.5,-70 380.5,-70 380.5,-192 380.5,-192 380.5,-198 374.5,-204 368.5,-204 368.5,-204 127.25,-204 127.25,-204 121.25,-204 115.25,-198 115.25,-192 115.25,-192 115.25,-70 115.25,-70 115.25,-64 121.25,-58 127.25,-58"/>
<text text-anchor="middle" x="247.88" y="-191.45" font-family="Helvetica,sans-Serif" font-weight="bold" font-size="9.00">Modals</text>
</g>
<g id="clust5" class="cluster">
<title>cluster_src/components/Chessboard/Modals/GameOver</title>
<path fill="#ffffff" stroke="black" stroke-width="2" d="M135.25,-126C135.25,-126 360.5,-126 360.5,-126 366.5,-126 372.5,-132 372.5,-138 372.5,-138 372.5,-166 372.5,-166 372.5,-172 366.5,-178 360.5,-178 360.5,-178 135.25,-178 135.25,-178 129.25,-178 123.25,-172 123.25,-166 123.25,-166 123.25,-138 123.25,-138 123.25,-132 129.25,-126 135.25,-126"/>
<text text-anchor="middle" x="247.88" y="-165.45" font-family="Helvetica,sans-Serif" font-weight="bold" font-size="9.00">GameOver</text>
</g>
<g id="clust6" class="cluster">
<title>cluster_src/components/Chessboard/Modals/Promotion</title>
<path fill="#ffffff" stroke="black" stroke-width="2" d="M136.38,-66C136.38,-66 359.38,-66 359.38,-66 365.38,-66 371.38,-72 371.38,-78 371.38,-78 371.38,-106 371.38,-106 371.38,-112 365.38,-118 359.38,-118 359.38,-118 136.38,-118 136.38,-118 130.38,-118 124.38,-112 124.38,-106 124.38,-106 124.38,-78 124.38,-78 124.38,-72 130.38,-66 136.38,-66"/>
<text text-anchor="middle" x="247.88" y="-105.45" font-family="Helvetica,sans-Serif" font-weight="bold" font-size="9.00">Promotion</text>
</g>
<g id="clust7" class="cluster">
<title>cluster_src/components/Chessboard/Sounds</title>
<path fill="#ffffff" stroke="black" stroke-width="2" d="M149.12,-212C149.12,-212 208.12,-212 208.12,-212 214.12,-212 220.12,-218 220.12,-224 220.12,-224 220.12,-372 220.12,-372 220.12,-378 214.12,-384 208.12,-384 208.12,-384 149.12,-384 149.12,-384 143.12,-384 137.12,-378 137.12,-372 137.12,-372 137.12,-224 137.12,-224 137.12,-218 143.12,-212 149.12,-212"/>
<text text-anchor="middle" x="178.62" y="-371.45" font-family="Helvetica,sans-Serif" font-weight="bold" font-size="9.00">Sounds</text>
</g>
<g id="clust8" class="cluster">
<title>cluster_src/components/Chessboard/Tile</title>
<path fill="#ffffff" stroke="black" stroke-width="2" d="M155.62,-392C155.62,-392 467.75,-392 467.75,-392 473.75,-392 479.75,-398 479.75,-404 479.75,-404 479.75,-492 479.75,-492 479.75,-498 473.75,-504 467.75,-504 467.75,-504 155.62,-504 155.62,-504 149.62,-504 143.62,-498 143.62,-492 143.62,-492 143.62,-404 143.62,-404 143.62,-398 149.62,-392 155.62,-392"/>
<text text-anchor="middle" x="311.69" y="-491.45" font-family="Helvetica,sans-Serif" font-weight="bold" font-size="9.00">Tile</text>
</g>
<g id="clust9" class="cluster">
<title>cluster_src/components/Chessboard/Tile/Piece</title>
<path fill="#ffffff" stroke="black" stroke-width="2" d="M280.62,-400C280.62,-400 459.75,-400 459.75,-400 465.75,-400 471.75,-406 471.75,-412 471.75,-412 471.75,-440 471.75,-440 471.75,-446 465.75,-452 459.75,-452 459.75,-452 280.62,-452 280.62,-452 274.62,-452 268.62,-446 268.62,-440 268.62,-440 268.62,-412 268.62,-412 268.62,-406 274.62,-400 280.62,-400"/>
<text text-anchor="middle" x="370.19" y="-439.45" font-family="Helvetica,sans-Serif" font-weight="bold" font-size="9.00">Piece</text>
</g>
<!-- src/components/Chessboard/Chessboard.js -->
<g id="node1" class="node">
<title>src/components/Chessboard/Chessboard.js</title>
<g id="a_node1"><a xlink:href="src/components/Chessboard/Chessboard.js" xlink:title="Chessboard.js">
<path fill="#4db6ac" stroke="black" d="M101.33,-282.88C101.33,-282.88 37.92,-282.88 37.92,-282.88 34.96,-282.88 32,-279.92 32,-276.96 32,-276.96 32,-271.04 32,-271.04 32,-268.08 34.96,-265.12 37.92,-265.12 37.92,-265.12 101.33,-265.12 101.33,-265.12 104.29,-265.12 107.25,-268.08 107.25,-271.04 107.25,-271.04 107.25,-276.96 107.25,-276.96 107.25,-279.92 104.29,-282.88 101.33,-282.88"/>
<text text-anchor="start" x="40" y="-270.32" font-family="Helvetica,sans-Serif" font-size="9.00">Chessboard.js</text>
</a>
</g>
</g>
<!-- src/components/Chessboard/ChessboardStyle.css -->
<g id="node2" class="node">
<title>src/components/Chessboard/ChessboardStyle.css</title>
<g id="a_node2"><a xlink:href="src/components/Chessboard/ChessboardStyle.css" xlink:title="ChessboardStyle.css">
<path fill="#4db6ac" stroke="black" d="M223.83,-49.88C223.83,-49.88 133.42,-49.88 133.42,-49.88 130.46,-49.88 127.5,-46.92 127.5,-43.96 127.5,-43.96 127.5,-38.04 127.5,-38.04 127.5,-35.08 130.46,-32.12 133.42,-32.12 133.42,-32.12 223.83,-32.12 223.83,-32.12 226.79,-32.12 229.75,-35.08 229.75,-38.04 229.75,-38.04 229.75,-43.96 229.75,-43.96 229.75,-46.92 226.79,-49.88 223.83,-49.88"/>
<text text-anchor="start" x="135.5" y="-37.33" font-family="Helvetica,sans-Serif" font-size="9.00">ChessboardStyle.css</text>
</a>
</g>
</g>
<!-- src/components/Chessboard/Chessboard.js&#45;&gt;src/components/Chessboard/ChessboardStyle.css -->
<g id="edge1" class="edge">
<title>src/components/Chessboard/Chessboard.js&#45;&gt;src/components/Chessboard/ChessboardStyle.css</title>
<path fill="none" stroke="#000000" stroke-width="2" stroke-opacity="0.200000" d="M51.75,-264.87C51.75,-221.79 51.75,-41 51.75,-41 51.75,-41 118.02,-41 118.02,-41"/>
<polygon fill="#000000" fill-opacity="0.200000" stroke="#000000" stroke-width="2" stroke-opacity="0.200000" points="118.02,-43.1 124.02,-41 118.02,-38.9 118.02,-43.1"/>
</g>
<!-- src/components/Chessboard/Modals/GameOver/GameOverModal.js -->
<g id="node3" class="node">
<title>src/components/Chessboard/Modals/GameOver/GameOverModal.js</title>
<g id="a_node3"><a xlink:href="src/components/Chessboard/Modals/GameOver/GameOverModal.js" xlink:title="GameOverModal.js">
<path fill="#4db6ac" stroke="black" d="M220.08,-151.88C220.08,-151.88 137.17,-151.88 137.17,-151.88 134.21,-151.88 131.25,-148.92 131.25,-145.96 131.25,-145.96 131.25,-140.04 131.25,-140.04 131.25,-137.08 134.21,-134.12 137.17,-134.12 137.17,-134.12 220.08,-134.12 220.08,-134.12 223.04,-134.12 226,-137.08 226,-140.04 226,-140.04 226,-145.96 226,-145.96 226,-148.92 223.04,-151.88 220.08,-151.88"/>
<text text-anchor="start" x="139.25" y="-139.32" font-family="Helvetica,sans-Serif" font-size="9.00">GameOverModal.js</text>
</a>
</g>
</g>
<!-- src/components/Chessboard/Chessboard.js&#45;&gt;src/components/Chessboard/Modals/GameOver/GameOverModal.js -->
<g id="edge2" class="edge">
<title>src/components/Chessboard/Chessboard.js&#45;&gt;src/components/Chessboard/Modals/GameOver/GameOverModal.js</title>
<path fill="none" stroke="#000000" stroke-width="2" stroke-opacity="0.200000" d="M107.42,-270.32C123.56,-270.32 138.75,-270.32 138.75,-270.32 138.75,-270.32 138.75,-161.16 138.75,-161.16"/>
<polygon fill="#000000" fill-opacity="0.200000" stroke="#000000" stroke-width="2" stroke-opacity="0.200000" points="140.85,-161.16 138.75,-155.16 136.65,-161.16 140.85,-161.16"/>
</g>
<!-- src/components/Chessboard/Modals/Promotion/PromotionModal.js -->
<g id="node4" class="node">
<title>src/components/Chessboard/Modals/Promotion/PromotionModal.js</title>
<g id="a_node4"><a xlink:href="src/components/Chessboard/Modals/Promotion/PromotionModal.js" xlink:title="PromotionModal.js">
<path fill="#4db6ac" stroke="black" d="M218.96,-91.88C218.96,-91.88 138.29,-91.88 138.29,-91.88 135.33,-91.88 132.38,-88.92 132.38,-85.96 132.38,-85.96 132.38,-80.04 132.38,-80.04 132.38,-77.08 135.33,-74.12 138.29,-74.12 138.29,-74.12 218.96,-74.12 218.96,-74.12 221.92,-74.12 224.88,-77.08 224.88,-80.04 224.88,-80.04 224.88,-85.96 224.88,-85.96 224.88,-88.92 221.92,-91.88 218.96,-91.88"/>
<text text-anchor="start" x="140.38" y="-79.33" font-family="Helvetica,sans-Serif" font-size="9.00">PromotionModal.js</text>
</a>
</g>
</g>
<!-- src/components/Chessboard/Chessboard.js&#45;&gt;src/components/Chessboard/Modals/Promotion/PromotionModal.js -->
<g id="edge3" class="edge">
<title>src/components/Chessboard/Chessboard.js&#45;&gt;src/components/Chessboard/Modals/Promotion/PromotionModal.js</title>
<path fill="none" stroke="#000000" stroke-width="2" stroke-opacity="0.200000" d="M69.75,-264.79C69.75,-226.63 69.75,-83 69.75,-83 69.75,-83 123.14,-83 123.14,-83"/>
<polygon fill="#000000" fill-opacity="0.200000" stroke="#000000" stroke-width="2" stroke-opacity="0.200000" points="123.14,-85.1 129.14,-83 123.14,-80.9 123.14,-85.1"/>
</g>
<!-- src/components/Chessboard/Sounds/capture.mp3 -->
<g id="node5" class="node">
<title>src/components/Chessboard/Sounds/capture.mp3</title>
<g id="a_node5"><a xlink:href="src/components/Chessboard/Sounds/capture.mp3" xlink:title="capture.mp3">
<path fill="#4db6ac" stroke="black" d="M206.21,-357.88C206.21,-357.88 151.04,-357.88 151.04,-357.88 148.08,-357.88 145.12,-354.92 145.12,-351.96 145.12,-351.96 145.12,-346.04 145.12,-346.04 145.12,-343.08 148.08,-340.12 151.04,-340.12 151.04,-340.12 206.21,-340.12 206.21,-340.12 209.17,-340.12 212.12,-343.08 212.12,-346.04 212.12,-346.04 212.12,-351.96 212.12,-351.96 212.12,-354.92 209.17,-357.88 206.21,-357.88"/>
<text text-anchor="start" x="153.12" y="-345.32" font-family="Helvetica,sans-Serif" font-size="9.00">capture.mp3</text>
</a>
</g>
</g>
<!-- src/components/Chessboard/Chessboard.js&#45;&gt;src/components/Chessboard/Sounds/capture.mp3 -->
<g id="edge4" class="edge">
<title>src/components/Chessboard/Chessboard.js&#45;&gt;src/components/Chessboard/Sounds/capture.mp3</title>
<path fill="none" stroke="#000000" stroke-width="2" stroke-opacity="0.200000" d="M69.75,-283.2C69.75,-303.22 69.75,-349 69.75,-349 69.75,-349 135.77,-349 135.77,-349"/>
<polygon fill="#000000" fill-opacity="0.200000" stroke="#000000" stroke-width="2" stroke-opacity="0.200000" points="135.77,-351.1 141.77,-349 135.77,-346.9 135.77,-351.1"/>
</g>
<!-- src/components/Chessboard/Sounds/castle.mp3 -->
<g id="node6" class="node">
<title>src/components/Chessboard/Sounds/castle.mp3</title>
<g id="a_node6"><a xlink:href="src/components/Chessboard/Sounds/castle.mp3" xlink:title="castle.mp3">
<path fill="#4db6ac" stroke="black" d="M202.83,-327.88C202.83,-327.88 154.42,-327.88 154.42,-327.88 151.46,-327.88 148.5,-324.92 148.5,-321.96 148.5,-321.96 148.5,-316.04 148.5,-316.04 148.5,-313.08 151.46,-310.12 154.42,-310.12 154.42,-310.12 202.83,-310.12 202.83,-310.12 205.79,-310.12 208.75,-313.08 208.75,-316.04 208.75,-316.04 208.75,-321.96 208.75,-321.96 208.75,-324.92 205.79,-327.88 202.83,-327.88"/>
<text text-anchor="start" x="156.5" y="-315.32" font-family="Helvetica,sans-Serif" font-size="9.00">castle.mp3</text>
</a>
</g>
</g>
<!-- src/components/Chessboard/Chessboard.js&#45;&gt;src/components/Chessboard/Sounds/castle.mp3 -->
<g id="edge5" class="edge">
<title>src/components/Chessboard/Chessboard.js&#45;&gt;src/components/Chessboard/Sounds/castle.mp3</title>
<path fill="none" stroke="#000000" stroke-width="2" stroke-opacity="0.200000" d="M88.75,-283.11C88.75,-296.26 88.75,-319 88.75,-319 88.75,-319 139.2,-319 139.2,-319"/>
<polygon fill="#000000" fill-opacity="0.200000" stroke="#000000" stroke-width="2" stroke-opacity="0.200000" points="139.2,-321.1 145.2,-319 139.2,-316.9 139.2,-321.1"/>
</g>
<!-- src/components/Chessboard/Sounds/check.mp3 -->
<g id="node7" class="node">
<title>src/components/Chessboard/Sounds/check.mp3</title>
<g id="a_node7"><a xlink:href="src/components/Chessboard/Sounds/check.mp3" xlink:title="check.mp3">
<path fill="#4db6ac" stroke="black" d="M202.83,-297.88C202.83,-297.88 154.42,-297.88 154.42,-297.88 151.46,-297.88 148.5,-294.92 148.5,-291.96 148.5,-291.96 148.5,-286.04 148.5,-286.04 148.5,-283.08 151.46,-280.12 154.42,-280.12 154.42,-280.12 202.83,-280.12 202.83,-280.12 205.79,-280.12 208.75,-283.08 208.75,-286.04 208.75,-286.04 208.75,-291.96 208.75,-291.96 208.75,-294.92 205.79,-297.88 202.83,-297.88"/>
<text text-anchor="start" x="156.5" y="-285.32" font-family="Helvetica,sans-Serif" font-size="9.00">check.mp3</text>
</a>
</g>
</g>
<!-- src/components/Chessboard/Chessboard.js&#45;&gt;src/components/Chessboard/Sounds/check.mp3 -->
<g id="edge6" class="edge">
<title>src/components/Chessboard/Chessboard.js&#45;&gt;src/components/Chessboard/Sounds/check.mp3</title>
<path fill="none" stroke="#000000" stroke-width="2" stroke-opacity="0.200000" d="M107.48,-277.68C135.83,-277.68 169.75,-277.68 169.75,-277.68 169.75,-277.68 169.75,-277.89 169.75,-277.89"/>
<polygon fill="#000000" fill-opacity="0.200000" stroke="#000000" stroke-width="2" stroke-opacity="0.200000" points="167.65,-270.86 169.75,-276.86 171.85,-270.86 167.65,-270.86"/>
</g>
<!-- src/components/Chessboard/Sounds/gg.mp3 -->
<g id="node8" class="node">
<title>src/components/Chessboard/Sounds/gg.mp3</title>
<g id="a_node8"><a xlink:href="src/components/Chessboard/Sounds/gg.mp3" xlink:title="gg.mp3">
<path fill="#4db6ac" stroke="black" d="M199.71,-267.88C199.71,-267.88 157.54,-267.88 157.54,-267.88 154.58,-267.88 151.62,-264.92 151.62,-261.96 151.62,-261.96 151.62,-256.04 151.62,-256.04 151.62,-253.08 154.58,-250.12 157.54,-250.12 157.54,-250.12 199.71,-250.12 199.71,-250.12 202.67,-250.12 205.62,-253.08 205.62,-256.04 205.62,-256.04 205.62,-261.96 205.62,-261.96 205.62,-264.92 202.67,-267.88 199.71,-267.88"/>
<text text-anchor="start" x="163.25" y="-255.32" font-family="Helvetica,sans-Serif" font-size="9.00">gg.mp3</text>
</a>
</g>
</g>
<!-- src/components/Chessboard/Chessboard.js&#45;&gt;src/components/Chessboard/Sounds/gg.mp3 -->
<g id="edge7" class="edge">
<title>src/components/Chessboard/Chessboard.js&#45;&gt;src/components/Chessboard/Sounds/gg.mp3</title>
<path fill="none" stroke="#000000" stroke-width="2" stroke-opacity="0.200000" d="M107.65,-272.77C142.18,-272.77 187.75,-272.77 187.75,-272.77 187.75,-272.77 187.75,-272.31 187.75,-272.31"/>
<polygon fill="#000000" fill-opacity="0.200000" stroke="#000000" stroke-width="2" stroke-opacity="0.200000" points="189.85,-277.11 187.75,-271.11 185.65,-277.11 189.85,-277.11"/>
</g>
<!-- src/components/Chessboard/Sounds/move.mp3 -->
<g id="node9" class="node">
<title>src/components/Chessboard/Sounds/move.mp3</title>
<g id="a_node9"><a xlink:href="src/components/Chessboard/Sounds/move.mp3" xlink:title="move.mp3">
<path fill="#4db6ac" stroke="black" d="M202.08,-237.88C202.08,-237.88 155.17,-237.88 155.17,-237.88 152.21,-237.88 149.25,-234.92 149.25,-231.96 149.25,-231.96 149.25,-226.04 149.25,-226.04 149.25,-223.08 152.21,-220.12 155.17,-220.12 155.17,-220.12 202.08,-220.12 202.08,-220.12 205.04,-220.12 208,-223.08 208,-226.04 208,-226.04 208,-231.96 208,-231.96 208,-234.92 205.04,-237.88 202.08,-237.88"/>
<text text-anchor="start" x="157.25" y="-225.32" font-family="Helvetica,sans-Serif" font-size="9.00">move.mp3</text>
</a>
</g>
</g>
<!-- src/components/Chessboard/Chessboard.js&#45;&gt;src/components/Chessboard/Sounds/move.mp3 -->
<g id="edge8" class="edge">
<title>src/components/Chessboard/Chessboard.js&#45;&gt;src/components/Chessboard/Sounds/move.mp3</title>
<path fill="none" stroke="#000000" stroke-width="2" stroke-opacity="0.200000" d="M88.75,-264.89C88.75,-251.74 88.75,-229 88.75,-229 88.75,-229 140.2,-229 140.2,-229"/>
<polygon fill="#000000" fill-opacity="0.200000" stroke="#000000" stroke-width="2" stroke-opacity="0.200000" points="140.2,-231.1 146.2,-229 140.2,-226.9 140.2,-231.1"/>
</g>
<!-- src/components/Chessboard/Tile/Piece/Piece.js -->
<g id="node10" class="node">
<title>src/components/Chessboard/Tile/Piece/Piece.js</title>
<g id="a_node10"><a xlink:href="src/components/Chessboard/Tile/Piece/Piece.js" xlink:title="Piece.js">
<path fill="#4db6ac" stroke="black" d="M324.71,-425.88C324.71,-425.88 282.54,-425.88 282.54,-425.88 279.58,-425.88 276.62,-422.92 276.62,-419.96 276.62,-419.96 276.62,-414.04 276.62,-414.04 276.62,-411.08 279.58,-408.12 282.54,-408.12 282.54,-408.12 324.71,-408.12 324.71,-408.12 327.67,-408.12 330.62,-411.08 330.62,-414.04 330.62,-414.04 330.62,-419.96 330.62,-419.96 330.62,-422.92 327.67,-425.88 324.71,-425.88"/>
<text text-anchor="start" x="287.5" y="-413.32" font-family="Helvetica,sans-Serif" font-size="9.00">Piece.js</text>
</a>
</g>
</g>
<!-- src/components/Chessboard/Chessboard.js&#45;&gt;src/components/Chessboard/Tile/Piece/Piece.js -->
<g id="edge9" class="edge">
<title>src/components/Chessboard/Chessboard.js&#45;&gt;src/components/Chessboard/Tile/Piece/Piece.js</title>
<path fill="none" stroke="#000000" stroke-width="2" stroke-opacity="0.200000" d="M107.5,-275.23C173.76,-275.23 303.75,-275.23 303.75,-275.23 303.75,-275.23 303.75,-398.7 303.75,-398.7"/>
<polygon fill="#000000" fill-opacity="0.200000" stroke="#000000" stroke-width="2" stroke-opacity="0.200000" points="301.65,-398.7 303.75,-404.7 305.85,-398.7 301.65,-398.7"/>
</g>
<!-- src/components/Chessboard/Tile/Tile.js -->
<g id="node11" class="node">
<title>src/components/Chessboard/Tile/Tile.js</title>
<g id="a_node11"><a xlink:href="src/components/Chessboard/Tile/Tile.js" xlink:title="Tile.js">
<path fill="#4db6ac" stroke="black" d="M199.71,-425.88C199.71,-425.88 157.54,-425.88 157.54,-425.88 154.58,-425.88 151.62,-422.92 151.62,-419.96 151.62,-419.96 151.62,-414.04 151.62,-414.04 151.62,-411.08 154.58,-408.12 157.54,-408.12 157.54,-408.12 199.71,-408.12 199.71,-408.12 202.67,-408.12 205.62,-411.08 205.62,-414.04 205.62,-414.04 205.62,-419.96 205.62,-419.96 205.62,-422.92 202.67,-425.88 199.71,-425.88"/>
<text text-anchor="start" x="167" y="-413.32" font-family="Helvetica,sans-Serif" font-size="9.00">Tile.js</text>
</a>
</g>
</g>
<!-- src/components/Chessboard/Chessboard.js&#45;&gt;src/components/Chessboard/Tile/Tile.js -->
<g id="edge10" class="edge">
<title>src/components/Chessboard/Chessboard.js&#45;&gt;src/components/Chessboard/Tile/Tile.js</title>
<path fill="none" stroke="#000000" stroke-width="2" stroke-opacity="0.200000" d="M51.75,-282.95C51.75,-314.25 51.75,-417 51.75,-417 51.75,-417 142.41,-417 142.41,-417"/>
<polygon fill="#000000" fill-opacity="0.200000" stroke="#000000" stroke-width="2" stroke-opacity="0.200000" points="142.41,-419.1 148.41,-417 142.41,-414.9 142.41,-419.1"/>
</g>
<!-- src/components/Chessboard/Modals/GameOver/GameOverModalStyle.css -->
<g id="node12" class="node">
<title>src/components/Chessboard/Modals/GameOver/GameOverModalStyle.css</title>
<g id="a_node12"><a xlink:href="src/components/Chessboard/Modals/GameOver/GameOverModalStyle.css" xlink:title="GameOverModalStyle.css">
<path fill="#4db6ac" stroke="black" d="M358.58,-151.88C358.58,-151.88 248.67,-151.88 248.67,-151.88 245.71,-151.88 242.75,-148.92 242.75,-145.96 242.75,-145.96 242.75,-140.04 242.75,-140.04 242.75,-137.08 245.71,-134.12 248.67,-134.12 248.67,-134.12 358.58,-134.12 358.58,-134.12 361.54,-134.12 364.5,-137.08 364.5,-140.04 364.5,-140.04 364.5,-145.96 364.5,-145.96 364.5,-148.92 361.54,-151.88 358.58,-151.88"/>
<text text-anchor="start" x="250.75" y="-139.32" font-family="Helvetica,sans-Serif" font-size="9.00">GameOverModalStyle.css</text>
</a>
</g>
</g>
<!-- src/components/Chessboard/Modals/GameOver/GameOverModal.js&#45;&gt;src/components/Chessboard/Modals/GameOver/GameOverModalStyle.css -->
<g id="edge11" class="edge">
<title>src/components/Chessboard/Modals/GameOver/GameOverModal.js&#45;&gt;src/components/Chessboard/Modals/GameOver/GameOverModalStyle.css</title>
<path fill="none" stroke="#000000" stroke-width="2" stroke-opacity="0.200000" d="M226.24,-143C226.24,-143 233.26,-143 233.26,-143"/>
<polygon fill="#000000" fill-opacity="0.200000" stroke="#000000" stroke-width="2" stroke-opacity="0.200000" points="233.26,-145.1 239.26,-143 233.26,-140.9 233.26,-145.1"/>
</g>
<!-- src/components/Chessboard/Modals/Promotion/PromotionModalStyle.css -->
<g id="node13" class="node">
<title>src/components/Chessboard/Modals/Promotion/PromotionModalStyle.css</title>
<g id="a_node13"><a xlink:href="src/components/Chessboard/Modals/Promotion/PromotionModalStyle.css" xlink:title="PromotionModalStyle.css">
<path fill="#4db6ac" stroke="black" d="M357.46,-91.88C357.46,-91.88 249.79,-91.88 249.79,-91.88 246.83,-91.88 243.88,-88.92 243.88,-85.96 243.88,-85.96 243.88,-80.04 243.88,-80.04 243.88,-77.08 246.83,-74.12 249.79,-74.12 249.79,-74.12 357.46,-74.12 357.46,-74.12 360.42,-74.12 363.38,-77.08 363.38,-80.04 363.38,-80.04 363.38,-85.96 363.38,-85.96 363.38,-88.92 360.42,-91.88 357.46,-91.88"/>
<text text-anchor="start" x="251.88" y="-79.33" font-family="Helvetica,sans-Serif" font-size="9.00">PromotionModalStyle.css</text>
</a>
</g>
</g>
<!-- src/components/Chessboard/Modals/Promotion/PromotionModal.js&#45;&gt;src/components/Chessboard/Modals/Promotion/PromotionModalStyle.css -->
<g id="edge12" class="edge">
<title>src/components/Chessboard/Modals/Promotion/PromotionModal.js&#45;&gt;src/components/Chessboard/Modals/Promotion/PromotionModalStyle.css</title>
<path fill="none" stroke="#000000" stroke-width="2" stroke-opacity="0.200000" d="M225.17,-83C225.17,-83 234.46,-83 234.46,-83"/>
<polygon fill="#000000" fill-opacity="0.200000" stroke="#000000" stroke-width="2" stroke-opacity="0.200000" points="234.46,-85.1 240.46,-83 234.46,-80.9 234.46,-85.1"/>
</g>
<!-- src/components/Chessboard/Tile/Piece/PieceStyle.css -->
<g id="node14" class="node">
<title>src/components/Chessboard/Tile/Piece/PieceStyle.css</title>
<g id="a_node14"><a xlink:href="src/components/Chessboard/Tile/Piece/PieceStyle.css" xlink:title="PieceStyle.css">
<path fill="#4db6ac" stroke="black" d="M457.83,-425.88C457.83,-425.88 394.42,-425.88 394.42,-425.88 391.46,-425.88 388.5,-422.92 388.5,-419.96 388.5,-419.96 388.5,-414.04 388.5,-414.04 388.5,-411.08 391.46,-408.12 394.42,-408.12 394.42,-408.12 457.83,-408.12 457.83,-408.12 460.79,-408.12 463.75,-411.08 463.75,-414.04 463.75,-414.04 463.75,-419.96 463.75,-419.96 463.75,-422.92 460.79,-425.88 457.83,-425.88"/>
<text text-anchor="start" x="396.5" y="-413.32" font-family="Helvetica,sans-Serif" font-size="9.00">PieceStyle.css</text>
</a>
</g>
</g>
<!-- src/components/Chessboard/Tile/Piece/Piece.js&#45;&gt;src/components/Chessboard/Tile/Piece/PieceStyle.css -->
<g id="edge13" class="edge">
<title>src/components/Chessboard/Tile/Piece/Piece.js&#45;&gt;src/components/Chessboard/Tile/Piece/PieceStyle.css</title>
<path fill="none" stroke="#000000" stroke-width="2" stroke-opacity="0.200000" d="M331.12,-417C331.12,-417 379.04,-417 379.04,-417"/>
<polygon fill="#000000" fill-opacity="0.200000" stroke="#000000" stroke-width="2" stroke-opacity="0.200000" points="379.04,-419.1 385.04,-417 379.04,-414.9 379.04,-419.1"/>
</g>
<!-- src/components/Chessboard/Tile/Tile.js&#45;&gt;src/components/Chessboard/Tile/Piece/Piece.js -->
<g id="edge14" class="edge">
<title>src/components/Chessboard/Tile/Tile.js&#45;&gt;src/components/Chessboard/Tile/Piece/Piece.js</title>
<path fill="none" stroke="#000000" stroke-width="2" stroke-opacity="0.200000" d="M206.06,-417C206.06,-417 267.26,-417 267.26,-417"/>
<polygon fill="#000000" fill-opacity="0.200000" stroke="#000000" stroke-width="2" stroke-opacity="0.200000" points="267.26,-419.1 273.26,-417 267.26,-414.9 267.26,-419.1"/>
</g>
<!-- src/components/Chessboard/Tile/TileStyle.css -->
<g id="node15" class="node">
<title>src/components/Chessboard/Tile/TileStyle.css</title>
<g id="a_node15"><a xlink:href="src/components/Chessboard/Tile/TileStyle.css" xlink:title="TileStyle.css">
<path fill="#4db6ac" stroke="black" d="M330.83,-477.88C330.83,-477.88 276.42,-477.88 276.42,-477.88 273.46,-477.88 270.5,-474.92 270.5,-471.96 270.5,-471.96 270.5,-466.04 270.5,-466.04 270.5,-463.08 273.46,-460.12 276.42,-460.12 276.42,-460.12 330.83,-460.12 330.83,-460.12 333.79,-460.12 336.75,-463.08 336.75,-466.04 336.75,-466.04 336.75,-471.96 336.75,-471.96 336.75,-474.92 333.79,-477.88 330.83,-477.88"/>
<text text-anchor="start" x="278.5" y="-465.32" font-family="Helvetica,sans-Serif" font-size="9.00">TileStyle.css</text>
</a>
</g>
</g>
<!-- src/components/Chessboard/Tile/Tile.js&#45;&gt;src/components/Chessboard/Tile/TileStyle.css -->
<g id="edge15" class="edge">
<title>src/components/Chessboard/Tile/Tile.js&#45;&gt;src/components/Chessboard/Tile/TileStyle.css</title>
<path fill="none" stroke="#000000" stroke-width="2" stroke-opacity="0.200000" d="M178.75,-426.06C178.75,-440.96 178.75,-469 178.75,-469 178.75,-469 261.16,-469 261.16,-469"/>
<polygon fill="#000000" fill-opacity="0.200000" stroke="#000000" stroke-width="2" stroke-opacity="0.200000" points="261.16,-471.1 267.16,-469 261.16,-466.9 261.16,-471.1"/>
</g>
</g>
</svg>
