<?xml version="1.0" encoding="UTF-8" standalone="no"?>
<!DOCTYPE svg PUBLIC "-//W3C//DTD SVG 1.1//EN"
 "http://www.w3.org/Graphics/SVG/1.1/DTD/svg11.dtd">
<!-- Generated by graphviz version 8.0.5 (20230430.1635)
 -->
<!-- Title: dependency&#45;cruiser output Pages: 1 -->
<svg width="712pt" height="1136pt"
 viewBox="0.00 0.00 712.12 1136.00" xmlns="http://www.w3.org/2000/svg" xmlns:xlink="http://www.w3.org/1999/xlink">
<g id="graph0" class="graph" transform="scale(1 1) rotate(0) translate(4 1132)">
<title>dependency&#45;cruiser output</title>
<polygon fill="white" stroke="none" points="-4,4 -4,-1132 708.12,-1132 708.12,4 -4,4"/>
<g id="clust1" class="cluster">
<title>cluster_src</title>
<path fill="#ffffff" stroke="black" stroke-width="2" d="M20,-8C20,-8 684.12,-8 684.12,-8 690.12,-8 696.12,-14 696.12,-20 696.12,-20 696.12,-1108 696.12,-1108 696.12,-1114 690.12,-1120 684.12,-1120 684.12,-1120 20,-1120 20,-1120 14,-1120 8,-1114 8,-1108 8,-1108 8,-20 8,-20 8,-14 14,-8 20,-8"/>
<text text-anchor="middle" x="352.06" y="-1107.45" font-family="Helvetica,sans-Serif" font-weight="bold" font-size="9.00">src</text>
</g>
<g id="clust2" class="cluster">
<title>cluster_src/components</title>
<path fill="#ffffff" stroke="black" stroke-width="2" d="M90,-16C90,-16 676.12,-16 676.12,-16 682.12,-16 688.12,-22 688.12,-28 688.12,-28 688.12,-1082 688.12,-1082 688.12,-1088 682.12,-1094 676.12,-1094 676.12,-1094 90,-1094 90,-1094 84,-1094 78,-1088 78,-1082 78,-1082 78,-28 78,-28 78,-22 84,-16 90,-16"/>
<text text-anchor="middle" x="383.06" y="-1081.45" font-family="Helvetica,sans-Serif" font-weight="bold" font-size="9.00">components</text>
</g>
<g id="clust3" class="cluster">
<title>cluster_src/components/Chessboard</title>
<path fill="#ffffff" stroke="black" stroke-width="2" d="M348.5,-178C348.5,-178 668.12,-178 668.12,-178 674.12,-178 680.12,-184 680.12,-190 680.12,-190 680.12,-440 680.12,-440 680.12,-446 674.12,-452 668.12,-452 668.12,-452 348.5,-452 348.5,-452 342.5,-452 336.5,-446 336.5,-440 336.5,-440 336.5,-190 336.5,-190 336.5,-184 342.5,-178 348.5,-178"/>
<text text-anchor="middle" x="508.31" y="-439.45" font-family="Helvetica,sans-Serif" font-weight="bold" font-size="9.00">Chessboard</text>
</g>
<g id="clust4" class="cluster">
<title>cluster_src/components/Chessboard/Modals</title>
<path fill="#ffffff" stroke="black" stroke-width="2" d="M464,-186C464,-186 566.75,-186 566.75,-186 572.75,-186 578.75,-192 578.75,-198 578.75,-198 578.75,-320 578.75,-320 578.75,-326 572.75,-332 566.75,-332 566.75,-332 464,-332 464,-332 458,-332 452,-326 452,-320 452,-320 452,-198 452,-198 452,-192 458,-186 464,-186"/>
<text text-anchor="middle" x="515.38" y="-319.45" font-family="Helvetica,sans-Serif" font-weight="bold" font-size="9.00">Modals</text>
</g>
<g id="clust6" class="cluster">
<title>cluster_src/components/Chessboard/Modals/Promotion</title>
<path fill="#ffffff" stroke="black" stroke-width="2" d="M473.12,-254C473.12,-254 557.62,-254 557.62,-254 563.62,-254 569.62,-260 569.62,-266 569.62,-266 569.62,-294 569.62,-294 569.62,-300 563.62,-306 557.62,-306 557.62,-306 473.12,-306 473.12,-306 467.12,-306 461.12,-300 461.12,-294 461.12,-294 461.12,-266 461.12,-266 461.12,-260 467.12,-254 473.12,-254"/>
<text text-anchor="middle" x="515.38" y="-293.45" font-family="Helvetica,sans-Serif" font-weight="bold" font-size="9.00">Promotion</text>
</g>
<g id="clust5" class="cluster">
<title>cluster_src/components/Chessboard/Modals/GameOver</title>
<path fill="#ffffff" stroke="black" stroke-width="2" d="M472,-194C472,-194 558.75,-194 558.75,-194 564.75,-194 570.75,-200 570.75,-206 570.75,-206 570.75,-234 570.75,-234 570.75,-240 564.75,-246 558.75,-246 558.75,-246 472,-246 472,-246 466,-246 460,-240 460,-234 460,-234 460,-206 460,-206 460,-200 466,-194 472,-194"/>
<text text-anchor="middle" x="515.38" y="-233.45" font-family="Helvetica,sans-Serif" font-weight="bold" font-size="9.00">GameOver</text>
</g>
<g id="clust7" class="cluster">
<title>cluster_src/components/Chessboard/Tile</title>
<path fill="#ffffff" stroke="black" stroke-width="2" d="M492.38,-340C492.38,-340 660.12,-340 660.12,-340 666.12,-340 672.12,-346 672.12,-352 672.12,-352 672.12,-414 672.12,-414 672.12,-420 666.12,-426 660.12,-426 660.12,-426 492.38,-426 492.38,-426 486.38,-426 480.38,-420 480.38,-414 480.38,-414 480.38,-352 480.38,-352 480.38,-346 486.38,-340 492.38,-340"/>
<text text-anchor="middle" x="576.25" y="-413.45" font-family="Helvetica,sans-Serif" font-weight="bold" font-size="9.00">Tile</text>
</g>
<g id="clust8" class="cluster">
<title>cluster_src/components/Chessboard/Tile/Piece</title>
<path fill="#ffffff" stroke="black" stroke-width="2" d="M606.12,-348C606.12,-348 652.12,-348 652.12,-348 658.12,-348 664.12,-354 664.12,-360 664.12,-360 664.12,-388 664.12,-388 664.12,-394 658.12,-400 652.12,-400 652.12,-400 606.12,-400 606.12,-400 600.12,-400 594.12,-394 594.12,-388 594.12,-388 594.12,-360 594.12,-360 594.12,-354 600.12,-348 606.12,-348"/>
<text text-anchor="middle" x="629.12" y="-387.45" font-family="Helvetica,sans-Serif" font-weight="bold" font-size="9.00">Piece</text>
</g>
<g id="clust9" class="cluster">
<title>cluster_src/components/ComputerGame</title>
<path fill="#ffffff" stroke="black" stroke-width="2" d="M209.88,-24C209.88,-24 429.38,-24 429.38,-24 435.38,-24 441.38,-30 441.38,-36 441.38,-36 441.38,-158 441.38,-158 441.38,-164 435.38,-170 429.38,-170 429.38,-170 209.88,-170 209.88,-170 203.88,-170 197.88,-164 197.88,-158 197.88,-158 197.88,-36 197.88,-36 197.88,-30 203.88,-24 209.88,-24"/>
<text text-anchor="middle" x="319.62" y="-157.45" font-family="Helvetica,sans-Serif" font-weight="bold" font-size="9.00">ComputerGame</text>
</g>
<g id="clust10" class="cluster">
<title>cluster_src/components/ComputerGame/MovesList</title>
<path fill="#ffffff" stroke="black" stroke-width="2" d="M353,-92C353,-92 411.25,-92 411.25,-92 417.25,-92 423.25,-98 423.25,-104 423.25,-104 423.25,-132 423.25,-132 423.25,-138 417.25,-144 411.25,-144 411.25,-144 353,-144 353,-144 347,-144 341,-138 341,-132 341,-132 341,-104 341,-104 341,-98 347,-92 353,-92"/>
<text text-anchor="middle" x="382.12" y="-131.45" font-family="Helvetica,sans-Serif" font-weight="bold" font-size="9.00">MovesList</text>
</g>
<g id="clust11" class="cluster">
<title>cluster_src/components/ComputerGame/SetLevelModal</title>
<path fill="#ffffff" stroke="black" stroke-width="2" d="M342.88,-32C342.88,-32 421.38,-32 421.38,-32 427.38,-32 433.38,-38 433.38,-44 433.38,-44 433.38,-72 433.38,-72 433.38,-78 427.38,-84 421.38,-84 421.38,-84 342.88,-84 342.88,-84 336.88,-84 330.88,-78 330.88,-72 330.88,-72 330.88,-44 330.88,-44 330.88,-38 336.88,-32 342.88,-32"/>
<text text-anchor="middle" x="382.12" y="-71.45" font-family="Helvetica,sans-Serif" font-weight="bold" font-size="9.00">SetLevelModal</text>
</g>
<g id="clust12" class="cluster">
<title>cluster_src/components/CreateGame</title>
<path fill="#ffffff" stroke="black" stroke-width="2" d="M216.25,-183C216.25,-183 285.75,-183 285.75,-183 291.75,-183 297.75,-189 297.75,-195 297.75,-195 297.75,-223 297.75,-223 297.75,-229 291.75,-235 285.75,-235 285.75,-235 216.25,-235 216.25,-235 210.25,-235 204.25,-229 204.25,-223 204.25,-223 204.25,-195 204.25,-195 204.25,-189 210.25,-183 216.25,-183"/>
<text text-anchor="middle" x="251" y="-222.45" font-family="Helvetica,sans-Serif" font-weight="bold" font-size="9.00">CreateGame</text>
</g>
<g id="clust13" class="cluster">
<title>cluster_src/components/CreateRoom</title>
<path fill="#ffffff" stroke="black" stroke-width="2" d="M216.25,-253C216.25,-253 285.75,-253 285.75,-253 291.75,-253 297.75,-259 297.75,-265 297.75,-265 297.75,-293 297.75,-293 297.75,-299 291.75,-305 285.75,-305 285.75,-305 216.25,-305 216.25,-305 210.25,-305 204.25,-299 204.25,-293 204.25,-293 204.25,-265 204.25,-265 204.25,-259 210.25,-253 216.25,-253"/>
<text text-anchor="middle" x="251" y="-292.45" font-family="Helvetica,sans-Serif" font-weight="bold" font-size="9.00">CreateRoom</text>
</g>
<g id="clust14" class="cluster">
<title>cluster_src/components/FreeBoard</title>
<path fill="#ffffff" stroke="black" stroke-width="2" d="M103.62,-460C103.62,-460 574.12,-460 574.12,-460 580.12,-460 586.12,-466 586.12,-472 586.12,-472 586.12,-842 586.12,-842 586.12,-848 580.12,-854 574.12,-854 574.12,-854 103.62,-854 103.62,-854 97.62,-854 91.62,-848 91.62,-842 91.62,-842 91.62,-472 91.62,-472 91.62,-466 97.62,-460 103.62,-460"/>
<text text-anchor="middle" x="338.88" y="-841.45" font-family="Helvetica,sans-Serif" font-weight="bold" font-size="9.00">FreeBoard</text>
</g>
<g id="clust15" class="cluster">
<title>cluster_src/components/FreeBoard/EditBoardModal</title>
<path fill="#ffffff" stroke="black" stroke-width="2" d="M209.5,-468C209.5,-468 292.5,-468 292.5,-468 298.5,-468 304.5,-474 304.5,-480 304.5,-480 304.5,-508 304.5,-508 304.5,-514 298.5,-520 292.5,-520 292.5,-520 209.5,-520 209.5,-520 203.5,-520 197.5,-514 197.5,-508 197.5,-508 197.5,-480 197.5,-480 197.5,-474 203.5,-468 209.5,-468"/>
<text text-anchor="middle" x="251" y="-507.45" font-family="Helvetica,sans-Serif" font-weight="bold" font-size="9.00">EditBoardModal</text>
</g>
<g id="clust16" class="cluster">
<title>cluster_src/components/FreeBoard/EvalList</title>
<path fill="#ffffff" stroke="black" stroke-width="2" d="M226.38,-716C226.38,-716 275.62,-716 275.62,-716 281.62,-716 287.62,-722 287.62,-728 287.62,-728 287.62,-756 287.62,-756 287.62,-762 281.62,-768 275.62,-768 275.62,-768 226.38,-768 226.38,-768 220.38,-768 214.38,-762 214.38,-756 214.38,-756 214.38,-728 214.38,-728 214.38,-722 220.38,-716 226.38,-716"/>
<text text-anchor="middle" x="251" y="-755.45" font-family="Helvetica,sans-Serif" font-weight="bold" font-size="9.00">EvalList</text>
</g>
<g id="clust17" class="cluster">
<title>cluster_src/components/FreeBoard/ReplayProgressOverlay</title>
<path fill="#ffffff" stroke="black" stroke-width="2" d="M193.75,-776C193.75,-776 308.25,-776 308.25,-776 314.25,-776 320.25,-782 320.25,-788 320.25,-788 320.25,-816 320.25,-816 320.25,-822 314.25,-828 308.25,-828 308.25,-828 193.75,-828 193.75,-828 187.75,-828 181.75,-822 181.75,-816 181.75,-816 181.75,-788 181.75,-788 181.75,-782 187.75,-776 193.75,-776"/>
<text text-anchor="middle" x="251" y="-815.45" font-family="Helvetica,sans-Serif" font-weight="bold" font-size="9.00">ReplayProgressOverlay</text>
</g>
<g id="clust18" class="cluster">
<title>cluster_src/components/FreeBoard/SettingsGear</title>
<path fill="#ffffff" stroke="black" stroke-width="2" d="M215.88,-528C215.88,-528 566.12,-528 566.12,-528 572.12,-528 578.12,-534 578.12,-540 578.12,-540 578.12,-636 578.12,-636 578.12,-642 572.12,-648 566.12,-648 566.12,-648 215.88,-648 215.88,-648 209.88,-648 203.88,-642 203.88,-636 203.88,-636 203.88,-540 203.88,-540 203.88,-534 209.88,-528 215.88,-528"/>
<text text-anchor="middle" x="391" y="-635.45" font-family="Helvetica,sans-Serif" font-weight="bold" font-size="9.00">SettingsGear</text>
</g>
<g id="clust19" class="cluster">
<title>cluster_src/components/FreeBoard/SettingsGear/SettingsModal</title>
<path fill="#ffffff" stroke="black" stroke-width="2" d="M344.38,-536C344.38,-536 558.12,-536 558.12,-536 564.12,-536 570.12,-542 570.12,-548 570.12,-548 570.12,-610 570.12,-610 570.12,-616 564.12,-622 558.12,-622 558.12,-622 344.38,-622 344.38,-622 338.38,-622 332.38,-616 332.38,-610 332.38,-610 332.38,-548 332.38,-548 332.38,-542 338.38,-536 344.38,-536"/>
<text text-anchor="middle" x="451.25" y="-609.45" font-family="Helvetica,sans-Serif" font-weight="bold" font-size="9.00">SettingsModal</text>
</g>
<g id="clust20" class="cluster">
<title>cluster_src/components/FreeBoard/SettingsGear/SettingsModal/SliderSetting</title>
<path fill="#ffffff" stroke="black" stroke-width="2" d="M480.62,-544C480.62,-544 550.12,-544 550.12,-544 556.12,-544 562.12,-550 562.12,-556 562.12,-556 562.12,-584 562.12,-584 562.12,-590 556.12,-596 550.12,-596 550.12,-596 480.62,-596 480.62,-596 474.62,-596 468.62,-590 468.62,-584 468.62,-584 468.62,-556 468.62,-556 468.62,-550 474.62,-544 480.62,-544"/>
<text text-anchor="middle" x="515.38" y="-583.45" font-family="Helvetica,sans-Serif" font-weight="bold" font-size="9.00">SliderSetting</text>
</g>
<g id="clust21" class="cluster">
<title>cluster_src/components/FreeBoard/ToggleSwitch</title>
<path fill="#ffffff" stroke="black" stroke-width="2" d="M215.12,-656C215.12,-656 286.88,-656 286.88,-656 292.88,-656 298.88,-662 298.88,-668 298.88,-668 298.88,-696 298.88,-696 298.88,-702 292.88,-708 286.88,-708 286.88,-708 215.12,-708 215.12,-708 209.12,-708 203.12,-702 203.12,-696 203.12,-696 203.12,-668 203.12,-668 203.12,-662 209.12,-656 215.12,-656"/>
<text text-anchor="middle" x="251" y="-695.45" font-family="Helvetica,sans-Serif" font-weight="bold" font-size="9.00">ToggleSwitch</text>
</g>
<g id="clust22" class="cluster">
<title>cluster_src/components/Home</title>
<path fill="#ffffff" stroke="black" stroke-width="2" d="M110.88,-982C110.88,-982 156.88,-982 156.88,-982 162.88,-982 168.88,-988 168.88,-994 168.88,-994 168.88,-1022 168.88,-1022 168.88,-1028 162.88,-1034 156.88,-1034 156.88,-1034 110.88,-1034 110.88,-1034 104.88,-1034 98.88,-1028 98.88,-1022 98.88,-1022 98.88,-994 98.88,-994 98.88,-988 104.88,-982 110.88,-982"/>
<text text-anchor="middle" x="133.88" y="-1021.45" font-family="Helvetica,sans-Serif" font-weight="bold" font-size="9.00">Home</text>
</g>
<g id="clust23" class="cluster">
<title>cluster_src/components/MultiplayerGame</title>
<path fill="#ffffff" stroke="black" stroke-width="2" d="M207.62,-862C207.62,-862 432,-862 432,-862 438,-862 444,-868 444,-874 444,-874 444,-1056 444,-1056 444,-1062 438,-1068 432,-1068 432,-1068 207.62,-1068 207.62,-1068 201.62,-1068 195.62,-1062 195.62,-1056 195.62,-1056 195.62,-874 195.62,-874 195.62,-868 201.62,-862 207.62,-862"/>
<text text-anchor="middle" x="319.81" y="-1055.45" font-family="Helvetica,sans-Serif" font-weight="bold" font-size="9.00">MultiplayerGame</text>
</g>
<g id="clust24" class="cluster">
<title>cluster_src/components/MultiplayerGame/SurrenderModal</title>
<path fill="#ffffff" stroke="black" stroke-width="2" d="M340.25,-870C340.25,-870 424,-870 424,-870 430,-870 436,-876 436,-882 436,-882 436,-910 436,-910 436,-916 430,-922 424,-922 424,-922 340.25,-922 340.25,-922 334.25,-922 328.25,-916 328.25,-910 328.25,-910 328.25,-882 328.25,-882 328.25,-876 334.25,-870 340.25,-870"/>
<text text-anchor="middle" x="382.12" y="-909.45" font-family="Helvetica,sans-Serif" font-weight="bold" font-size="9.00">SurrenderModal</text>
</g>
<g id="clust25" class="cluster">
<title>cluster_src/components/MultiplayerGame/Timer</title>
<path fill="#ffffff" stroke="black" stroke-width="2" d="M359.12,-930C359.12,-930 405.12,-930 405.12,-930 411.12,-930 417.12,-936 417.12,-942 417.12,-942 417.12,-970 417.12,-970 417.12,-976 411.12,-982 405.12,-982 405.12,-982 359.12,-982 359.12,-982 353.12,-982 347.12,-976 347.12,-970 347.12,-970 347.12,-942 347.12,-942 347.12,-936 353.12,-930 359.12,-930"/>
<text text-anchor="middle" x="382.12" y="-969.45" font-family="Helvetica,sans-Serif" font-weight="bold" font-size="9.00">Timer</text>
</g>
<g id="clust26" class="cluster">
<title>cluster_src/components/MultiplayerGame/Toast</title>
<path fill="#ffffff" stroke="black" stroke-width="2" d="M359.12,-990C359.12,-990 405.12,-990 405.12,-990 411.12,-990 417.12,-996 417.12,-1002 417.12,-1002 417.12,-1030 417.12,-1030 417.12,-1036 411.12,-1042 405.12,-1042 405.12,-1042 359.12,-1042 359.12,-1042 353.12,-1042 347.12,-1036 347.12,-1030 347.12,-1030 347.12,-1002 347.12,-1002 347.12,-996 353.12,-990 359.12,-990"/>
<text text-anchor="middle" x="382.12" y="-1029.45" font-family="Helvetica,sans-Serif" font-weight="bold" font-size="9.00">Toast</text>
</g>
<g id="clust27" class="cluster">
<title>cluster_src/components/Navbar</title>
<path fill="#ffffff" stroke="black" stroke-width="2" d="M110.38,-922C110.38,-922 157.38,-922 157.38,-922 163.38,-922 169.38,-928 169.38,-934 169.38,-934 169.38,-962 169.38,-962 169.38,-968 163.38,-974 157.38,-974 157.38,-974 110.38,-974 110.38,-974 104.38,-974 98.38,-968 98.38,-962 98.38,-962 98.38,-934 98.38,-934 98.38,-928 104.38,-922 110.38,-922"/>
<text text-anchor="middle" x="133.88" y="-961.45" font-family="Helvetica,sans-Serif" font-weight="bold" font-size="9.00">Navbar</text>
</g>
<g id="clust28" class="cluster">
<title>cluster_src/components/Profile</title>
<path fill="#ffffff" stroke="black" stroke-width="2" d="M110.88,-862C110.88,-862 156.88,-862 156.88,-862 162.88,-862 168.88,-868 168.88,-874 168.88,-874 168.88,-902 168.88,-902 168.88,-908 162.88,-914 156.88,-914 156.88,-914 110.88,-914 110.88,-914 104.88,-914 98.88,-908 98.88,-902 98.88,-902 98.88,-874 98.88,-874 98.88,-868 104.88,-862 110.88,-862"/>
<text text-anchor="middle" x="133.88" y="-901.45" font-family="Helvetica,sans-Serif" font-weight="bold" font-size="9.00">Profile</text>
</g>
<g id="clust29" class="cluster">
<title>cluster_src/components/Room</title>
<path fill="#ffffff" stroke="black" stroke-width="2" d="M98,-318C98,-318 304.12,-318 304.12,-318 310.12,-318 316.12,-324 316.12,-330 316.12,-330 316.12,-418 316.12,-418 316.12,-424 310.12,-430 304.12,-430 304.12,-430 98,-430 98,-430 92,-430 86,-424 86,-418 86,-418 86,-330 86,-330 86,-324 92,-318 98,-318"/>
<text text-anchor="middle" x="201.06" y="-417.45" font-family="Helvetica,sans-Serif" font-weight="bold" font-size="9.00">Room</text>
</g>
<g id="clust30" class="cluster">
<title>cluster_src/components/Room/Camera</title>
<path fill="#ffffff" stroke="black" stroke-width="2" d="M226,-326C226,-326 276,-326 276,-326 282,-326 288,-332 288,-338 288,-338 288,-366 288,-366 288,-372 282,-378 276,-378 276,-378 226,-378 226,-378 220,-378 214,-372 214,-366 214,-366 214,-338 214,-338 214,-332 220,-326 226,-326"/>
<text text-anchor="middle" x="251" y="-365.45" font-family="Helvetica,sans-Serif" font-weight="bold" font-size="9.00">Camera</text>
</g>
<g id="clust31" class="cluster">
<title>cluster_src/components/Signin</title>
<path fill="#ffffff" stroke="black" stroke-width="2" d="M110.88,-258C110.88,-258 156.88,-258 156.88,-258 162.88,-258 168.88,-264 168.88,-270 168.88,-270 168.88,-298 168.88,-298 168.88,-304 162.88,-310 156.88,-310 156.88,-310 110.88,-310 110.88,-310 104.88,-310 98.88,-304 98.88,-298 98.88,-298 98.88,-270 98.88,-270 98.88,-264 104.88,-258 110.88,-258"/>
<text text-anchor="middle" x="133.88" y="-297.45" font-family="Helvetica,sans-Serif" font-weight="bold" font-size="9.00">Signin</text>
</g>
<g id="clust32" class="cluster">
<title>cluster_src/components/Signup</title>
<path fill="#ffffff" stroke="black" stroke-width="2" d="M110.75,-198C110.75,-198 157,-198 157,-198 163,-198 169,-204 169,-210 169,-210 169,-238 169,-238 169,-244 163,-250 157,-250 157,-250 110.75,-250 110.75,-250 104.75,-250 98.75,-244 98.75,-238 98.75,-238 98.75,-210 98.75,-210 98.75,-204 104.75,-198 110.75,-198"/>
<text text-anchor="middle" x="133.88" y="-237.45" font-family="Helvetica,sans-Serif" font-weight="bold" font-size="9.00">Signup</text>
</g>
<!-- src/App.js -->
<g id="node1" class="node">
<title>src/App.js</title>
<g id="a_node1"><a xlink:href="src/App.js" xlink:title="App.js">
<path fill="#ffffcc" stroke="black" d="M64.08,-388.88C64.08,-388.88 21.92,-388.88 21.92,-388.88 18.96,-388.88 16,-385.92 16,-382.96 16,-382.96 16,-377.04 16,-377.04 16,-374.08 18.96,-371.12 21.92,-371.12 21.92,-371.12 64.08,-371.12 64.08,-371.12 67.04,-371.12 70,-374.08 70,-377.04 70,-377.04 70,-382.96 70,-382.96 70,-385.92 67.04,-388.88 64.08,-388.88"/>
<text text-anchor="start" x="30.25" y="-376.32" font-family="Helvetica,sans-Serif" font-size="9.00">App.js</text>
</a>
</g>
</g>
<!-- src/components/ComputerGame/ComputerGame.js -->
<g id="node2" class="node">
<title>src/components/ComputerGame/ComputerGame.js</title>
<g id="a_node2"><a xlink:href="src/components/ComputerGame/ComputerGame.js" xlink:title="ComputerGame.js">
<path fill="#a1887f" stroke="black" d="M290.21,-130.88C290.21,-130.88 211.79,-130.88 211.79,-130.88 208.83,-130.88 205.88,-127.92 205.88,-124.96 205.88,-124.96 205.88,-119.04 205.88,-119.04 205.88,-116.08 208.83,-113.12 211.79,-113.12 211.79,-113.12 290.21,-113.12 290.21,-113.12 293.17,-113.12 296.12,-116.08 296.12,-119.04 296.12,-119.04 296.12,-124.96 296.12,-124.96 296.12,-127.92 293.17,-130.88 290.21,-130.88"/>
<text text-anchor="start" x="213.88" y="-118.33" font-family="Helvetica,sans-Serif" font-size="9.00">ComputerGame.js</text>
</a>
</g>
</g>
<!-- src/App.js&#45;&gt;src/components/ComputerGame/ComputerGame.js -->
<g id="edge1" class="edge">
<title>src/App.js&#45;&gt;src/components/ComputerGame/ComputerGame.js</title>
<path fill="none" stroke="#000000" stroke-width="2" stroke-opacity="0.200000" d="M27.12,-370.82C27.12,-324.86 27.12,-122 27.12,-122 27.12,-122 196.43,-122 196.43,-122"/>
<polygon fill="#000000" fill-opacity="0.200000" stroke="#000000" stroke-width="2" stroke-opacity="0.200000" points="196.43,-124.1 202.43,-122 196.43,-119.9 196.43,-124.1"/>
</g>
<!-- src/components/CreateGame/CreateGame.js -->
<g id="node3" class="node">
<title>src/components/CreateGame/CreateGame.js</title>
<g id="a_node3"><a xlink:href="src/components/CreateGame/CreateGame.js" xlink:title="CreateGame.js">
<path fill="#ff8a65" stroke="black" d="M283.83,-208.88C283.83,-208.88 218.17,-208.88 218.17,-208.88 215.21,-208.88 212.25,-205.92 212.25,-202.96 212.25,-202.96 212.25,-197.04 212.25,-197.04 212.25,-194.08 215.21,-191.12 218.17,-191.12 218.17,-191.12 283.83,-191.12 283.83,-191.12 286.79,-191.12 289.75,-194.08 289.75,-197.04 289.75,-197.04 289.75,-202.96 289.75,-202.96 289.75,-205.92 286.79,-208.88 283.83,-208.88"/>
<text text-anchor="start" x="220.25" y="-196.32" font-family="Helvetica,sans-Serif" font-size="9.00">CreateGame.js</text>
</a>
</g>
</g>
<!-- src/App.js&#45;&gt;src/components/CreateGame/CreateGame.js -->
<g id="edge2" class="edge">
<title>src/App.js&#45;&gt;src/components/CreateGame/CreateGame.js</title>
<path fill="none" stroke="#000000" stroke-width="2" stroke-opacity="0.200000" d="M38.12,-370.76C38.12,-333.8 38.12,-198.62 38.12,-198.62 38.12,-198.62 202.96,-198.62 202.96,-198.62"/>
<polygon fill="#000000" fill-opacity="0.200000" stroke="#000000" stroke-width="2" stroke-opacity="0.200000" points="202.96,-200.73 208.96,-198.62 202.96,-196.53 202.96,-200.73"/>
</g>
<!-- src/components/CreateRoom/CreateRoom.js -->
<g id="node4" class="node">
<title>src/components/CreateRoom/CreateRoom.js</title>
<g id="a_node4"><a xlink:href="src/components/CreateRoom/CreateRoom.js" xlink:title="CreateRoom.js">
<path fill="#ffd54f" stroke="black" d="M283.83,-278.88C283.83,-278.88 218.17,-278.88 218.17,-278.88 215.21,-278.88 212.25,-275.92 212.25,-272.96 212.25,-272.96 212.25,-267.04 212.25,-267.04 212.25,-264.08 215.21,-261.12 218.17,-261.12 218.17,-261.12 283.83,-261.12 283.83,-261.12 286.79,-261.12 289.75,-264.08 289.75,-267.04 289.75,-267.04 289.75,-272.96 289.75,-272.96 289.75,-275.92 286.79,-278.88 283.83,-278.88"/>
<text text-anchor="start" x="220.25" y="-266.32" font-family="Helvetica,sans-Serif" font-size="9.00">CreateRoom.js</text>
</a>
</g>
</g>
<!-- src/App.js&#45;&gt;src/components/CreateRoom/CreateRoom.js -->
<g id="edge3" class="edge">
<title>src/App.js&#45;&gt;src/components/CreateRoom/CreateRoom.js</title>
<path fill="none" stroke="#000000" stroke-width="2" stroke-opacity="0.200000" d="M70.21,-377.96C119.18,-377.96 217.12,-377.96 217.12,-377.96 217.12,-377.96 217.12,-288.2 217.12,-288.2"/>
<polygon fill="#000000" fill-opacity="0.200000" stroke="#000000" stroke-width="2" stroke-opacity="0.200000" points="219.23,-288.2 217.12,-282.2 215.03,-288.2 219.23,-288.2"/>
</g>
<!-- src/components/FreeBoard/FreeBoard.js -->
<g id="node5" class="node">
<title>src/components/FreeBoard/FreeBoard.js</title>
<g id="a_node5"><a xlink:href="src/components/FreeBoard/FreeBoard.js" xlink:title="FreeBoard.js">
<path fill="#7986cb" stroke="black" d="M162.21,-525.88C162.21,-525.88 105.54,-525.88 105.54,-525.88 102.58,-525.88 99.62,-522.92 99.62,-519.96 99.62,-519.96 99.62,-514.04 99.62,-514.04 99.62,-511.08 102.58,-508.12 105.54,-508.12 105.54,-508.12 162.21,-508.12 162.21,-508.12 165.17,-508.12 168.12,-511.08 168.12,-514.04 168.12,-514.04 168.12,-519.96 168.12,-519.96 168.12,-522.92 165.17,-525.88 162.21,-525.88"/>
<text text-anchor="start" x="107.62" y="-513.33" font-family="Helvetica,sans-Serif" font-size="9.00">FreeBoard.js</text>
</a>
</g>
</g>
<!-- src/App.js&#45;&gt;src/components/FreeBoard/FreeBoard.js -->
<g id="edge4" class="edge">
<title>src/App.js&#45;&gt;src/components/FreeBoard/FreeBoard.js</title>
<path fill="none" stroke="#000000" stroke-width="2" stroke-opacity="0.200000" d="M70.49,-384.08C85.93,-384.08 102.12,-384.08 102.12,-384.08 102.12,-384.08 102.12,-498.86 102.12,-498.86"/>
<polygon fill="#000000" fill-opacity="0.200000" stroke="#000000" stroke-width="2" stroke-opacity="0.200000" points="100.03,-498.86 102.12,-504.86 104.23,-498.86 100.03,-498.86"/>
</g>
<!-- src/components/Home/Home.js -->
<g id="node6" class="node">
<title>src/components/Home/Home.js</title>
<g id="a_node6"><a xlink:href="src/components/Home/Home.js" xlink:title="Home.js">
<path fill="#e57373" stroke="black" d="M154.96,-1007.88C154.96,-1007.88 112.79,-1007.88 112.79,-1007.88 109.83,-1007.88 106.88,-1004.92 106.88,-1001.96 106.88,-1001.96 106.88,-996.04 106.88,-996.04 106.88,-993.08 109.83,-990.12 112.79,-990.12 112.79,-990.12 154.96,-990.12 154.96,-990.12 157.92,-990.12 160.88,-993.08 160.88,-996.04 160.88,-996.04 160.88,-1001.96 160.88,-1001.96 160.88,-1004.92 157.92,-1007.88 154.96,-1007.88"/>
<text text-anchor="start" x="117" y="-995.33" font-family="Helvetica,sans-Serif" font-size="9.00">Home.js</text>
</a>
</g>
</g>
<!-- src/App.js&#45;&gt;src/components/Home/Home.js -->
<g id="edge5" class="edge">
<title>src/App.js&#45;&gt;src/components/Home/Home.js</title>
<path fill="none" stroke="#000000" stroke-width="2" stroke-opacity="0.200000" d="M27.12,-389.23C27.12,-466.23 27.12,-999 27.12,-999 27.12,-999 97.38,-999 97.38,-999"/>
<polygon fill="#000000" fill-opacity="0.200000" stroke="#000000" stroke-width="2" stroke-opacity="0.200000" points="97.38,-1001.1 103.38,-999 97.38,-996.9 97.38,-1001.1"/>
</g>
<!-- src/components/MultiplayerGame/MultiplayerGame.js -->
<g id="node7" class="node">
<title>src/components/MultiplayerGame/MultiplayerGame.js</title>
<g id="a_node7"><a xlink:href="src/components/MultiplayerGame/MultiplayerGame.js" xlink:title="MultiplayerGame.js">
<path fill="#9575cd" stroke="black" d="M292.46,-925.88C292.46,-925.88 209.54,-925.88 209.54,-925.88 206.58,-925.88 203.62,-922.92 203.62,-919.96 203.62,-919.96 203.62,-914.04 203.62,-914.04 203.62,-911.08 206.58,-908.12 209.54,-908.12 209.54,-908.12 292.46,-908.12 292.46,-908.12 295.42,-908.12 298.38,-911.08 298.38,-914.04 298.38,-914.04 298.38,-919.96 298.38,-919.96 298.38,-922.92 295.42,-925.88 292.46,-925.88"/>
<text text-anchor="start" x="211.62" y="-913.33" font-family="Helvetica,sans-Serif" font-size="9.00">MultiplayerGame.js</text>
</a>
</g>
</g>
<!-- src/App.js&#45;&gt;src/components/MultiplayerGame/MultiplayerGame.js -->
<g id="edge6" class="edge">
<title>src/App.js&#45;&gt;src/components/MultiplayerGame/MultiplayerGame.js</title>
<path fill="none" stroke="#000000" stroke-width="2" stroke-opacity="0.200000" d="M49.12,-389.32C49.12,-460.63 49.12,-917 49.12,-917 49.12,-917 194.16,-917 194.16,-917"/>
<polygon fill="#000000" fill-opacity="0.200000" stroke="#000000" stroke-width="2" stroke-opacity="0.200000" points="194.16,-919.1 200.16,-917 194.16,-914.9 194.16,-919.1"/>
</g>
<!-- src/components/Navbar/Navbar.js -->
<g id="node8" class="node">
<title>src/components/Navbar/Navbar.js</title>
<g id="a_node8"><a xlink:href="src/components/Navbar/Navbar.js" xlink:title="Navbar.js">
<path fill="#f06292" stroke="black" d="M155.46,-947.88C155.46,-947.88 112.29,-947.88 112.29,-947.88 109.33,-947.88 106.38,-944.92 106.38,-941.96 106.38,-941.96 106.38,-936.04 106.38,-936.04 106.38,-933.08 109.33,-930.12 112.29,-930.12 112.29,-930.12 155.46,-930.12 155.46,-930.12 158.42,-930.12 161.38,-933.08 161.38,-936.04 161.38,-936.04 161.38,-941.96 161.38,-941.96 161.38,-944.92 158.42,-947.88 155.46,-947.88"/>
<text text-anchor="start" x="114.38" y="-935.33" font-family="Helvetica,sans-Serif" font-size="9.00">Navbar.js</text>
</a>
</g>
</g>
<!-- src/App.js&#45;&gt;src/components/Navbar/Navbar.js -->
<g id="edge7" class="edge">
<title>src/App.js&#45;&gt;src/components/Navbar/Navbar.js</title>
<path fill="none" stroke="#000000" stroke-width="2" stroke-opacity="0.200000" d="M38.12,-389.24C38.12,-461.92 38.12,-939 38.12,-939 38.12,-939 96.92,-939 96.92,-939"/>
<polygon fill="#000000" fill-opacity="0.200000" stroke="#000000" stroke-width="2" stroke-opacity="0.200000" points="96.92,-941.1 102.92,-939 96.92,-936.9 96.92,-941.1"/>
</g>
<!-- src/components/Profile/Profile.js -->
<g id="node9" class="node">
<title>src/components/Profile/Profile.js</title>
<g id="a_node9"><a xlink:href="src/components/Profile/Profile.js" xlink:title="Profile.js">
<path fill="#ba68c8" stroke="black" d="M154.96,-887.88C154.96,-887.88 112.79,-887.88 112.79,-887.88 109.83,-887.88 106.88,-884.92 106.88,-881.96 106.88,-881.96 106.88,-876.04 106.88,-876.04 106.88,-873.08 109.83,-870.12 112.79,-870.12 112.79,-870.12 154.96,-870.12 154.96,-870.12 157.92,-870.12 160.88,-873.08 160.88,-876.04 160.88,-876.04 160.88,-881.96 160.88,-881.96 160.88,-884.92 157.92,-887.88 154.96,-887.88"/>
<text text-anchor="start" x="116.25" y="-875.33" font-family="Helvetica,sans-Serif" font-size="9.00">Profile.js</text>
</a>
</g>
</g>
<!-- src/App.js&#45;&gt;src/components/Profile/Profile.js -->
<g id="edge8" class="edge">
<title>src/App.js&#45;&gt;src/components/Profile/Profile.js</title>
<path fill="none" stroke="#000000" stroke-width="2" stroke-opacity="0.200000" d="M60.12,-389.09C60.12,-456.72 60.12,-879 60.12,-879 60.12,-879 97.41,-879 97.41,-879"/>
<polygon fill="#000000" fill-opacity="0.200000" stroke="#000000" stroke-width="2" stroke-opacity="0.200000" points="97.41,-881.1 103.41,-879 97.41,-876.9 97.41,-881.1"/>
</g>
<!-- src/components/Room/Room.js -->
<g id="node10" class="node">
<title>src/components/Room/Room.js</title>
<g id="a_node10"><a xlink:href="src/components/Room/Room.js" xlink:title="Room.js">
<path fill="#64b5f6" stroke="black" d="M154.96,-403.88C154.96,-403.88 112.79,-403.88 112.79,-403.88 109.83,-403.88 106.88,-400.92 106.88,-397.96 106.88,-397.96 106.88,-392.04 106.88,-392.04 106.88,-389.08 109.83,-386.12 112.79,-386.12 112.79,-386.12 154.96,-386.12 154.96,-386.12 157.92,-386.12 160.88,-389.08 160.88,-392.04 160.88,-392.04 160.88,-397.96 160.88,-397.96 160.88,-400.92 157.92,-403.88 154.96,-403.88"/>
<text text-anchor="start" x="117" y="-391.32" font-family="Helvetica,sans-Serif" font-size="9.00">Room.js</text>
</a>
</g>
</g>
<!-- src/App.js&#45;&gt;src/components/Room/Room.js -->
<g id="edge9" class="edge">
<title>src/App.js&#45;&gt;src/components/Room/Room.js</title>
<path fill="none" stroke="#000000" stroke-width="2" stroke-opacity="0.200000" d="M70.35,-382.04C94.24,-382.04 125.12,-382.04 125.12,-382.04 125.12,-382.04 125.12,-382.42 125.12,-382.42"/>
<polygon fill="#000000" fill-opacity="0.200000" stroke="#000000" stroke-width="2" stroke-opacity="0.200000" points="123.03,-376.86 125.12,-382.86 127.23,-376.86 123.03,-376.86"/>
</g>
<!-- src/components/Room/WaitingRoom.js -->
<g id="node11" class="node">
<title>src/components/Room/WaitingRoom.js</title>
<g id="a_node11"><a xlink:href="src/components/Room/WaitingRoom.js" xlink:title="WaitingRoom.js">
<path fill="#64b5f6" stroke="black" d="M167.83,-373.88C167.83,-373.88 99.92,-373.88 99.92,-373.88 96.96,-373.88 94,-370.92 94,-367.96 94,-367.96 94,-362.04 94,-362.04 94,-359.08 96.96,-356.12 99.92,-356.12 99.92,-356.12 167.83,-356.12 167.83,-356.12 170.79,-356.12 173.75,-359.08 173.75,-362.04 173.75,-362.04 173.75,-367.96 173.75,-367.96 173.75,-370.92 170.79,-373.88 167.83,-373.88"/>
<text text-anchor="start" x="102" y="-361.32" font-family="Helvetica,sans-Serif" font-size="9.00">WaitingRoom.js</text>
</a>
</g>
</g>
<!-- src/App.js&#45;&gt;src/components/Room/WaitingRoom.js -->
<g id="edge10" class="edge">
<title>src/App.js&#45;&gt;src/components/Room/WaitingRoom.js</title>
<path fill="none" stroke="#000000" stroke-width="2" stroke-opacity="0.200000" d="M70.43,-375.92C87.07,-375.92 105.12,-375.92 105.12,-375.92 105.12,-375.92 105.12,-375.75 105.12,-375.75"/>
<polygon fill="#000000" fill-opacity="0.200000" stroke="#000000" stroke-width="2" stroke-opacity="0.200000" points="107.23,-383.21 105.12,-377.21 103.03,-383.21 107.23,-383.21"/>
</g>
<!-- src/components/Signin/Signin.js -->
<g id="node12" class="node">
<title>src/components/Signin/Signin.js</title>
<g id="a_node12"><a xlink:href="src/components/Signin/Signin.js" xlink:title="Signin.js">
<path fill="#81c784" stroke="black" d="M154.96,-283.88C154.96,-283.88 112.79,-283.88 112.79,-283.88 109.83,-283.88 106.88,-280.92 106.88,-277.96 106.88,-277.96 106.88,-272.04 106.88,-272.04 106.88,-269.08 109.83,-266.12 112.79,-266.12 112.79,-266.12 154.96,-266.12 154.96,-266.12 157.92,-266.12 160.88,-269.08 160.88,-272.04 160.88,-272.04 160.88,-277.96 160.88,-277.96 160.88,-280.92 157.92,-283.88 154.96,-283.88"/>
<text text-anchor="start" x="116.25" y="-271.32" font-family="Helvetica,sans-Serif" font-size="9.00">Signin.js</text>
</a>
</g>
</g>
<!-- src/App.js&#45;&gt;src/components/Signin/Signin.js -->
<g id="edge11" class="edge">
<title>src/App.js&#45;&gt;src/components/Signin/Signin.js</title>
<path fill="none" stroke="#000000" stroke-width="2" stroke-opacity="0.200000" d="M60.12,-370.68C60.12,-344.98 60.12,-275 60.12,-275 60.12,-275 97.41,-275 97.41,-275"/>
<polygon fill="#000000" fill-opacity="0.200000" stroke="#000000" stroke-width="2" stroke-opacity="0.200000" points="97.41,-277.1 103.41,-275 97.41,-272.9 97.41,-277.1"/>
</g>
<!-- src/components/Signup/Signup.js -->
<g id="node13" class="node">
<title>src/components/Signup/Signup.js</title>
<g id="a_node13"><a xlink:href="src/components/Signup/Signup.js" xlink:title="Signup.js">
<path fill="#dce775" stroke="black" d="M155.08,-223.88C155.08,-223.88 112.67,-223.88 112.67,-223.88 109.71,-223.88 106.75,-220.92 106.75,-217.96 106.75,-217.96 106.75,-212.04 106.75,-212.04 106.75,-209.08 109.71,-206.12 112.67,-206.12 112.67,-206.12 155.08,-206.12 155.08,-206.12 158.04,-206.12 161,-209.08 161,-212.04 161,-212.04 161,-217.96 161,-217.96 161,-220.92 158.04,-223.88 155.08,-223.88"/>
<text text-anchor="start" x="114.75" y="-211.32" font-family="Helvetica,sans-Serif" font-size="9.00">Signup.js</text>
</a>
</g>
</g>
<!-- src/App.js&#45;&gt;src/components/Signup/Signup.js -->
<g id="edge12" class="edge">
<title>src/App.js&#45;&gt;src/components/Signup/Signup.js</title>
<path fill="none" stroke="#000000" stroke-width="2" stroke-opacity="0.200000" d="M49.12,-370.66C49.12,-335.75 49.12,-215 49.12,-215 49.12,-215 97.59,-215 97.59,-215"/>
<polygon fill="#000000" fill-opacity="0.200000" stroke="#000000" stroke-width="2" stroke-opacity="0.200000" points="97.59,-217.1 103.59,-215 97.59,-212.9 97.59,-217.1"/>
</g>
<!-- src/components/Chessboard/Chessboard.js -->
<g id="node14" class="node">
<title>src/components/Chessboard/Chessboard.js</title>
<g id="a_node14"><a xlink:href="src/components/Chessboard/Chessboard.js" xlink:title="Chessboard.js">
<path fill="#4db6ac" stroke="black" d="M413.83,-351.88C413.83,-351.88 350.42,-351.88 350.42,-351.88 347.46,-351.88 344.5,-348.92 344.5,-345.96 344.5,-345.96 344.5,-340.04 344.5,-340.04 344.5,-337.08 347.46,-334.12 350.42,-334.12 350.42,-334.12 413.83,-334.12 413.83,-334.12 416.79,-334.12 419.75,-337.08 419.75,-340.04 419.75,-340.04 419.75,-345.96 419.75,-345.96 419.75,-348.92 416.79,-351.88 413.83,-351.88"/>
<text text-anchor="start" x="352.5" y="-339.32" font-family="Helvetica,sans-Serif" font-size="9.00">Chessboard.js</text>
</a>
</g>
</g>
<!-- src/components/ComputerGame/ComputerGame.js&#45;&gt;src/components/Chessboard/Chessboard.js -->
<g id="edge18" class="edge">
<title>src/components/ComputerGame/ComputerGame.js&#45;&gt;src/components/Chessboard/Chessboard.js</title>
<path fill="none" stroke="#000000" stroke-width="2" stroke-opacity="0.200000" d="M296.53,-126.54C332.3,-126.54 376.12,-126.54 376.12,-126.54 376.12,-126.54 376.12,-324.7 376.12,-324.7"/>
<polygon fill="#000000" fill-opacity="0.200000" stroke="#000000" stroke-width="2" stroke-opacity="0.200000" points="374.03,-324.7 376.12,-330.7 378.23,-324.7 374.03,-324.7"/>
</g>
<!-- src/components/ComputerGame/MovesList/MovesList.js -->
<g id="node19" class="node">
<title>src/components/ComputerGame/MovesList/MovesList.js</title>
<g id="a_node19"><a xlink:href="src/components/ComputerGame/MovesList/MovesList.js" xlink:title="MovesList.js">
<path fill="#a1887f" stroke="black" d="M409.33,-117.88C409.33,-117.88 354.92,-117.88 354.92,-117.88 351.96,-117.88 349,-114.92 349,-111.96 349,-111.96 349,-106.04 349,-106.04 349,-103.08 351.96,-100.12 354.92,-100.12 354.92,-100.12 409.33,-100.12 409.33,-100.12 412.29,-100.12 415.25,-103.08 415.25,-106.04 415.25,-106.04 415.25,-111.96 415.25,-111.96 415.25,-114.92 412.29,-117.88 409.33,-117.88"/>
<text text-anchor="start" x="357" y="-105.33" font-family="Helvetica,sans-Serif" font-size="9.00">MovesList.js</text>
</a>
</g>
</g>
<!-- src/components/ComputerGame/ComputerGame.js&#45;&gt;src/components/ComputerGame/MovesList/MovesList.js -->
<g id="edge19" class="edge">
<title>src/components/ComputerGame/ComputerGame.js&#45;&gt;src/components/ComputerGame/MovesList/MovesList.js</title>
<path fill="none" stroke="#000000" stroke-width="2" stroke-opacity="0.200000" d="M296.34,-122.21C340.86,-122.21 402.12,-122.21 402.12,-122.21 402.12,-122.21 402.12,-121.82 402.12,-121.82"/>
<polygon fill="#000000" fill-opacity="0.200000" stroke="#000000" stroke-width="2" stroke-opacity="0.200000" points="404.23,-127.32 402.12,-121.32 400.03,-127.32 404.23,-127.32"/>
</g>
<!-- src/components/ComputerGame/SetLevelModal/SetLevelModal.js -->
<g id="node20" class="node">
<title>src/components/ComputerGame/SetLevelModal/SetLevelModal.js</title>
<g id="a_node20"><a xlink:href="src/components/ComputerGame/SetLevelModal/SetLevelModal.js" xlink:title="SetLevelModal.js">
<path fill="#a1887f" stroke="black" d="M419.46,-57.88C419.46,-57.88 344.79,-57.88 344.79,-57.88 341.83,-57.88 338.88,-54.92 338.88,-51.96 338.88,-51.96 338.88,-46.04 338.88,-46.04 338.88,-43.08 341.83,-40.12 344.79,-40.12 344.79,-40.12 419.46,-40.12 419.46,-40.12 422.42,-40.12 425.38,-43.08 425.38,-46.04 425.38,-46.04 425.38,-51.96 425.38,-51.96 425.38,-54.92 422.42,-57.88 419.46,-57.88"/>
<text text-anchor="start" x="346.88" y="-45.33" font-family="Helvetica,sans-Serif" font-size="9.00">SetLevelModal.js</text>
</a>
</g>
</g>
<!-- src/components/ComputerGame/ComputerGame.js&#45;&gt;src/components/ComputerGame/SetLevelModal/SetLevelModal.js -->
<g id="edge20" class="edge">
<title>src/components/ComputerGame/ComputerGame.js&#45;&gt;src/components/ComputerGame/SetLevelModal/SetLevelModal.js</title>
<path fill="none" stroke="#000000" stroke-width="2" stroke-opacity="0.200000" d="M251.12,-112.75C251.12,-93.11 251.12,-49 251.12,-49 251.12,-49 329.5,-49 329.5,-49"/>
<polygon fill="#000000" fill-opacity="0.200000" stroke="#000000" stroke-width="2" stroke-opacity="0.200000" points="329.5,-51.1 335.5,-49 329.5,-46.9 329.5,-51.1"/>
</g>
<!-- src/components/CreateGame/CreateGame.js&#45;&gt;src/components/Chessboard/Chessboard.js -->
<g id="edge22" class="edge">
<title>src/components/CreateGame/CreateGame.js&#45;&gt;src/components/Chessboard/Chessboard.js</title>
<path fill="none" stroke="#000000" stroke-width="2" stroke-opacity="0.200000" d="M290.22,-196.62C322.55,-196.62 363.12,-196.62 363.12,-196.62 363.12,-196.62 363.12,-324.84 363.12,-324.84"/>
<polygon fill="#000000" fill-opacity="0.200000" stroke="#000000" stroke-width="2" stroke-opacity="0.200000" points="361.03,-324.84 363.12,-330.84 365.23,-324.84 361.03,-324.84"/>
</g>
<!-- src/components/CreateRoom/CreateRoom.js&#45;&gt;src/components/Chessboard/Chessboard.js -->
<g id="edge23" class="edge">
<title>src/components/CreateRoom/CreateRoom.js&#45;&gt;src/components/Chessboard/Chessboard.js</title>
<path fill="none" stroke="#000000" stroke-width="2" stroke-opacity="0.200000" d="M285.12,-279.16C285.12,-298.14 285.12,-340.04 285.12,-340.04 285.12,-340.04 335.07,-340.04 335.07,-340.04"/>
<polygon fill="#000000" fill-opacity="0.200000" stroke="#000000" stroke-width="2" stroke-opacity="0.200000" points="335.07,-342.14 341.07,-340.04 335.07,-337.94 335.07,-342.14"/>
</g>
<!-- src/components/FreeBoard/FreeBoard.js&#45;&gt;src/components/Chessboard/Chessboard.js -->
<g id="edge25" class="edge">
<title>src/components/FreeBoard/FreeBoard.js&#45;&gt;src/components/Chessboard/Chessboard.js</title>
<path fill="none" stroke="#000000" stroke-width="2" stroke-opacity="0.200000" d="M168.54,-517C240.85,-517 401.12,-517 401.12,-517 401.12,-517 401.12,-361.35 401.12,-361.35"/>
<polygon fill="#000000" fill-opacity="0.200000" stroke="#000000" stroke-width="2" stroke-opacity="0.200000" points="403.23,-361.35 401.12,-355.35 399.03,-361.36 403.23,-361.35"/>
</g>
<!-- src/components/FreeBoard/FreeBoard.js&#45;&gt;src/components/ComputerGame/MovesList/MovesList.js -->
<g id="edge26" class="edge">
<title>src/components/FreeBoard/FreeBoard.js&#45;&gt;src/components/ComputerGame/MovesList/MovesList.js</title>
<path fill="none" stroke="#000000" stroke-width="2" stroke-opacity="0.200000" d="M168.28,-512.56C221.86,-512.56 319.12,-512.56 319.12,-512.56 319.12,-512.56 319.12,-106.62 319.12,-106.62 319.12,-106.62 339.78,-106.62 339.78,-106.62"/>
<polygon fill="#000000" fill-opacity="0.200000" stroke="#000000" stroke-width="2" stroke-opacity="0.200000" points="339.78,-108.73 345.78,-106.62 339.78,-104.53 339.78,-108.73"/>
</g>
<!-- src/components/FreeBoard/EditBoardModal/EditBoardModal.js -->
<g id="node22" class="node">
<title>src/components/FreeBoard/EditBoardModal/EditBoardModal.js</title>
<g id="a_node22"><a xlink:href="src/components/FreeBoard/EditBoardModal/EditBoardModal.js" xlink:title="EditBoardModal.js">
<path fill="#7986cb" stroke="black" d="M290.58,-493.88C290.58,-493.88 211.42,-493.88 211.42,-493.88 208.46,-493.88 205.5,-490.92 205.5,-487.96 205.5,-487.96 205.5,-482.04 205.5,-482.04 205.5,-479.08 208.46,-476.12 211.42,-476.12 211.42,-476.12 290.58,-476.12 290.58,-476.12 293.54,-476.12 296.5,-479.08 296.5,-482.04 296.5,-482.04 296.5,-487.96 296.5,-487.96 296.5,-490.92 293.54,-493.88 290.58,-493.88"/>
<text text-anchor="start" x="213.5" y="-481.32" font-family="Helvetica,sans-Serif" font-size="9.00">EditBoardModal.js</text>
</a>
</g>
</g>
<!-- src/components/FreeBoard/FreeBoard.js&#45;&gt;src/components/FreeBoard/EditBoardModal/EditBoardModal.js -->
<g id="edge27" class="edge">
<title>src/components/FreeBoard/FreeBoard.js&#45;&gt;src/components/FreeBoard/EditBoardModal/EditBoardModal.js</title>
<path fill="none" stroke="#000000" stroke-width="2" stroke-opacity="0.200000" d="M165.12,-507.81C165.12,-499.3 165.12,-487.96 165.12,-487.96 165.12,-487.96 196.05,-487.96 196.05,-487.96"/>
<polygon fill="#000000" fill-opacity="0.200000" stroke="#000000" stroke-width="2" stroke-opacity="0.200000" points="196.05,-490.06 202.05,-487.96 196.05,-485.86 196.05,-490.06"/>
</g>
<!-- src/components/FreeBoard/EvalList/EvalList.js -->
<g id="node23" class="node">
<title>src/components/FreeBoard/EvalList/EvalList.js</title>
<g id="a_node23"><a xlink:href="src/components/FreeBoard/EvalList/EvalList.js" xlink:title="EvalList.js">
<path fill="#7986cb" stroke="black" d="M273.71,-741.88C273.71,-741.88 228.29,-741.88 228.29,-741.88 225.33,-741.88 222.38,-738.92 222.38,-735.96 222.38,-735.96 222.38,-730.04 222.38,-730.04 222.38,-727.08 225.33,-724.12 228.29,-724.12 228.29,-724.12 273.71,-724.12 273.71,-724.12 276.67,-724.12 279.62,-727.08 279.62,-730.04 279.62,-730.04 279.62,-735.96 279.62,-735.96 279.62,-738.92 276.67,-741.88 273.71,-741.88"/>
<text text-anchor="start" x="230.38" y="-729.33" font-family="Helvetica,sans-Serif" font-size="9.00">EvalList.js</text>
</a>
</g>
</g>
<!-- src/components/FreeBoard/FreeBoard.js&#45;&gt;src/components/FreeBoard/EvalList/EvalList.js -->
<g id="edge28" class="edge">
<title>src/components/FreeBoard/FreeBoard.js&#45;&gt;src/components/FreeBoard/EvalList/EvalList.js</title>
<path fill="none" stroke="#000000" stroke-width="2" stroke-opacity="0.200000" d="M121.12,-526.28C121.12,-567.62 121.12,-733 121.12,-733 121.12,-733 213.18,-733 213.18,-733"/>
<polygon fill="#000000" fill-opacity="0.200000" stroke="#000000" stroke-width="2" stroke-opacity="0.200000" points="213.18,-735.1 219.18,-733 213.18,-730.9 213.18,-735.1"/>
</g>
<!-- src/components/FreeBoard/ReplayProgressOverlay/ReplayProgressOverlay.js -->
<g id="node24" class="node">
<title>src/components/FreeBoard/ReplayProgressOverlay/ReplayProgressOverlay.js</title>
<g id="a_node24"><a xlink:href="src/components/FreeBoard/ReplayProgressOverlay/ReplayProgressOverlay.js" xlink:title="ReplayProgressOverlay.js">
<path fill="#7986cb" stroke="black" d="M306.33,-801.88C306.33,-801.88 195.67,-801.88 195.67,-801.88 192.71,-801.88 189.75,-798.92 189.75,-795.96 189.75,-795.96 189.75,-790.04 189.75,-790.04 189.75,-787.08 192.71,-784.12 195.67,-784.12 195.67,-784.12 306.33,-784.12 306.33,-784.12 309.29,-784.12 312.25,-787.08 312.25,-790.04 312.25,-790.04 312.25,-795.96 312.25,-795.96 312.25,-798.92 309.29,-801.88 306.33,-801.88"/>
<text text-anchor="start" x="197.75" y="-789.33" font-family="Helvetica,sans-Serif" font-size="9.00">ReplayProgressOverlay.js</text>
</a>
</g>
</g>
<!-- src/components/FreeBoard/FreeBoard.js&#45;&gt;src/components/FreeBoard/ReplayProgressOverlay/ReplayProgressOverlay.js -->
<g id="edge29" class="edge">
<title>src/components/FreeBoard/FreeBoard.js&#45;&gt;src/components/FreeBoard/ReplayProgressOverlay/ReplayProgressOverlay.js</title>
<path fill="none" stroke="#000000" stroke-width="2" stroke-opacity="0.200000" d="M168.55,-521.44C184.58,-521.44 200.12,-521.44 200.12,-521.44 200.12,-521.44 200.12,-774.65 200.12,-774.65"/>
<polygon fill="#000000" fill-opacity="0.200000" stroke="#000000" stroke-width="2" stroke-opacity="0.200000" points="198.03,-774.65 200.12,-780.65 202.23,-774.65 198.03,-774.65"/>
</g>
<!-- src/components/FreeBoard/SettingsGear/SettingsGear.js -->
<g id="node25" class="node">
<title>src/components/FreeBoard/SettingsGear/SettingsGear.js</title>
<g id="a_node25"><a xlink:href="src/components/FreeBoard/SettingsGear/SettingsGear.js" xlink:title="SettingsGear.js">
<path fill="#7986cb" stroke="black" d="M284.21,-557.88C284.21,-557.88 217.79,-557.88 217.79,-557.88 214.83,-557.88 211.88,-554.92 211.88,-551.96 211.88,-551.96 211.88,-546.04 211.88,-546.04 211.88,-543.08 214.83,-540.12 217.79,-540.12 217.79,-540.12 284.21,-540.12 284.21,-540.12 287.17,-540.12 290.12,-543.08 290.12,-546.04 290.12,-546.04 290.12,-551.96 290.12,-551.96 290.12,-554.92 287.17,-557.88 284.21,-557.88"/>
<text text-anchor="start" x="219.88" y="-545.33" font-family="Helvetica,sans-Serif" font-size="9.00">SettingsGear.js</text>
</a>
</g>
</g>
<!-- src/components/FreeBoard/FreeBoard.js&#45;&gt;src/components/FreeBoard/SettingsGear/SettingsGear.js -->
<g id="edge30" class="edge">
<title>src/components/FreeBoard/FreeBoard.js&#45;&gt;src/components/FreeBoard/SettingsGear/SettingsGear.js</title>
<path fill="none" stroke="#000000" stroke-width="2" stroke-opacity="0.200000" d="M148.12,-526.08C148.12,-535.54 148.12,-549 148.12,-549 148.12,-549 202.52,-549 202.52,-549"/>
<polygon fill="#000000" fill-opacity="0.200000" stroke="#000000" stroke-width="2" stroke-opacity="0.200000" points="202.52,-551.1 208.52,-549 202.52,-546.9 202.52,-551.1"/>
</g>
<!-- src/components/FreeBoard/ToggleSwitch/ToggleSwitch.js -->
<g id="node26" class="node">
<title>src/components/FreeBoard/ToggleSwitch/ToggleSwitch.js</title>
<g id="a_node26"><a xlink:href="src/components/FreeBoard/ToggleSwitch/ToggleSwitch.js" xlink:title="ToggleSwitch.js">
<path fill="#7986cb" stroke="black" d="M284.96,-681.88C284.96,-681.88 217.04,-681.88 217.04,-681.88 214.08,-681.88 211.12,-678.92 211.12,-675.96 211.12,-675.96 211.12,-670.04 211.12,-670.04 211.12,-667.08 214.08,-664.12 217.04,-664.12 217.04,-664.12 284.96,-664.12 284.96,-664.12 287.92,-664.12 290.88,-667.08 290.88,-670.04 290.88,-670.04 290.88,-675.96 290.88,-675.96 290.88,-678.92 287.92,-681.88 284.96,-681.88"/>
<text text-anchor="start" x="219.12" y="-669.33" font-family="Helvetica,sans-Serif" font-size="9.00">ToggleSwitch.js</text>
</a>
</g>
</g>
<!-- src/components/FreeBoard/FreeBoard.js&#45;&gt;src/components/FreeBoard/ToggleSwitch/ToggleSwitch.js -->
<g id="edge31" class="edge">
<title>src/components/FreeBoard/FreeBoard.js&#45;&gt;src/components/FreeBoard/ToggleSwitch/ToggleSwitch.js</title>
<path fill="none" stroke="#000000" stroke-width="2" stroke-opacity="0.200000" d="M134.12,-526.29C134.12,-559.88 134.12,-673 134.12,-673 134.12,-673 201.78,-673 201.78,-673"/>
<polygon fill="#000000" fill-opacity="0.200000" stroke="#000000" stroke-width="2" stroke-opacity="0.200000" points="201.78,-675.1 207.78,-673 201.78,-670.9 201.78,-675.1"/>
</g>
<!-- src/components/MultiplayerGame/MultiplayerGame.js&#45;&gt;src/components/Chessboard/Chessboard.js -->
<g id="edge34" class="edge">
<title>src/components/MultiplayerGame/MultiplayerGame.js&#45;&gt;src/components/Chessboard/Chessboard.js</title>
<path fill="none" stroke="#000000" stroke-width="2" stroke-opacity="0.200000" d="M298.54,-915.23C315.79,-915.23 331.12,-915.23 331.12,-915.23 331.12,-915.23 331.12,-345.96 331.12,-345.96 331.12,-345.96 335.26,-345.96 335.26,-345.96"/>
<polygon fill="#000000" fill-opacity="0.200000" stroke="#000000" stroke-width="2" stroke-opacity="0.200000" points="335.26,-348.06 341.26,-345.96 335.26,-343.86 335.26,-348.06"/>
</g>
<!-- src/components/MultiplayerGame/MultiplayerGame.js&#45;&gt;src/components/ComputerGame/MovesList/MovesList.js -->
<g id="edge35" class="edge">
<title>src/components/MultiplayerGame/MultiplayerGame.js&#45;&gt;src/components/ComputerGame/MovesList/MovesList.js</title>
<path fill="none" stroke="#000000" stroke-width="2" stroke-opacity="0.200000" d="M298.78,-911.67C313.13,-911.67 325.12,-911.67 325.12,-911.67 325.12,-911.67 325.12,-109.88 325.12,-109.88 325.12,-109.88 339.64,-109.88 339.64,-109.88"/>
<polygon fill="#000000" fill-opacity="0.200000" stroke="#000000" stroke-width="2" stroke-opacity="0.200000" points="339.64,-111.98 345.64,-109.88 339.64,-107.78 339.64,-111.98"/>
</g>
<!-- src/components/MultiplayerGame/SurrenderModal/SurrenderModal.js -->
<g id="node28" class="node">
<title>src/components/MultiplayerGame/SurrenderModal/SurrenderModal.js</title>
<g id="a_node28"><a xlink:href="src/components/MultiplayerGame/SurrenderModal/SurrenderModal.js" xlink:title="SurrenderModal.js">
<path fill="#9575cd" stroke="black" d="M422.08,-895.88C422.08,-895.88 342.17,-895.88 342.17,-895.88 339.21,-895.88 336.25,-892.92 336.25,-889.96 336.25,-889.96 336.25,-884.04 336.25,-884.04 336.25,-881.08 339.21,-878.12 342.17,-878.12 342.17,-878.12 422.08,-878.12 422.08,-878.12 425.04,-878.12 428,-881.08 428,-884.04 428,-884.04 428,-889.96 428,-889.96 428,-892.92 425.04,-895.88 422.08,-895.88"/>
<text text-anchor="start" x="344.25" y="-883.33" font-family="Helvetica,sans-Serif" font-size="9.00">SurrenderModal.js</text>
</a>
</g>
</g>
<!-- src/components/MultiplayerGame/MultiplayerGame.js&#45;&gt;src/components/MultiplayerGame/SurrenderModal/SurrenderModal.js -->
<g id="edge36" class="edge">
<title>src/components/MultiplayerGame/MultiplayerGame.js&#45;&gt;src/components/MultiplayerGame/SurrenderModal/SurrenderModal.js</title>
<path fill="none" stroke="#000000" stroke-width="2" stroke-opacity="0.200000" d="M298.84,-918.77C322.53,-918.77 346.12,-918.77 346.12,-918.77 346.12,-918.77 346.12,-905.36 346.12,-905.36"/>
<polygon fill="#000000" fill-opacity="0.200000" stroke="#000000" stroke-width="2" stroke-opacity="0.200000" points="348.23,-905.36 346.12,-899.36 344.03,-905.36 348.23,-905.36"/>
</g>
<!-- src/components/MultiplayerGame/Timer/Timer.js -->
<g id="node29" class="node">
<title>src/components/MultiplayerGame/Timer/Timer.js</title>
<g id="a_node29"><a xlink:href="src/components/MultiplayerGame/Timer/Timer.js" xlink:title="Timer.js">
<path fill="#9575cd" stroke="black" d="M403.21,-955.88C403.21,-955.88 361.04,-955.88 361.04,-955.88 358.08,-955.88 355.12,-952.92 355.12,-949.96 355.12,-949.96 355.12,-944.04 355.12,-944.04 355.12,-941.08 358.08,-938.12 361.04,-938.12 361.04,-938.12 403.21,-938.12 403.21,-938.12 406.17,-938.12 409.12,-941.08 409.12,-944.04 409.12,-944.04 409.12,-949.96 409.12,-949.96 409.12,-952.92 406.17,-955.88 403.21,-955.88"/>
<text text-anchor="start" x="366.38" y="-943.33" font-family="Helvetica,sans-Serif" font-size="9.00">Timer.js</text>
</a>
</g>
</g>
<!-- src/components/MultiplayerGame/MultiplayerGame.js&#45;&gt;src/components/MultiplayerGame/Timer/Timer.js -->
<g id="edge37" class="edge">
<title>src/components/MultiplayerGame/MultiplayerGame.js&#45;&gt;src/components/MultiplayerGame/Timer/Timer.js</title>
<path fill="none" stroke="#000000" stroke-width="2" stroke-opacity="0.200000" d="M298.71,-922.33C336.2,-922.33 382.12,-922.33 382.12,-922.33 382.12,-922.33 382.12,-928.81 382.12,-928.81"/>
<polygon fill="#000000" fill-opacity="0.200000" stroke="#000000" stroke-width="2" stroke-opacity="0.200000" points="380.03,-928.81 382.12,-934.81 384.23,-928.81 380.03,-928.81"/>
</g>
<!-- src/components/MultiplayerGame/Toast/Toast.js -->
<g id="node30" class="node">
<title>src/components/MultiplayerGame/Toast/Toast.js</title>
<g id="a_node30"><a xlink:href="src/components/MultiplayerGame/Toast/Toast.js" xlink:title="Toast.js">
<path fill="#9575cd" stroke="black" d="M403.21,-1015.88C403.21,-1015.88 361.04,-1015.88 361.04,-1015.88 358.08,-1015.88 355.12,-1012.92 355.12,-1009.96 355.12,-1009.96 355.12,-1004.04 355.12,-1004.04 355.12,-1001.08 358.08,-998.12 361.04,-998.12 361.04,-998.12 403.21,-998.12 403.21,-998.12 406.17,-998.12 409.12,-1001.08 409.12,-1004.04 409.12,-1004.04 409.12,-1009.96 409.12,-1009.96 409.12,-1012.92 406.17,-1015.88 403.21,-1015.88"/>
<text text-anchor="start" x="366.75" y="-1003.33" font-family="Helvetica,sans-Serif" font-size="9.00">Toast.js</text>
</a>
</g>
</g>
<!-- src/components/MultiplayerGame/MultiplayerGame.js&#45;&gt;src/components/MultiplayerGame/Toast/Toast.js -->
<g id="edge38" class="edge">
<title>src/components/MultiplayerGame/MultiplayerGame.js&#45;&gt;src/components/MultiplayerGame/Toast/Toast.js</title>
<path fill="none" stroke="#000000" stroke-width="2" stroke-opacity="0.200000" d="M251.12,-926.2C251.12,-948.39 251.12,-1003 251.12,-1003 251.12,-1003 345.66,-1003 345.66,-1003"/>
<polygon fill="#000000" fill-opacity="0.200000" stroke="#000000" stroke-width="2" stroke-opacity="0.200000" points="345.66,-1005.1 351.66,-1003 345.66,-1000.9 345.66,-1005.1"/>
</g>
<!-- src/components/Room/Room.js&#45;&gt;src/components/Chessboard/Chessboard.js -->
<g id="edge39" class="edge">
<title>src/components/Room/Room.js&#45;&gt;src/components/Chessboard/Chessboard.js</title>
<path fill="none" stroke="#000000" stroke-width="2" stroke-opacity="0.200000" d="M143.12,-385.76C143.12,-382.67 143.12,-380 143.12,-380 143.12,-380 364.12,-380 364.12,-380 364.12,-380 364.12,-361.34 364.12,-361.34"/>
<polygon fill="#000000" fill-opacity="0.200000" stroke="#000000" stroke-width="2" stroke-opacity="0.200000" points="366.23,-361.34 364.12,-355.34 362.03,-361.34 366.23,-361.34"/>
</g>
<!-- src/components/Room/Room.js&#45;&gt;src/components/ComputerGame/MovesList/MovesList.js -->
<g id="edge40" class="edge">
<title>src/components/Room/Room.js&#45;&gt;src/components/ComputerGame/MovesList/MovesList.js</title>
<path fill="none" stroke="#000000" stroke-width="2" stroke-opacity="0.200000" d="M161.24,-390.56C170.77,-390.56 179.12,-390.56 179.12,-390.56 179.12,-390.56 179.12,-103.38 179.12,-103.38 179.12,-103.38 339.6,-103.38 339.6,-103.38"/>
<polygon fill="#000000" fill-opacity="0.200000" stroke="#000000" stroke-width="2" stroke-opacity="0.200000" points="339.6,-105.48 345.6,-103.38 339.6,-101.28 339.6,-105.48"/>
</g>
<!-- src/components/Room/Room.js&#45;&gt;src/components/FreeBoard/EditBoardModal/EditBoardModal.js -->
<g id="edge41" class="edge">
<title>src/components/Room/Room.js&#45;&gt;src/components/FreeBoard/EditBoardModal/EditBoardModal.js</title>
<path fill="none" stroke="#000000" stroke-width="2" stroke-opacity="0.200000" d="M134.12,-404.31C134.12,-426.77 134.12,-482.04 134.12,-482.04 134.12,-482.04 196.14,-482.04 196.14,-482.04"/>
<polygon fill="#000000" fill-opacity="0.200000" stroke="#000000" stroke-width="2" stroke-opacity="0.200000" points="196.14,-484.14 202.14,-482.04 196.14,-479.94 196.14,-484.14"/>
</g>
<!-- src/components/Room/Camera/Camera.js -->
<g id="node31" class="node">
<title>src/components/Room/Camera/Camera.js</title>
<g id="a_node31"><a xlink:href="src/components/Room/Camera/Camera.js" xlink:title="Camera.js">
<path fill="#64b5f6" stroke="black" d="M274.08,-351.88C274.08,-351.88 227.92,-351.88 227.92,-351.88 224.96,-351.88 222,-348.92 222,-345.96 222,-345.96 222,-340.04 222,-340.04 222,-337.08 224.96,-334.12 227.92,-334.12 227.92,-334.12 274.08,-334.12 274.08,-334.12 277.04,-334.12 280,-337.08 280,-340.04 280,-340.04 280,-345.96 280,-345.96 280,-348.92 277.04,-351.88 274.08,-351.88"/>
<text text-anchor="start" x="230" y="-339.32" font-family="Helvetica,sans-Serif" font-size="9.00">Camera.js</text>
</a>
</g>
</g>
<!-- src/components/Room/Room.js&#45;&gt;src/components/Room/Camera/Camera.js -->
<g id="edge42" class="edge">
<title>src/components/Room/Room.js&#45;&gt;src/components/Room/Camera/Camera.js</title>
<path fill="none" stroke="#000000" stroke-width="2" stroke-opacity="0.200000" d="M161.3,-395C173.49,-395 185.12,-395 185.12,-395 185.12,-395 185.12,-343 185.12,-343 185.12,-343 212.53,-343 212.53,-343"/>
<polygon fill="#000000" fill-opacity="0.200000" stroke="#000000" stroke-width="2" stroke-opacity="0.200000" points="212.53,-345.1 218.53,-343 212.53,-340.9 212.53,-345.1"/>
</g>
<!-- src/components/Room/RequestAccessModal.js -->
<g id="node32" class="node">
<title>src/components/Room/RequestAccessModal.js</title>
<g id="a_node32"><a xlink:href="src/components/Room/RequestAccessModal.js" xlink:title="RequestAccessModal.js">
<path fill="#64b5f6" stroke="black" d="M302.21,-403.88C302.21,-403.88 199.79,-403.88 199.79,-403.88 196.83,-403.88 193.88,-400.92 193.88,-397.96 193.88,-397.96 193.88,-392.04 193.88,-392.04 193.88,-389.08 196.83,-386.12 199.79,-386.12 199.79,-386.12 302.21,-386.12 302.21,-386.12 305.17,-386.12 308.12,-389.08 308.12,-392.04 308.12,-392.04 308.12,-397.96 308.12,-397.96 308.12,-400.92 305.17,-403.88 302.21,-403.88"/>
<text text-anchor="start" x="201.88" y="-391.32" font-family="Helvetica,sans-Serif" font-size="9.00">RequestAccessModal.js</text>
</a>
</g>
</g>
<!-- src/components/Room/Room.js&#45;&gt;src/components/Room/RequestAccessModal.js -->
<g id="edge43" class="edge">
<title>src/components/Room/Room.js&#45;&gt;src/components/Room/RequestAccessModal.js</title>
<path fill="none" stroke="#000000" stroke-width="2" stroke-opacity="0.200000" d="M161.34,-399.44C161.34,-399.44 184.71,-399.44 184.71,-399.44"/>
<polygon fill="#000000" fill-opacity="0.200000" stroke="#000000" stroke-width="2" stroke-opacity="0.200000" points="184.71,-401.54 190.71,-399.44 184.71,-397.34 184.71,-401.54"/>
</g>
<!-- src/components/Chessboard/Modals/GameOver/GameOverModal.js -->
<g id="node15" class="node">
<title>src/components/Chessboard/Modals/GameOver/GameOverModal.js</title>
<g id="a_node15"><a xlink:href="src/components/Chessboard/Modals/GameOver/GameOverModal.js" xlink:title="GameOverModal.js">
<path fill="#4db6ac" stroke="black" d="M556.83,-219.88C556.83,-219.88 473.92,-219.88 473.92,-219.88 470.96,-219.88 468,-216.92 468,-213.96 468,-213.96 468,-208.04 468,-208.04 468,-205.08 470.96,-202.12 473.92,-202.12 473.92,-202.12 556.83,-202.12 556.83,-202.12 559.79,-202.12 562.75,-205.08 562.75,-208.04 562.75,-208.04 562.75,-213.96 562.75,-213.96 562.75,-216.92 559.79,-219.88 556.83,-219.88"/>
<text text-anchor="start" x="476" y="-207.32" font-family="Helvetica,sans-Serif" font-size="9.00">GameOverModal.js</text>
</a>
</g>
</g>
<!-- src/components/Chessboard/Chessboard.js&#45;&gt;src/components/Chessboard/Modals/GameOver/GameOverModal.js -->
<g id="edge13" class="edge">
<title>src/components/Chessboard/Chessboard.js&#45;&gt;src/components/Chessboard/Modals/GameOver/GameOverModal.js</title>
<path fill="none" stroke="#000000" stroke-width="2" stroke-opacity="0.200000" d="M389.12,-333.75C389.12,-304.26 389.12,-214.38 389.12,-214.38 389.12,-214.38 458.65,-214.38 458.65,-214.38"/>
<polygon fill="#000000" fill-opacity="0.200000" stroke="#000000" stroke-width="2" stroke-opacity="0.200000" points="458.65,-216.48 464.65,-214.38 458.65,-212.28 458.65,-216.48"/>
</g>
<!-- src/components/Chessboard/Modals/Promotion/PromotionModal.js -->
<g id="node16" class="node">
<title>src/components/Chessboard/Modals/Promotion/PromotionModal.js</title>
<g id="a_node16"><a xlink:href="src/components/Chessboard/Modals/Promotion/PromotionModal.js" xlink:title="PromotionModal.js">
<path fill="#4db6ac" stroke="black" d="M555.71,-279.88C555.71,-279.88 475.04,-279.88 475.04,-279.88 472.08,-279.88 469.12,-276.92 469.12,-273.96 469.12,-273.96 469.12,-268.04 469.12,-268.04 469.12,-265.08 472.08,-262.12 475.04,-262.12 475.04,-262.12 555.71,-262.12 555.71,-262.12 558.67,-262.12 561.62,-265.08 561.62,-268.04 561.62,-268.04 561.62,-273.96 561.62,-273.96 561.62,-276.92 558.67,-279.88 555.71,-279.88"/>
<text text-anchor="start" x="477.12" y="-267.32" font-family="Helvetica,sans-Serif" font-size="9.00">PromotionModal.js</text>
</a>
</g>
</g>
<!-- src/components/Chessboard/Chessboard.js&#45;&gt;src/components/Chessboard/Modals/Promotion/PromotionModal.js -->
<g id="edge14" class="edge">
<title>src/components/Chessboard/Chessboard.js&#45;&gt;src/components/Chessboard/Modals/Promotion/PromotionModal.js</title>
<path fill="none" stroke="#000000" stroke-width="2" stroke-opacity="0.200000" d="M420.19,-338.56C445.13,-338.56 473.12,-338.56 473.12,-338.56 473.12,-338.56 473.12,-289.11 473.12,-289.11"/>
<polygon fill="#000000" fill-opacity="0.200000" stroke="#000000" stroke-width="2" stroke-opacity="0.200000" points="475.23,-289.11 473.12,-283.11 471.03,-289.11 475.23,-289.11"/>
</g>
<!-- src/components/Chessboard/Tile/Piece/Piece.js -->
<g id="node17" class="node">
<title>src/components/Chessboard/Tile/Piece/Piece.js</title>
<g id="a_node17"><a xlink:href="src/components/Chessboard/Tile/Piece/Piece.js" xlink:title="Piece.js">
<path fill="#4db6ac" stroke="black" d="M650.21,-373.88C650.21,-373.88 608.04,-373.88 608.04,-373.88 605.08,-373.88 602.12,-370.92 602.12,-367.96 602.12,-367.96 602.12,-362.04 602.12,-362.04 602.12,-359.08 605.08,-356.12 608.04,-356.12 608.04,-356.12 650.21,-356.12 650.21,-356.12 653.17,-356.12 656.12,-359.08 656.12,-362.04 656.12,-362.04 656.12,-367.96 656.12,-367.96 656.12,-370.92 653.17,-373.88 650.21,-373.88"/>
<text text-anchor="start" x="613" y="-361.32" font-family="Helvetica,sans-Serif" font-size="9.00">Piece.js</text>
</a>
</g>
</g>
<!-- src/components/Chessboard/Chessboard.js&#45;&gt;src/components/Chessboard/Tile/Piece/Piece.js -->
<g id="edge15" class="edge">
<title>src/components/Chessboard/Chessboard.js&#45;&gt;src/components/Chessboard/Tile/Piece/Piece.js</title>
<path fill="none" stroke="#000000" stroke-width="2" stroke-opacity="0.200000" d="M420.18,-343C489.46,-343 629.12,-343 629.12,-343 629.12,-343 629.12,-346.8 629.12,-346.8"/>
<polygon fill="#000000" fill-opacity="0.200000" stroke="#000000" stroke-width="2" stroke-opacity="0.200000" points="627.03,-346.8 629.12,-352.8 631.23,-346.8 627.03,-346.8"/>
</g>
<!-- src/components/Chessboard/Tile/Tile.js -->
<g id="node18" class="node">
<title>src/components/Chessboard/Tile/Tile.js</title>
<g id="a_node18"><a xlink:href="src/components/Chessboard/Tile/Tile.js" xlink:title="Tile.js">
<path fill="#4db6ac" stroke="black" d="M536.46,-373.88C536.46,-373.88 494.29,-373.88 494.29,-373.88 491.33,-373.88 488.38,-370.92 488.38,-367.96 488.38,-367.96 488.38,-362.04 488.38,-362.04 488.38,-359.08 491.33,-356.12 494.29,-356.12 494.29,-356.12 536.46,-356.12 536.46,-356.12 539.42,-356.12 542.38,-359.08 542.38,-362.04 542.38,-362.04 542.38,-367.96 542.38,-367.96 542.38,-370.92 539.42,-373.88 536.46,-373.88"/>
<text text-anchor="start" x="503.75" y="-361.32" font-family="Helvetica,sans-Serif" font-size="9.00">Tile.js</text>
</a>
</g>
</g>
<!-- src/components/Chessboard/Chessboard.js&#45;&gt;src/components/Chessboard/Tile/Tile.js -->
<g id="edge16" class="edge">
<title>src/components/Chessboard/Chessboard.js&#45;&gt;src/components/Chessboard/Tile/Tile.js</title>
<path fill="none" stroke="#000000" stroke-width="2" stroke-opacity="0.200000" d="M420.17,-347.44C459.78,-347.44 516.12,-347.44 516.12,-347.44 516.12,-347.44 516.12,-348.27 516.12,-348.27"/>
<polygon fill="#000000" fill-opacity="0.200000" stroke="#000000" stroke-width="2" stroke-opacity="0.200000" points="514.03,-346.81 516.12,-352.81 518.23,-346.81 514.03,-346.81"/>
</g>
<!-- src/components/Chessboard/Tile/Tile.js&#45;&gt;src/components/Chessboard/Tile/Piece/Piece.js -->
<g id="edge17" class="edge">
<title>src/components/Chessboard/Tile/Tile.js&#45;&gt;src/components/Chessboard/Tile/Piece/Piece.js</title>
<path fill="none" stroke="#000000" stroke-width="2" stroke-opacity="0.200000" d="M542.62,-365C542.62,-365 592.71,-365 592.71,-365"/>
<polygon fill="#000000" fill-opacity="0.200000" stroke="#000000" stroke-width="2" stroke-opacity="0.200000" points="592.71,-367.1 598.71,-365 592.71,-362.9 592.71,-367.1"/>
</g>
<!-- src/components/FreeBoard/SettingsGear/SettingsModal/SliderSetting/SliderSetting.js -->
<g id="node21" class="node">
<title>src/components/FreeBoard/SettingsGear/SettingsModal/SliderSetting/SliderSetting.js</title>
<g id="a_node21"><a xlink:href="src/components/FreeBoard/SettingsGear/SettingsModal/SliderSetting/SliderSetting.js" xlink:title="SliderSetting.js">
<path fill="#7986cb" stroke="black" d="M548.21,-569.88C548.21,-569.88 482.54,-569.88 482.54,-569.88 479.58,-569.88 476.62,-566.92 476.62,-563.96 476.62,-563.96 476.62,-558.04 476.62,-558.04 476.62,-555.08 479.58,-552.12 482.54,-552.12 482.54,-552.12 548.21,-552.12 548.21,-552.12 551.17,-552.12 554.12,-555.08 554.12,-558.04 554.12,-558.04 554.12,-563.96 554.12,-563.96 554.12,-566.92 551.17,-569.88 548.21,-569.88"/>
<text text-anchor="start" x="484.62" y="-557.33" font-family="Helvetica,sans-Serif" font-size="9.00">SliderSetting.js</text>
</a>
</g>
</g>
<!-- src/components/ComputerGame/SetLevelModal/SetLevelModal.js&#45;&gt;src/components/FreeBoard/SettingsGear/SettingsModal/SliderSetting/SliderSetting.js -->
<g id="edge21" class="edge">
<title>src/components/ComputerGame/SetLevelModal/SetLevelModal.js&#45;&gt;src/components/FreeBoard/SettingsGear/SettingsModal/SliderSetting/SliderSetting.js</title>
<path fill="none" stroke="#000000" stroke-width="2" stroke-opacity="0.200000" d="M425.78,-49C438.05,-49 448.12,-49 448.12,-49 448.12,-49 448.12,-556.71 448.12,-556.71 448.12,-556.71 467.26,-556.71 467.26,-556.71"/>
<polygon fill="#000000" fill-opacity="0.200000" stroke="#000000" stroke-width="2" stroke-opacity="0.200000" points="467.26,-558.81 473.26,-556.71 467.26,-554.61 467.26,-558.81"/>
</g>
<!-- src/components/FreeBoard/EditBoardModal/EditBoardModal.js&#45;&gt;src/components/Chessboard/Chessboard.js -->
<g id="edge24" class="edge">
<title>src/components/FreeBoard/EditBoardModal/EditBoardModal.js&#45;&gt;src/components/Chessboard/Chessboard.js</title>
<path fill="none" stroke="#000000" stroke-width="2" stroke-opacity="0.200000" d="M296.86,-485C334.67,-485 382.12,-485 382.12,-485 382.12,-485 382.12,-361.32 382.12,-361.32"/>
<polygon fill="#000000" fill-opacity="0.200000" stroke="#000000" stroke-width="2" stroke-opacity="0.200000" points="384.23,-361.32 382.12,-355.32 380.03,-361.32 384.23,-361.32"/>
</g>
<!-- src/components/FreeBoard/SettingsGear/SettingsModal/SettingsModal.js -->
<g id="node27" class="node">
<title>src/components/FreeBoard/SettingsGear/SettingsModal/SettingsModal.js</title>
<g id="a_node27"><a xlink:href="src/components/FreeBoard/SettingsGear/SettingsModal/SettingsModal.js" xlink:title="SettingsModal.js">
<path fill="#7986cb" stroke="black" d="M417.96,-565.88C417.96,-565.88 346.29,-565.88 346.29,-565.88 343.33,-565.88 340.38,-562.92 340.38,-559.96 340.38,-559.96 340.38,-554.04 340.38,-554.04 340.38,-551.08 343.33,-548.12 346.29,-548.12 346.29,-548.12 417.96,-548.12 417.96,-548.12 420.92,-548.12 423.88,-551.08 423.88,-554.04 423.88,-554.04 423.88,-559.96 423.88,-559.96 423.88,-562.92 420.92,-565.88 417.96,-565.88"/>
<text text-anchor="start" x="348.38" y="-553.33" font-family="Helvetica,sans-Serif" font-size="9.00">SettingsModal.js</text>
</a>
</g>
</g>
<!-- src/components/FreeBoard/SettingsGear/SettingsGear.js&#45;&gt;src/components/FreeBoard/SettingsGear/SettingsModal/SettingsModal.js -->
<g id="edge32" class="edge">
<title>src/components/FreeBoard/SettingsGear/SettingsGear.js&#45;&gt;src/components/FreeBoard/SettingsGear/SettingsModal/SettingsModal.js</title>
<path fill="none" stroke="#000000" stroke-width="2" stroke-opacity="0.200000" d="M290.34,-553C290.34,-553 331.07,-553 331.07,-553"/>
<polygon fill="#000000" fill-opacity="0.200000" stroke="#000000" stroke-width="2" stroke-opacity="0.200000" points="331.07,-555.1 337.07,-553 331.07,-550.9 331.07,-555.1"/>
</g>
<!-- src/components/FreeBoard/SettingsGear/SettingsModal/SettingsModal.js&#45;&gt;src/components/FreeBoard/SettingsGear/SettingsModal/SliderSetting/SliderSetting.js -->
<g id="edge33" class="edge">
<title>src/components/FreeBoard/SettingsGear/SettingsModal/SettingsModal.js&#45;&gt;src/components/FreeBoard/SettingsGear/SettingsModal/SliderSetting/SliderSetting.js</title>
<path fill="none" stroke="#000000" stroke-width="2" stroke-opacity="0.200000" d="M424.29,-561.29C424.29,-561.29 467.21,-561.29 467.21,-561.29"/>
<polygon fill="#000000" fill-opacity="0.200000" stroke="#000000" stroke-width="2" stroke-opacity="0.200000" points="467.21,-563.39 473.21,-561.29 467.21,-559.19 467.21,-563.39"/>
</g>
</g>
</svg>
