<?xml version="1.0" encoding="UTF-8" standalone="no"?>
<!DOCTYPE svg PUBLIC "-//W3C//DTD SVG 1.1//EN"
 "http://www.w3.org/Graphics/SVG/1.1/DTD/svg11.dtd">
<!-- Generated by graphviz version 8.0.5 (20230430.1635)
 -->
<!-- Title: dependency&#45;cruiser output Pages: 1 -->
<svg width="413pt" height="422pt"
 viewBox="0.00 0.00 413.00 422.00" xmlns="http://www.w3.org/2000/svg" xmlns:xlink="http://www.w3.org/1999/xlink">
<g id="graph0" class="graph" transform="scale(1 1) rotate(0) translate(4 418)">
<title>dependency&#45;cruiser output</title>
<polygon fill="white" stroke="none" points="-4,4 -4,-418 409,-418 409,4 -4,4"/>
<g id="clust1" class="cluster">
<title>cluster_src</title>
<path fill="#ffffff" stroke="black" stroke-width="2" d="M20,-8C20,-8 385,-8 385,-8 391,-8 397,-14 397,-20 397,-20 397,-394 397,-394 397,-400 391,-406 385,-406 385,-406 20,-406 20,-406 14,-406 8,-400 8,-394 8,-394 8,-20 8,-20 8,-14 14,-8 20,-8"/>
<text text-anchor="middle" x="202.5" y="-393.45" font-family="Helvetica,sans-Serif" font-weight="bold" font-size="9.00">src</text>
</g>
<g id="clust2" class="cluster">
<title>cluster_src/components</title>
<path fill="#ffffff" stroke="black" stroke-width="2" d="M28,-16C28,-16 377,-16 377,-16 383,-16 389,-22 389,-28 389,-28 389,-368 389,-368 389,-374 383,-380 377,-380 377,-380 28,-380 28,-380 22,-380 16,-374 16,-368 16,-368 16,-28 16,-28 16,-22 22,-16 28,-16"/>
<text text-anchor="middle" x="202.5" y="-367.45" font-family="Helvetica,sans-Serif" font-weight="bold" font-size="9.00">components</text>
</g>
<g id="clust3" class="cluster">
<title>cluster_src/components/Chessboard</title>
<path fill="#ffffff" stroke="black" stroke-width="2" d="M278.88,-225C278.88,-225 346.12,-225 346.12,-225 352.12,-225 358.12,-231 358.12,-237 358.12,-237 358.12,-265 358.12,-265 358.12,-271 352.12,-277 346.12,-277 346.12,-277 278.88,-277 278.88,-277 272.88,-277 266.88,-271 266.88,-265 266.88,-265 266.88,-237 266.88,-237 266.88,-231 272.88,-225 278.88,-225"/>
<text text-anchor="middle" x="312.5" y="-264.45" font-family="Helvetica,sans-Serif" font-weight="bold" font-size="9.00">Chessboard</text>
</g>
<g id="clust4" class="cluster">
<title>cluster_src/components/ComputerGame</title>
<path fill="#ffffff" stroke="black" stroke-width="2" d="M144.75,-174C144.75,-174 219,-174 219,-174 225,-174 231,-180 231,-186 231,-186 231,-248 231,-248 231,-254 225,-260 219,-260 219,-260 144.75,-260 144.75,-260 138.75,-260 132.75,-254 132.75,-248 132.75,-248 132.75,-186 132.75,-186 132.75,-180 138.75,-174 144.75,-174"/>
<text text-anchor="middle" x="181.88" y="-247.45" font-family="Helvetica,sans-Serif" font-weight="bold" font-size="9.00">ComputerGame</text>
</g>
<g id="clust5" class="cluster">
<title>cluster_src/components/ComputerGame/MovesList</title>
<path fill="#ffffff" stroke="black" stroke-width="2" d="M152.75,-182C152.75,-182 211,-182 211,-182 217,-182 223,-188 223,-194 223,-194 223,-222 223,-222 223,-228 217,-234 211,-234 211,-234 152.75,-234 152.75,-234 146.75,-234 140.75,-228 140.75,-222 140.75,-222 140.75,-194 140.75,-194 140.75,-188 146.75,-182 152.75,-182"/>
<text text-anchor="middle" x="181.88" y="-221.45" font-family="Helvetica,sans-Serif" font-weight="bold" font-size="9.00">MovesList</text>
</g>
<g id="clust6" class="cluster">
<title>cluster_src/components/FreeBoard</title>
<path fill="#ffffff" stroke="black" stroke-width="2" d="M132.38,-268C132.38,-268 231.38,-268 231.38,-268 237.38,-268 243.38,-274 243.38,-280 243.38,-280 243.38,-342 243.38,-342 243.38,-348 237.38,-354 231.38,-354 231.38,-354 132.38,-354 132.38,-354 126.38,-354 120.38,-348 120.38,-342 120.38,-342 120.38,-280 120.38,-280 120.38,-274 126.38,-268 132.38,-268"/>
<text text-anchor="middle" x="181.88" y="-341.45" font-family="Helvetica,sans-Serif" font-weight="bold" font-size="9.00">FreeBoard</text>
</g>
<g id="clust7" class="cluster">
<title>cluster_src/components/FreeBoard/EditBoardModal</title>
<path fill="#ffffff" stroke="black" stroke-width="2" d="M140.38,-276C140.38,-276 223.38,-276 223.38,-276 229.38,-276 235.38,-282 235.38,-288 235.38,-288 235.38,-316 235.38,-316 235.38,-322 229.38,-328 223.38,-328 223.38,-328 140.38,-328 140.38,-328 134.38,-328 128.38,-322 128.38,-316 128.38,-316 128.38,-288 128.38,-288 128.38,-282 134.38,-276 140.38,-276"/>
<text text-anchor="middle" x="181.88" y="-315.45" font-family="Helvetica,sans-Serif" font-weight="bold" font-size="9.00">EditBoardModal</text>
</g>
<g id="clust8" class="cluster">
<title>cluster_src/components/Room</title>
<path fill="#ffffff" stroke="black" stroke-width="2" d="M36,-24C36,-24 369,-24 369,-24 375,-24 381,-30 381,-36 381,-36 381,-154 381,-154 381,-160 375,-166 369,-166 369,-166 36,-166 36,-166 30,-166 24,-160 24,-154 24,-154 24,-36 24,-36 24,-30 30,-24 36,-24"/>
<text text-anchor="middle" x="202.5" y="-153.45" font-family="Helvetica,sans-Serif" font-weight="bold" font-size="9.00">Room</text>
</g>
<g id="clust9" class="cluster">
<title>cluster_src/components/Room/Camera</title>
<path fill="#ffffff" stroke="black" stroke-width="2" d="M156.88,-32C156.88,-32 340.88,-32 340.88,-32 346.88,-32 352.88,-38 352.88,-44 352.88,-44 352.88,-72 352.88,-72 352.88,-78 346.88,-84 340.88,-84 340.88,-84 156.88,-84 156.88,-84 150.88,-84 144.88,-78 144.88,-72 144.88,-72 144.88,-44 144.88,-44 144.88,-38 150.88,-32 156.88,-32"/>
<text text-anchor="middle" x="248.88" y="-71.45" font-family="Helvetica,sans-Serif" font-weight="bold" font-size="9.00">Camera</text>
</g>
<!-- src/components/Chessboard/Chessboard.js -->
<g id="node1" class="node">
<title>src/components/Chessboard/Chessboard.js</title>
<g id="a_node1"><a xlink:href="src/components/Chessboard/Chessboard.js" xlink:title="Chessboard.js">
<path fill="#4db6ac" stroke="black" d="M344.21,-250.88C344.21,-250.88 280.79,-250.88 280.79,-250.88 277.83,-250.88 274.88,-247.92 274.88,-244.96 274.88,-244.96 274.88,-239.04 274.88,-239.04 274.88,-236.08 277.83,-233.12 280.79,-233.12 280.79,-233.12 344.21,-233.12 344.21,-233.12 347.17,-233.12 350.12,-236.08 350.12,-239.04 350.12,-239.04 350.12,-244.96 350.12,-244.96 350.12,-247.92 347.17,-250.88 344.21,-250.88"/>
<text text-anchor="start" x="282.88" y="-238.32" font-family="Helvetica,sans-Serif" font-size="9.00">Chessboard.js</text>
</a>
</g>
</g>
<!-- src/components/ComputerGame/MovesList/MovesList.js -->
<g id="node2" class="node">
<title>src/components/ComputerGame/MovesList/MovesList.js</title>
<g id="a_node2"><a xlink:href="src/components/ComputerGame/MovesList/MovesList.js" xlink:title="MovesList.js">
<path fill="#a1887f" stroke="black" d="M209.08,-207.88C209.08,-207.88 154.67,-207.88 154.67,-207.88 151.71,-207.88 148.75,-204.92 148.75,-201.96 148.75,-201.96 148.75,-196.04 148.75,-196.04 148.75,-193.08 151.71,-190.12 154.67,-190.12 154.67,-190.12 209.08,-190.12 209.08,-190.12 212.04,-190.12 215,-193.08 215,-196.04 215,-196.04 215,-201.96 215,-201.96 215,-204.92 212.04,-207.88 209.08,-207.88"/>
<text text-anchor="start" x="156.75" y="-195.32" font-family="Helvetica,sans-Serif" font-size="9.00">MovesList.js</text>
</a>
</g>
</g>
<!-- src/components/FreeBoard/EditBoardModal/EditBoardModal.js -->
<g id="node3" class="node">
<title>src/components/FreeBoard/EditBoardModal/EditBoardModal.js</title>
<g id="a_node3"><a xlink:href="src/components/FreeBoard/EditBoardModal/EditBoardModal.js" xlink:title="EditBoardModal.js">
<path fill="#7986cb" stroke="black" d="M221.46,-301.88C221.46,-301.88 142.29,-301.88 142.29,-301.88 139.33,-301.88 136.38,-298.92 136.38,-295.96 136.38,-295.96 136.38,-290.04 136.38,-290.04 136.38,-287.08 139.33,-284.12 142.29,-284.12 142.29,-284.12 221.46,-284.12 221.46,-284.12 224.42,-284.12 227.38,-287.08 227.38,-290.04 227.38,-290.04 227.38,-295.96 227.38,-295.96 227.38,-298.92 224.42,-301.88 221.46,-301.88"/>
<text text-anchor="start" x="144.38" y="-289.32" font-family="Helvetica,sans-Serif" font-size="9.00">EditBoardModal.js</text>
</a>
</g>
</g>
<!-- src/components/FreeBoard/EditBoardModal/EditBoardModal.js&#45;&gt;src/components/Chessboard/Chessboard.js -->
<g id="edge1" class="edge">
<title>src/components/FreeBoard/EditBoardModal/EditBoardModal.js&#45;&gt;src/components/Chessboard/Chessboard.js</title>
<path fill="none" stroke="#000000" stroke-width="2" stroke-opacity="0.200000" d="M222,-283.74C222,-269.78 222,-244.96 222,-244.96 222,-244.96 265.38,-244.96 265.38,-244.96"/>
<polygon fill="#000000" fill-opacity="0.200000" stroke="#000000" stroke-width="2" stroke-opacity="0.200000" points="265.38,-247.06 271.38,-244.96 265.38,-242.86 265.38,-247.06"/>
</g>
<!-- src/components/Room/Camera/Camera.css -->
<g id="node4" class="node">
<title>src/components/Room/Camera/Camera.css</title>
<g id="a_node4"><a xlink:href="src/components/Room/Camera/Camera.css" xlink:title="Camera.css">
<path fill="#64b5f6" stroke="black" d="M338.96,-57.88C338.96,-57.88 286.04,-57.88 286.04,-57.88 283.08,-57.88 280.12,-54.92 280.12,-51.96 280.12,-51.96 280.12,-46.04 280.12,-46.04 280.12,-43.08 283.08,-40.12 286.04,-40.12 286.04,-40.12 338.96,-40.12 338.96,-40.12 341.92,-40.12 344.88,-43.08 344.88,-46.04 344.88,-46.04 344.88,-51.96 344.88,-51.96 344.88,-54.92 341.92,-57.88 338.96,-57.88"/>
<text text-anchor="start" x="288.12" y="-45.33" font-family="Helvetica,sans-Serif" font-size="9.00">Camera.css</text>
</a>
</g>
</g>
<!-- src/components/Room/Camera/Camera.js -->
<g id="node5" class="node">
<title>src/components/Room/Camera/Camera.js</title>
<g id="a_node5"><a xlink:href="src/components/Room/Camera/Camera.js" xlink:title="Camera.js">
<path fill="#64b5f6" stroke="black" d="M204.96,-57.88C204.96,-57.88 158.79,-57.88 158.79,-57.88 155.83,-57.88 152.88,-54.92 152.88,-51.96 152.88,-51.96 152.88,-46.04 152.88,-46.04 152.88,-43.08 155.83,-40.12 158.79,-40.12 158.79,-40.12 204.96,-40.12 204.96,-40.12 207.92,-40.12 210.88,-43.08 210.88,-46.04 210.88,-46.04 210.88,-51.96 210.88,-51.96 210.88,-54.92 207.92,-57.88 204.96,-57.88"/>
<text text-anchor="start" x="160.88" y="-45.33" font-family="Helvetica,sans-Serif" font-size="9.00">Camera.js</text>
</a>
</g>
</g>
<!-- src/components/Room/Camera/Camera.js&#45;&gt;src/components/Room/Camera/Camera.css -->
<g id="edge2" class="edge">
<title>src/components/Room/Camera/Camera.js&#45;&gt;src/components/Room/Camera/Camera.css</title>
<path fill="none" stroke="#000000" stroke-width="2" stroke-opacity="0.200000" d="M211.19,-49C211.19,-49 271.07,-49 271.07,-49"/>
<polygon fill="#000000" fill-opacity="0.200000" stroke="#000000" stroke-width="2" stroke-opacity="0.200000" points="271.07,-51.1 277.07,-49 271.07,-46.9 271.07,-51.1"/>
</g>
<!-- src/components/Room/RequestAccessModal.css -->
<g id="node6" class="node">
<title>src/components/Room/RequestAccessModal.css</title>
<g id="a_node6"><a xlink:href="src/components/Room/RequestAccessModal.css" xlink:title="RequestAccessModal.css">
<path fill="#64b5f6" stroke="black" d="M367.08,-109.88C367.08,-109.88 257.92,-109.88 257.92,-109.88 254.96,-109.88 252,-106.92 252,-103.96 252,-103.96 252,-98.04 252,-98.04 252,-95.08 254.96,-92.12 257.92,-92.12 257.92,-92.12 367.08,-92.12 367.08,-92.12 370.04,-92.12 373,-95.08 373,-98.04 373,-98.04 373,-103.96 373,-103.96 373,-106.92 370.04,-109.88 367.08,-109.88"/>
<text text-anchor="start" x="260" y="-97.33" font-family="Helvetica,sans-Serif" font-size="9.00">RequestAccessModal.css</text>
</a>
</g>
</g>
<!-- src/components/Room/RequestAccessModal.js -->
<g id="node7" class="node">
<title>src/components/Room/RequestAccessModal.js</title>
<g id="a_node7"><a xlink:href="src/components/Room/RequestAccessModal.js" xlink:title="RequestAccessModal.js">
<path fill="#64b5f6" stroke="black" d="M233.08,-109.88C233.08,-109.88 130.67,-109.88 130.67,-109.88 127.71,-109.88 124.75,-106.92 124.75,-103.96 124.75,-103.96 124.75,-98.04 124.75,-98.04 124.75,-95.08 127.71,-92.12 130.67,-92.12 130.67,-92.12 233.08,-92.12 233.08,-92.12 236.04,-92.12 239,-95.08 239,-98.04 239,-98.04 239,-103.96 239,-103.96 239,-106.92 236.04,-109.88 233.08,-109.88"/>
<text text-anchor="start" x="132.75" y="-97.33" font-family="Helvetica,sans-Serif" font-size="9.00">RequestAccessModal.js</text>
</a>
</g>
</g>
<!-- src/components/Room/RequestAccessModal.js&#45;&gt;src/components/Room/RequestAccessModal.css -->
<g id="edge3" class="edge">
<title>src/components/Room/RequestAccessModal.js&#45;&gt;src/components/Room/RequestAccessModal.css</title>
<path fill="none" stroke="#000000" stroke-width="2" stroke-opacity="0.200000" d="M239.17,-101C239.17,-101 242.57,-101 242.57,-101"/>
<polygon fill="#000000" fill-opacity="0.200000" stroke="#000000" stroke-width="2" stroke-opacity="0.200000" points="242.57,-103.1 248.57,-101 242.57,-98.9 242.57,-103.1"/>
</g>
<!-- src/components/Room/Room.css -->
<g id="node8" class="node">
<title>src/components/Room/Room.css</title>
<g id="a_node8"><a xlink:href="src/components/Room/Room.css" xlink:title="Room.css">
<path fill="#64b5f6" stroke="black" d="M204.21,-139.88C204.21,-139.88 159.54,-139.88 159.54,-139.88 156.58,-139.88 153.62,-136.92 153.62,-133.96 153.62,-133.96 153.62,-128.04 153.62,-128.04 153.62,-125.08 156.58,-122.12 159.54,-122.12 159.54,-122.12 204.21,-122.12 204.21,-122.12 207.17,-122.12 210.12,-125.08 210.12,-128.04 210.12,-128.04 210.12,-133.96 210.12,-133.96 210.12,-136.92 207.17,-139.88 204.21,-139.88"/>
<text text-anchor="start" x="161.62" y="-127.33" font-family="Helvetica,sans-Serif" font-size="9.00">Room.css</text>
</a>
</g>
</g>
<!-- src/components/Room/Room.js -->
<g id="node9" class="node">
<title>src/components/Room/Room.js</title>
<g id="a_node9"><a xlink:href="src/components/Room/Room.js" xlink:title="Room.js">
<path fill="#64b5f6" stroke="black" d="M92.96,-139.88C92.96,-139.88 50.79,-139.88 50.79,-139.88 47.83,-139.88 44.88,-136.92 44.88,-133.96 44.88,-133.96 44.88,-128.04 44.88,-128.04 44.88,-125.08 47.83,-122.12 50.79,-122.12 50.79,-122.12 92.96,-122.12 92.96,-122.12 95.92,-122.12 98.88,-125.08 98.88,-128.04 98.88,-128.04 98.88,-133.96 98.88,-133.96 98.88,-136.92 95.92,-139.88 92.96,-139.88"/>
<text text-anchor="start" x="55" y="-127.33" font-family="Helvetica,sans-Serif" font-size="9.00">Room.js</text>
</a>
</g>
</g>
<!-- src/components/Room/Room.js&#45;&gt;src/components/Chessboard/Chessboard.js -->
<g id="edge4" class="edge">
<title>src/components/Room/Room.js&#45;&gt;src/components/Chessboard/Chessboard.js</title>
<path fill="none" stroke="#000000" stroke-width="2" stroke-opacity="0.200000" d="M63,-140.21C63,-166.34 63,-239.04 63,-239.04 63,-239.04 265.61,-239.04 265.61,-239.04"/>
<polygon fill="#000000" fill-opacity="0.200000" stroke="#000000" stroke-width="2" stroke-opacity="0.200000" points="265.61,-241.14 271.61,-239.04 265.61,-236.94 265.61,-241.14"/>
</g>
<!-- src/components/Room/Room.js&#45;&gt;src/components/ComputerGame/MovesList/MovesList.js -->
<g id="edge5" class="edge">
<title>src/components/Room/Room.js&#45;&gt;src/components/ComputerGame/MovesList/MovesList.js</title>
<path fill="none" stroke="#000000" stroke-width="2" stroke-opacity="0.200000" d="M81,-140.17C81,-158.73 81,-199 81,-199 81,-199 139.29,-199 139.29,-199"/>
<polygon fill="#000000" fill-opacity="0.200000" stroke="#000000" stroke-width="2" stroke-opacity="0.200000" points="139.29,-201.1 145.29,-199 139.29,-196.9 139.29,-201.1"/>
</g>
<!-- src/components/Room/Room.js&#45;&gt;src/components/FreeBoard/EditBoardModal/EditBoardModal.js -->
<g id="edge6" class="edge">
<title>src/components/Room/Room.js&#45;&gt;src/components/FreeBoard/EditBoardModal/EditBoardModal.js</title>
<path fill="none" stroke="#000000" stroke-width="2" stroke-opacity="0.200000" d="M99.17,-136.32C119.23,-136.32 143,-136.32 143,-136.32 143,-136.32 143,-274.67 143,-274.67"/>
<polygon fill="#000000" fill-opacity="0.200000" stroke="#000000" stroke-width="2" stroke-opacity="0.200000" points="140.9,-274.67 143,-280.67 145.1,-274.67 140.9,-274.67"/>
</g>
<!-- src/components/Room/Room.js&#45;&gt;src/components/Room/Camera/Camera.js -->
<g id="edge7" class="edge">
<title>src/components/Room/Room.js&#45;&gt;src/components/Room/Camera/Camera.js</title>
<path fill="none" stroke="#000000" stroke-width="2" stroke-opacity="0.200000" d="M99.29,-125.67C109.65,-125.67 119,-125.67 119,-125.67 119,-125.67 119,-49 119,-49 119,-49 143.65,-49 143.65,-49"/>
<polygon fill="#000000" fill-opacity="0.200000" stroke="#000000" stroke-width="2" stroke-opacity="0.200000" points="143.65,-51.1 149.65,-49 143.65,-46.9 143.65,-51.1"/>
</g>
<!-- src/components/Room/Room.js&#45;&gt;src/components/Room/RequestAccessModal.js -->
<g id="edge8" class="edge">
<title>src/components/Room/Room.js&#45;&gt;src/components/Room/RequestAccessModal.js</title>
<path fill="none" stroke="#000000" stroke-width="2" stroke-opacity="0.200000" d="M99.36,-129.22C114.8,-129.22 131,-129.22 131,-129.22 131,-129.22 131,-119.24 131,-119.24"/>
<polygon fill="#000000" fill-opacity="0.200000" stroke="#000000" stroke-width="2" stroke-opacity="0.200000" points="133.1,-119.24 131,-113.24 128.9,-119.24 133.1,-119.24"/>
</g>
<!-- src/components/Room/Room.js&#45;&gt;src/components/Room/Room.css -->
<g id="edge9" class="edge">
<title>src/components/Room/Room.js&#45;&gt;src/components/Room/Room.css</title>
<path fill="none" stroke="#000000" stroke-width="2" stroke-opacity="0.200000" d="M99.35,-132.78C99.35,-132.78 144.22,-132.78 144.22,-132.78"/>
<polygon fill="#000000" fill-opacity="0.200000" stroke="#000000" stroke-width="2" stroke-opacity="0.200000" points="144.22,-134.88 150.22,-132.78 144.22,-130.68 144.22,-134.88"/>
</g>
<!-- src/components/Room/WaitingRoom.js -->
<g id="node10" class="node">
<title>src/components/Room/WaitingRoom.js</title>
<g id="a_node10"><a xlink:href="src/components/Room/WaitingRoom.js" xlink:title="WaitingRoom.js">
<path fill="#64b5f6" stroke="black" d="M105.83,-79.88C105.83,-79.88 37.92,-79.88 37.92,-79.88 34.96,-79.88 32,-76.92 32,-73.96 32,-73.96 32,-68.04 32,-68.04 32,-65.08 34.96,-62.12 37.92,-62.12 37.92,-62.12 105.83,-62.12 105.83,-62.12 108.79,-62.12 111.75,-65.08 111.75,-68.04 111.75,-68.04 111.75,-73.96 111.75,-73.96 111.75,-76.92 108.79,-79.88 105.83,-79.88"/>
<text text-anchor="start" x="40" y="-67.33" font-family="Helvetica,sans-Serif" font-size="9.00">WaitingRoom.js</text>
</a>
</g>
</g>
</g>
</svg>
