<?xml version="1.0" encoding="UTF-8" standalone="no"?>
<!DOCTYPE svg PUBLIC "-//W3C//DTD SVG 1.1//EN"
 "http://www.w3.org/Graphics/SVG/1.1/DTD/svg11.dtd">
<!-- Generated by graphviz version 8.0.5 (20230430.1635)
 -->
<!-- Title: dependency&#45;cruiser output Pages: 1 -->
<svg width="434pt" height="452pt"
 viewBox="0.00 0.00 433.50 452.00" xmlns="http://www.w3.org/2000/svg" xmlns:xlink="http://www.w3.org/1999/xlink">
<g id="graph0" class="graph" transform="scale(1 1) rotate(0) translate(4 448)">
<title>dependency&#45;cruiser output</title>
<polygon fill="white" stroke="none" points="-4,4 -4,-448 429.5,-448 429.5,4 -4,4"/>
<g id="clust1" class="cluster">
<title>cluster_src</title>
<path fill="#ffffff" stroke="black" stroke-width="2" d="M20,-8C20,-8 405.5,-8 405.5,-8 411.5,-8 417.5,-14 417.5,-20 417.5,-20 417.5,-424 417.5,-424 417.5,-430 411.5,-436 405.5,-436 405.5,-436 20,-436 20,-436 14,-436 8,-430 8,-424 8,-424 8,-20 8,-20 8,-14 14,-8 20,-8"/>
<text text-anchor="middle" x="212.75" y="-423.45" font-family="Helvetica,sans-Serif" font-weight="bold" font-size="9.00">src</text>
</g>
<g id="clust2" class="cluster">
<title>cluster_src/components</title>
<path fill="#ffffff" stroke="black" stroke-width="2" d="M28,-16C28,-16 397.5,-16 397.5,-16 403.5,-16 409.5,-22 409.5,-28 409.5,-28 409.5,-398 409.5,-398 409.5,-404 403.5,-410 397.5,-410 397.5,-410 28,-410 28,-410 22,-410 16,-404 16,-398 16,-398 16,-28 16,-28 16,-22 22,-16 28,-16"/>
<text text-anchor="middle" x="212.75" y="-397.45" font-family="Helvetica,sans-Serif" font-weight="bold" font-size="9.00">components</text>
</g>
<g id="clust3" class="cluster">
<title>cluster_src/components/Chessboard</title>
<path fill="#ffffff" stroke="black" stroke-width="2" d="M150.12,-204C150.12,-204 217.38,-204 217.38,-204 223.38,-204 229.38,-210 229.38,-216 229.38,-216 229.38,-244 229.38,-244 229.38,-250 223.38,-256 217.38,-256 217.38,-256 150.12,-256 150.12,-256 144.12,-256 138.12,-250 138.12,-244 138.12,-244 138.12,-216 138.12,-216 138.12,-210 144.12,-204 150.12,-204"/>
<text text-anchor="middle" x="183.75" y="-243.45" font-family="Helvetica,sans-Serif" font-weight="bold" font-size="9.00">Chessboard</text>
</g>
<g id="clust4" class="cluster">
<title>cluster_src/components/ComputerGame</title>
<path fill="#ffffff" stroke="black" stroke-width="2" d="M36,-24C36,-24 372.88,-24 372.88,-24 378.88,-24 384.88,-30 384.88,-36 384.88,-36 384.88,-184 384.88,-184 384.88,-190 378.88,-196 372.88,-196 372.88,-196 36,-196 36,-196 30,-196 24,-190 24,-184 24,-184 24,-36 24,-36 24,-30 30,-24 36,-24"/>
<text text-anchor="middle" x="204.44" y="-183.45" font-family="Helvetica,sans-Serif" font-weight="bold" font-size="9.00">ComputerGame</text>
</g>
<g id="clust5" class="cluster">
<title>cluster_src/components/ComputerGame/MovesList</title>
<path fill="#ffffff" stroke="black" stroke-width="2" d="M154.62,-58C154.62,-58 364.88,-58 364.88,-58 370.88,-58 376.88,-64 376.88,-70 376.88,-70 376.88,-98 376.88,-98 376.88,-104 370.88,-110 364.88,-110 364.88,-110 154.62,-110 154.62,-110 148.62,-110 142.62,-104 142.62,-98 142.62,-98 142.62,-70 142.62,-70 142.62,-64 148.62,-58 154.62,-58"/>
<text text-anchor="middle" x="259.75" y="-97.45" font-family="Helvetica,sans-Serif" font-weight="bold" font-size="9.00">MovesList</text>
</g>
<g id="clust6" class="cluster">
<title>cluster_src/components/ComputerGame/SetLevelModal</title>
<path fill="#ffffff" stroke="black" stroke-width="2" d="M144.5,-118C144.5,-118 223,-118 223,-118 229,-118 235,-124 235,-130 235,-130 235,-158 235,-158 235,-164 229,-170 223,-170 223,-170 144.5,-170 144.5,-170 138.5,-170 132.5,-164 132.5,-158 132.5,-158 132.5,-130 132.5,-130 132.5,-124 138.5,-118 144.5,-118"/>
<text text-anchor="middle" x="183.75" y="-157.45" font-family="Helvetica,sans-Serif" font-weight="bold" font-size="9.00">SetLevelModal</text>
</g>
<g id="clust7" class="cluster">
<title>cluster_src/components/FreeBoard</title>
<path fill="#ffffff" stroke="black" stroke-width="2" d="M255,-204C255,-204 389.5,-204 389.5,-204 395.5,-204 401.5,-210 401.5,-216 401.5,-216 401.5,-372 401.5,-372 401.5,-378 395.5,-384 389.5,-384 389.5,-384 255,-384 255,-384 249,-384 243,-378 243,-372 243,-372 243,-216 243,-216 243,-210 249,-204 255,-204"/>
<text text-anchor="middle" x="322.25" y="-371.45" font-family="Helvetica,sans-Serif" font-weight="bold" font-size="9.00">FreeBoard</text>
</g>
<g id="clust8" class="cluster">
<title>cluster_src/components/FreeBoard/SettingsGear</title>
<path fill="#ffffff" stroke="black" stroke-width="2" d="M263,-212C263,-212 381.5,-212 381.5,-212 387.5,-212 393.5,-218 393.5,-224 393.5,-224 393.5,-346 393.5,-346 393.5,-352 387.5,-358 381.5,-358 381.5,-358 263,-358 263,-358 257,-358 251,-352 251,-346 251,-346 251,-224 251,-224 251,-218 257,-212 263,-212"/>
<text text-anchor="middle" x="322.25" y="-345.45" font-family="Helvetica,sans-Serif" font-weight="bold" font-size="9.00">SettingsGear</text>
</g>
<g id="clust9" class="cluster">
<title>cluster_src/components/FreeBoard/SettingsGear/SettingsModal</title>
<path fill="#ffffff" stroke="black" stroke-width="2" d="M271,-220C271,-220 373.5,-220 373.5,-220 379.5,-220 385.5,-226 385.5,-232 385.5,-232 385.5,-320 385.5,-320 385.5,-326 379.5,-332 373.5,-332 373.5,-332 271,-332 271,-332 265,-332 259,-326 259,-320 259,-320 259,-232 259,-232 259,-226 265,-220 271,-220"/>
<text text-anchor="middle" x="322.25" y="-319.45" font-family="Helvetica,sans-Serif" font-weight="bold" font-size="9.00">SettingsModal</text>
</g>
<g id="clust10" class="cluster">
<title>cluster_src/components/FreeBoard/SettingsGear/SettingsModal/SliderSetting</title>
<path fill="#ffffff" stroke="black" stroke-width="2" d="M287.5,-254C287.5,-254 357,-254 357,-254 363,-254 369,-260 369,-266 369,-266 369,-294 369,-294 369,-300 363,-306 357,-306 357,-306 287.5,-306 287.5,-306 281.5,-306 275.5,-300 275.5,-294 275.5,-294 275.5,-266 275.5,-266 275.5,-260 281.5,-254 287.5,-254"/>
<text text-anchor="middle" x="322.25" y="-293.45" font-family="Helvetica,sans-Serif" font-weight="bold" font-size="9.00">SliderSetting</text>
</g>
<!-- src/components/Chessboard/Chessboard.js -->
<g id="node1" class="node">
<title>src/components/Chessboard/Chessboard.js</title>
<g id="a_node1"><a xlink:href="src/components/Chessboard/Chessboard.js" xlink:title="Chessboard.js">
<path fill="#4db6ac" stroke="black" d="M215.46,-229.88C215.46,-229.88 152.04,-229.88 152.04,-229.88 149.08,-229.88 146.12,-226.92 146.12,-223.96 146.12,-223.96 146.12,-218.04 146.12,-218.04 146.12,-215.08 149.08,-212.12 152.04,-212.12 152.04,-212.12 215.46,-212.12 215.46,-212.12 218.42,-212.12 221.38,-215.08 221.38,-218.04 221.38,-218.04 221.38,-223.96 221.38,-223.96 221.38,-226.92 218.42,-229.88 215.46,-229.88"/>
<text text-anchor="start" x="154.12" y="-217.32" font-family="Helvetica,sans-Serif" font-size="9.00">Chessboard.js</text>
</a>
</g>
</g>
<!-- src/components/ComputerGame/ComputerGame.css -->
<g id="node2" class="node">
<title>src/components/ComputerGame/ComputerGame.css</title>
<g id="a_node2"><a xlink:href="src/components/ComputerGame/ComputerGame.css" xlink:title="ComputerGame.css">
<path fill="#a1887f" stroke="black" d="M226.33,-49.88C226.33,-49.88 141.17,-49.88 141.17,-49.88 138.21,-49.88 135.25,-46.92 135.25,-43.96 135.25,-43.96 135.25,-38.04 135.25,-38.04 135.25,-35.08 138.21,-32.12 141.17,-32.12 141.17,-32.12 226.33,-32.12 226.33,-32.12 229.29,-32.12 232.25,-35.08 232.25,-38.04 232.25,-38.04 232.25,-43.96 232.25,-43.96 232.25,-46.92 229.29,-49.88 226.33,-49.88"/>
<text text-anchor="start" x="143.25" y="-37.33" font-family="Helvetica,sans-Serif" font-size="9.00">ComputerGame.css</text>
</a>
</g>
</g>
<!-- src/components/ComputerGame/ComputerGame.js -->
<g id="node3" class="node">
<title>src/components/ComputerGame/ComputerGame.js</title>
<g id="a_node3"><a xlink:href="src/components/ComputerGame/ComputerGame.js" xlink:title="ComputerGame.js">
<path fill="#a1887f" stroke="black" d="M116.33,-113.88C116.33,-113.88 37.92,-113.88 37.92,-113.88 34.96,-113.88 32,-110.92 32,-107.96 32,-107.96 32,-102.04 32,-102.04 32,-99.08 34.96,-96.12 37.92,-96.12 37.92,-96.12 116.33,-96.12 116.33,-96.12 119.29,-96.12 122.25,-99.08 122.25,-102.04 122.25,-102.04 122.25,-107.96 122.25,-107.96 122.25,-110.92 119.29,-113.88 116.33,-113.88"/>
<text text-anchor="start" x="40" y="-101.33" font-family="Helvetica,sans-Serif" font-size="9.00">ComputerGame.js</text>
</a>
</g>
</g>
<!-- src/components/ComputerGame/ComputerGame.js&#45;&gt;src/components/Chessboard/Chessboard.js -->
<g id="edge1" class="edge">
<title>src/components/ComputerGame/ComputerGame.js&#45;&gt;src/components/Chessboard/Chessboard.js</title>
<path fill="none" stroke="#000000" stroke-width="2" stroke-opacity="0.200000" d="M77.5,-114.1C77.5,-141.45 77.5,-221 77.5,-221 77.5,-221 136.69,-221 136.69,-221"/>
<polygon fill="#000000" fill-opacity="0.200000" stroke="#000000" stroke-width="2" stroke-opacity="0.200000" points="136.69,-223.1 142.69,-221 136.69,-218.9 136.69,-223.1"/>
</g>
<!-- src/components/ComputerGame/ComputerGame.js&#45;&gt;src/components/ComputerGame/ComputerGame.css -->
<g id="edge2" class="edge">
<title>src/components/ComputerGame/ComputerGame.js&#45;&gt;src/components/ComputerGame/ComputerGame.css</title>
<path fill="none" stroke="#000000" stroke-width="2" stroke-opacity="0.200000" d="M122.44,-100.56C134.63,-100.56 144.5,-100.56 144.5,-100.56 144.5,-100.56 144.5,-59.31 144.5,-59.31"/>
<polygon fill="#000000" fill-opacity="0.200000" stroke="#000000" stroke-width="2" stroke-opacity="0.200000" points="146.6,-59.31 144.5,-53.31 142.4,-59.31 146.6,-59.31"/>
</g>
<!-- src/components/ComputerGame/MovesList/MovesList.js -->
<g id="node4" class="node">
<title>src/components/ComputerGame/MovesList/MovesList.js</title>
<g id="a_node4"><a xlink:href="src/components/ComputerGame/MovesList/MovesList.js" xlink:title="MovesList.js">
<path fill="#a1887f" stroke="black" d="M210.96,-83.88C210.96,-83.88 156.54,-83.88 156.54,-83.88 153.58,-83.88 150.62,-80.92 150.62,-77.96 150.62,-77.96 150.62,-72.04 150.62,-72.04 150.62,-69.08 153.58,-66.12 156.54,-66.12 156.54,-66.12 210.96,-66.12 210.96,-66.12 213.92,-66.12 216.88,-69.08 216.88,-72.04 216.88,-72.04 216.88,-77.96 216.88,-77.96 216.88,-80.92 213.92,-83.88 210.96,-83.88"/>
<text text-anchor="start" x="158.62" y="-71.33" font-family="Helvetica,sans-Serif" font-size="9.00">MovesList.js</text>
</a>
</g>
</g>
<!-- src/components/ComputerGame/ComputerGame.js&#45;&gt;src/components/ComputerGame/MovesList/MovesList.js -->
<g id="edge3" class="edge">
<title>src/components/ComputerGame/ComputerGame.js&#45;&gt;src/components/ComputerGame/MovesList/MovesList.js</title>
<path fill="none" stroke="#000000" stroke-width="2" stroke-opacity="0.200000" d="M122.66,-105C151.93,-105 184.5,-105 184.5,-105 184.5,-105 184.5,-93.16 184.5,-93.16"/>
<polygon fill="#000000" fill-opacity="0.200000" stroke="#000000" stroke-width="2" stroke-opacity="0.200000" points="186.6,-93.16 184.5,-87.16 182.4,-93.16 186.6,-93.16"/>
</g>
<!-- src/components/ComputerGame/SetLevelModal/SetLevelModal.js -->
<g id="node5" class="node">
<title>src/components/ComputerGame/SetLevelModal/SetLevelModal.js</title>
<g id="a_node5"><a xlink:href="src/components/ComputerGame/SetLevelModal/SetLevelModal.js" xlink:title="SetLevelModal.js">
<path fill="#a1887f" stroke="black" d="M221.08,-143.88C221.08,-143.88 146.42,-143.88 146.42,-143.88 143.46,-143.88 140.5,-140.92 140.5,-137.96 140.5,-137.96 140.5,-132.04 140.5,-132.04 140.5,-129.08 143.46,-126.12 146.42,-126.12 146.42,-126.12 221.08,-126.12 221.08,-126.12 224.04,-126.12 227,-129.08 227,-132.04 227,-132.04 227,-137.96 227,-137.96 227,-140.92 224.04,-143.88 221.08,-143.88"/>
<text text-anchor="start" x="148.5" y="-131.32" font-family="Helvetica,sans-Serif" font-size="9.00">SetLevelModal.js</text>
</a>
</g>
</g>
<!-- src/components/ComputerGame/ComputerGame.js&#45;&gt;src/components/ComputerGame/SetLevelModal/SetLevelModal.js -->
<g id="edge4" class="edge">
<title>src/components/ComputerGame/ComputerGame.js&#45;&gt;src/components/ComputerGame/SetLevelModal/SetLevelModal.js</title>
<path fill="none" stroke="#000000" stroke-width="2" stroke-opacity="0.200000" d="M122.49,-109.44C136.11,-109.44 147.5,-109.44 147.5,-109.44 147.5,-109.44 147.5,-116.77 147.5,-116.77"/>
<polygon fill="#000000" fill-opacity="0.200000" stroke="#000000" stroke-width="2" stroke-opacity="0.200000" points="145.4,-116.77 147.5,-122.77 149.6,-116.77 145.4,-116.77"/>
</g>
<!-- src/components/ComputerGame/MovesList/MovesListStyle.css -->
<g id="node6" class="node">
<title>src/components/ComputerGame/MovesList/MovesListStyle.css</title>
<g id="a_node6"><a xlink:href="src/components/ComputerGame/MovesList/MovesListStyle.css" xlink:title="MovesListStyle.css">
<path fill="#a1887f" stroke="black" d="M362.96,-83.88C362.96,-83.88 281.54,-83.88 281.54,-83.88 278.58,-83.88 275.62,-80.92 275.62,-77.96 275.62,-77.96 275.62,-72.04 275.62,-72.04 275.62,-69.08 278.58,-66.12 281.54,-66.12 281.54,-66.12 362.96,-66.12 362.96,-66.12 365.92,-66.12 368.88,-69.08 368.88,-72.04 368.88,-72.04 368.88,-77.96 368.88,-77.96 368.88,-80.92 365.92,-83.88 362.96,-83.88"/>
<text text-anchor="start" x="283.62" y="-71.33" font-family="Helvetica,sans-Serif" font-size="9.00">MovesListStyle.css</text>
</a>
</g>
</g>
<!-- src/components/ComputerGame/MovesList/MovesList.js&#45;&gt;src/components/ComputerGame/MovesList/MovesListStyle.css -->
<g id="edge5" class="edge">
<title>src/components/ComputerGame/MovesList/MovesList.js&#45;&gt;src/components/ComputerGame/MovesList/MovesListStyle.css</title>
<path fill="none" stroke="#000000" stroke-width="2" stroke-opacity="0.200000" d="M217.28,-75C217.28,-75 266.16,-75 266.16,-75"/>
<polygon fill="#000000" fill-opacity="0.200000" stroke="#000000" stroke-width="2" stroke-opacity="0.200000" points="266.16,-77.1 272.16,-75 266.16,-72.9 266.16,-77.1"/>
</g>
<!-- src/components/FreeBoard/SettingsGear/SettingsModal/SettingsModalStyle.css -->
<g id="node7" class="node">
<title>src/components/FreeBoard/SettingsGear/SettingsModal/SettingsModalStyle.css</title>
<g id="a_node7"><a xlink:href="src/components/FreeBoard/SettingsGear/SettingsModal/SettingsModalStyle.css" xlink:title="SettingsModalStyle.css">
<path fill="#7986cb" stroke="black" d="M371.58,-245.88C371.58,-245.88 272.92,-245.88 272.92,-245.88 269.96,-245.88 267,-242.92 267,-239.96 267,-239.96 267,-234.04 267,-234.04 267,-231.08 269.96,-228.12 272.92,-228.12 272.92,-228.12 371.58,-228.12 371.58,-228.12 374.54,-228.12 377.5,-231.08 377.5,-234.04 377.5,-234.04 377.5,-239.96 377.5,-239.96 377.5,-242.92 374.54,-245.88 371.58,-245.88"/>
<text text-anchor="start" x="275" y="-233.32" font-family="Helvetica,sans-Serif" font-size="9.00">SettingsModalStyle.css</text>
</a>
</g>
</g>
<!-- src/components/ComputerGame/SetLevelModal/SetLevelModal.js&#45;&gt;src/components/FreeBoard/SettingsGear/SettingsModal/SettingsModalStyle.css -->
<g id="edge6" class="edge">
<title>src/components/ComputerGame/SetLevelModal/SetLevelModal.js&#45;&gt;src/components/FreeBoard/SettingsGear/SettingsModal/SettingsModalStyle.css</title>
<path fill="none" stroke="#000000" stroke-width="2" stroke-opacity="0.200000" d="M227.37,-132.04C249.39,-132.04 271.5,-132.04 271.5,-132.04 271.5,-132.04 271.5,-218.69 271.5,-218.69"/>
<polygon fill="#000000" fill-opacity="0.200000" stroke="#000000" stroke-width="2" stroke-opacity="0.200000" points="269.4,-218.69 271.5,-224.69 273.6,-218.69 269.4,-218.69"/>
</g>
<!-- src/components/FreeBoard/SettingsGear/SettingsModal/SliderSetting/SliderSetting.js -->
<g id="node8" class="node">
<title>src/components/FreeBoard/SettingsGear/SettingsModal/SliderSetting/SliderSetting.js</title>
<g id="a_node8"><a xlink:href="src/components/FreeBoard/SettingsGear/SettingsModal/SliderSetting/SliderSetting.js" xlink:title="SliderSetting.js">
<path fill="#7986cb" stroke="black" d="M355.08,-279.88C355.08,-279.88 289.42,-279.88 289.42,-279.88 286.46,-279.88 283.5,-276.92 283.5,-273.96 283.5,-273.96 283.5,-268.04 283.5,-268.04 283.5,-265.08 286.46,-262.12 289.42,-262.12 289.42,-262.12 355.08,-262.12 355.08,-262.12 358.04,-262.12 361,-265.08 361,-268.04 361,-268.04 361,-273.96 361,-273.96 361,-276.92 358.04,-279.88 355.08,-279.88"/>
<text text-anchor="start" x="291.5" y="-267.32" font-family="Helvetica,sans-Serif" font-size="9.00">SliderSetting.js</text>
</a>
</g>
</g>
<!-- src/components/ComputerGame/SetLevelModal/SetLevelModal.js&#45;&gt;src/components/FreeBoard/SettingsGear/SettingsModal/SliderSetting/SliderSetting.js -->
<g id="edge7" class="edge">
<title>src/components/ComputerGame/SetLevelModal/SetLevelModal.js&#45;&gt;src/components/FreeBoard/SettingsGear/SettingsModal/SliderSetting/SliderSetting.js</title>
<path fill="none" stroke="#000000" stroke-width="2" stroke-opacity="0.200000" d="M227.15,-137.96C239.9,-137.96 250.5,-137.96 250.5,-137.96 250.5,-137.96 250.5,-271 250.5,-271 250.5,-271 274.02,-271 274.02,-271"/>
<polygon fill="#000000" fill-opacity="0.200000" stroke="#000000" stroke-width="2" stroke-opacity="0.200000" points="274.02,-273.1 280.02,-271 274.02,-268.9 274.02,-273.1"/>
</g>
</g>
</svg>
