<?xml version="1.0" encoding="UTF-8" standalone="no"?>
<!DOCTYPE svg PUBLIC "-//W3C//DTD SVG 1.1//EN"
 "http://www.w3.org/Graphics/SVG/1.1/DTD/svg11.dtd">
<!-- Generated by graphviz version 8.0.5 (20230430.1635)
 -->
<!-- Title: dependency&#45;cruiser output Pages: 1 -->
<svg width="459pt" height="324pt"
 viewBox="0.00 0.00 458.75 324.00" xmlns="http://www.w3.org/2000/svg" xmlns:xlink="http://www.w3.org/1999/xlink">
<g id="graph0" class="graph" transform="scale(1 1) rotate(0) translate(4 320)">
<title>dependency&#45;cruiser output</title>
<polygon fill="white" stroke="none" points="-4,4 -4,-320 454.75,-320 454.75,4 -4,4"/>
<g id="clust1" class="cluster">
<title>cluster_src</title>
<path fill="#ffffff" stroke="black" stroke-width="2" d="M20,-8C20,-8 430.75,-8 430.75,-8 436.75,-8 442.75,-14 442.75,-20 442.75,-20 442.75,-296 442.75,-296 442.75,-302 436.75,-308 430.75,-308 430.75,-308 20,-308 20,-308 14,-308 8,-302 8,-296 8,-296 8,-20 8,-20 8,-14 14,-8 20,-8"/>
<text text-anchor="middle" x="225.38" y="-295.45" font-family="Helvetica,sans-Serif" font-weight="bold" font-size="9.00">src</text>
</g>
<g id="clust2" class="cluster">
<title>cluster_src/components</title>
<path fill="#ffffff" stroke="black" stroke-width="2" d="M90,-50C90,-50 422.75,-50 422.75,-50 428.75,-50 434.75,-56 434.75,-62 434.75,-62 434.75,-270 434.75,-270 434.75,-276 428.75,-282 422.75,-282 422.75,-282 90,-282 90,-282 84,-282 78,-276 78,-270 78,-270 78,-62 78,-62 78,-56 84,-50 90,-50"/>
<text text-anchor="middle" x="256.38" y="-269.45" font-family="Helvetica,sans-Serif" font-weight="bold" font-size="9.00">components</text>
</g>
<!-- src/App.js -->
<g id="node1" class="node">
<title>src/App.js</title>
<g id="a_node1"><a xlink:href="src/App.js" xlink:title="App.js">
<path fill="#ffffcc" stroke="black" d="M64.08,-135.88C64.08,-135.88 21.92,-135.88 21.92,-135.88 18.96,-135.88 16,-132.92 16,-129.96 16,-129.96 16,-124.04 16,-124.04 16,-121.08 18.96,-118.12 21.92,-118.12 21.92,-118.12 64.08,-118.12 64.08,-118.12 67.04,-118.12 70,-121.08 70,-124.04 70,-124.04 70,-129.96 70,-129.96 70,-132.92 67.04,-135.88 64.08,-135.88"/>
<text text-anchor="start" x="30.25" y="-123.33" font-family="Helvetica,sans-Serif" font-size="9.00">App.js</text>
</a>
</g>
</g>
<!-- src/components/ComputerGame/ -->
<g id="node2" class="node">
<title>src/components/ComputerGame/</title>
<g id="a_node2"><a xlink:href="src/components/ComputerGame/" xlink:title="ComputerGame">
<polygon fill="#a1887f" stroke="black" points="266,-156.88 186.72,-156.88 184.75,-154.9 184.75,-139.12 264.03,-139.12 266,-141.1 266,-156.88"/>
<polyline fill="none" stroke="black" points="264.03,-154.9 184.75,-154.9"/>
<polyline fill="none" stroke="black" points="264.03,-154.9 264.03,-139.12"/>
<polyline fill="none" stroke="black" points="264.03,-154.9 266,-156.88"/>
<text text-anchor="start" x="192.75" y="-144.32" font-family="Helvetica,sans-Serif" font-size="9.00">ComputerGame</text>
</a>
</g>
</g>
<!-- src/App.js&#45;&gt;src/components/ComputerGame/ -->
<g id="edge1" class="edge">
<title>src/App.js&#45;&gt;src/components/ComputerGame/</title>
<path fill="none" stroke="#000000" stroke-width="2" stroke-opacity="0.200000" d="M70.46,-122.56C75.26,-122.56 78.75,-122.56 78.75,-122.56 78.75,-122.56 78.75,-145.12 78.75,-145.12 78.75,-145.12 175.53,-145.12 175.53,-145.12"/>
<polygon fill="#000000" fill-opacity="0.200000" stroke="#000000" stroke-width="2" stroke-opacity="0.200000" points="175.53,-147.23 181.53,-145.12 175.53,-143.03 175.53,-147.23"/>
</g>
<!-- src/components/CreateGame/ -->
<g id="node3" class="node">
<title>src/components/CreateGame/</title>
<g id="a_node3"><a xlink:href="src/components/CreateGame/" xlink:title="CreateGame">
<polygon fill="#ff8a65" stroke="black" points="347.5,-75.88 280.97,-75.88 279,-73.9 279,-58.12 345.53,-58.12 347.5,-60.1 347.5,-75.88"/>
<polyline fill="none" stroke="black" points="345.53,-73.9 279,-73.9"/>
<polyline fill="none" stroke="black" points="345.53,-73.9 345.53,-58.12"/>
<polyline fill="none" stroke="black" points="345.53,-73.9 347.5,-75.88"/>
<text text-anchor="start" x="287" y="-63.33" font-family="Helvetica,sans-Serif" font-size="9.00">CreateGame</text>
</a>
</g>
</g>
<!-- src/App.js&#45;&gt;src/components/CreateGame/ -->
<g id="edge2" class="edge">
<title>src/App.js&#45;&gt;src/components/CreateGame/</title>
<path fill="none" stroke="#000000" stroke-width="2" stroke-opacity="0.200000" d="M37.75,-117.89C37.75,-104.74 37.75,-82 37.75,-82 37.75,-82 313.75,-82 313.75,-82 313.75,-82 313.75,-81.42 313.75,-81.42"/>
<polygon fill="#000000" fill-opacity="0.200000" stroke="#000000" stroke-width="2" stroke-opacity="0.200000" points="315.85,-85.24 313.75,-79.24 311.65,-85.24 315.85,-85.24"/>
</g>
<!-- src/components/CreateRoom/ -->
<g id="node4" class="node">
<title>src/components/CreateRoom/</title>
<g id="a_node4"><a xlink:href="src/components/CreateRoom/" xlink:title="CreateRoom">
<polygon fill="#ffd54f" stroke="black" points="347.5,-105.88 280.97,-105.88 279,-103.9 279,-88.12 345.53,-88.12 347.5,-90.1 347.5,-105.88"/>
<polyline fill="none" stroke="black" points="345.53,-103.9 279,-103.9"/>
<polyline fill="none" stroke="black" points="345.53,-103.9 345.53,-88.12"/>
<polyline fill="none" stroke="black" points="345.53,-103.9 347.5,-105.88"/>
<text text-anchor="start" x="287" y="-93.33" font-family="Helvetica,sans-Serif" font-size="9.00">CreateRoom</text>
</a>
</g>
</g>
<!-- src/App.js&#45;&gt;src/components/CreateRoom/ -->
<g id="edge3" class="edge">
<title>src/App.js&#45;&gt;src/components/CreateRoom/</title>
<path fill="none" stroke="#000000" stroke-width="2" stroke-opacity="0.200000" d="M48.75,-117.91C48.75,-113.7 48.75,-109.62 48.75,-109.62 48.75,-109.62 298.75,-109.62 298.75,-109.62 298.75,-109.62 298.75,-109.28 298.75,-109.28"/>
<polygon fill="#000000" fill-opacity="0.200000" stroke="#000000" stroke-width="2" stroke-opacity="0.200000" points="300.85,-115.18 298.75,-109.18 296.65,-115.18 300.85,-115.18"/>
</g>
<!-- src/components/FreeBoard/ -->
<g id="node5" class="node">
<title>src/components/FreeBoard/</title>
<g id="a_node5"><a xlink:href="src/components/FreeBoard/" xlink:title="FreeBoard">
<polygon fill="#7986cb" stroke="black" points="343,-163.88 285.47,-163.88 283.5,-161.9 283.5,-146.12 341.03,-146.12 343,-148.1 343,-163.88"/>
<polyline fill="none" stroke="black" points="341.03,-161.9 283.5,-161.9"/>
<polyline fill="none" stroke="black" points="341.03,-161.9 341.03,-146.12"/>
<polyline fill="none" stroke="black" points="341.03,-161.9 343,-163.88"/>
<text text-anchor="start" x="291.5" y="-151.32" font-family="Helvetica,sans-Serif" font-size="9.00">FreeBoard</text>
</a>
</g>
</g>
<!-- src/App.js&#45;&gt;src/components/FreeBoard/ -->
<g id="edge4" class="edge">
<title>src/App.js&#45;&gt;src/components/FreeBoard/</title>
<path fill="none" stroke="#000000" stroke-width="2" stroke-opacity="0.200000" d="M59.75,-117.69C59.75,-115.29 59.75,-113.38 59.75,-113.38 59.75,-113.38 313.75,-113.38 313.75,-113.38 313.75,-113.38 313.75,-136.76 313.75,-136.76"/>
<polygon fill="#000000" fill-opacity="0.200000" stroke="#000000" stroke-width="2" stroke-opacity="0.200000" points="311.65,-136.76 313.75,-142.76 315.85,-136.76 311.65,-136.76"/>
</g>
<!-- src/components/Home/ -->
<g id="node6" class="node">
<title>src/components/Home/</title>
<g id="a_node6"><a xlink:href="src/components/Home/" xlink:title="Home">
<polygon fill="#e57373" stroke="black" points="155.88,-135.88 103.85,-135.88 101.88,-133.9 101.88,-118.12 153.9,-118.12 155.88,-120.1 155.88,-135.88"/>
<polyline fill="none" stroke="black" points="153.9,-133.9 101.88,-133.9"/>
<polyline fill="none" stroke="black" points="153.9,-133.9 153.9,-118.12"/>
<polyline fill="none" stroke="black" points="153.9,-133.9 155.88,-135.88"/>
<text text-anchor="start" x="116.5" y="-123.33" font-family="Helvetica,sans-Serif" font-size="9.00">Home</text>
</a>
</g>
</g>
<!-- src/App.js&#45;&gt;src/components/Home/ -->
<g id="edge5" class="edge">
<title>src/App.js&#45;&gt;src/components/Home/</title>
<path fill="none" stroke="#000000" stroke-width="2" stroke-opacity="0.200000" d="M70.17,-131.44C70.17,-131.44 92.59,-131.44 92.59,-131.44"/>
<polygon fill="#000000" fill-opacity="0.200000" stroke="#000000" stroke-width="2" stroke-opacity="0.200000" points="92.59,-133.54 98.59,-131.44 92.59,-129.34 92.59,-133.54"/>
</g>
<!-- src/components/MultiplayerGame/ -->
<g id="node7" class="node">
<title>src/components/MultiplayerGame/</title>
<g id="a_node7"><a xlink:href="src/components/MultiplayerGame/" xlink:title="MultiplayerGame">
<polygon fill="#9575cd" stroke="black" points="171.75,-105.88 87.97,-105.88 86,-103.9 86,-88.12 169.78,-88.12 171.75,-90.1 171.75,-105.88"/>
<polyline fill="none" stroke="black" points="169.78,-103.9 86,-103.9"/>
<polyline fill="none" stroke="black" points="169.78,-103.9 169.78,-88.12"/>
<polyline fill="none" stroke="black" points="169.78,-103.9 171.75,-105.88"/>
<text text-anchor="start" x="94" y="-93.33" font-family="Helvetica,sans-Serif" font-size="9.00">MultiplayerGame</text>
</a>
</g>
</g>
<!-- src/App.js&#45;&gt;src/components/MultiplayerGame/ -->
<g id="edge6" class="edge">
<title>src/App.js&#45;&gt;src/components/MultiplayerGame/</title>
<path fill="none" stroke="#000000" stroke-width="2" stroke-opacity="0.200000" d="M70.39,-127C82.8,-127 94.75,-127 94.75,-127 94.75,-127 94.75,-115.16 94.75,-115.16"/>
<polygon fill="#000000" fill-opacity="0.200000" stroke="#000000" stroke-width="2" stroke-opacity="0.200000" points="96.85,-115.16 94.75,-109.16 92.65,-115.16 96.85,-115.16"/>
</g>
<!-- src/components/Navbar/ -->
<g id="node8" class="node">
<title>src/components/Navbar/</title>
<g id="a_node8"><a xlink:href="src/components/Navbar/" xlink:title="Navbar">
<polygon fill="#f06292" stroke="black" points="155.88,-75.88 103.85,-75.88 101.88,-73.9 101.88,-58.12 153.9,-58.12 155.88,-60.1 155.88,-75.88"/>
<polyline fill="none" stroke="black" points="153.9,-73.9 101.88,-73.9"/>
<polyline fill="none" stroke="black" points="153.9,-73.9 153.9,-58.12"/>
<polyline fill="none" stroke="black" points="153.9,-73.9 155.88,-75.88"/>
<text text-anchor="start" x="113.88" y="-63.33" font-family="Helvetica,sans-Serif" font-size="9.00">Navbar</text>
</a>
</g>
</g>
<!-- src/App.js&#45;&gt;src/components/Navbar/ -->
<g id="edge7" class="edge">
<title>src/App.js&#45;&gt;src/components/Navbar/</title>
<path fill="none" stroke="#000000" stroke-width="2" stroke-opacity="0.200000" d="M27.75,-117.62C27.75,-100.75 27.75,-67 27.75,-67 27.75,-67 92.51,-67 92.51,-67"/>
<polygon fill="#000000" fill-opacity="0.200000" stroke="#000000" stroke-width="2" stroke-opacity="0.200000" points="92.51,-69.1 98.51,-67 92.51,-64.9 92.51,-69.1"/>
</g>
<!-- src/components/Profile/ -->
<g id="node9" class="node">
<title>src/components/Profile/</title>
<g id="a_node9"><a xlink:href="src/components/Profile/" xlink:title="Profile">
<polygon fill="#ba68c8" stroke="black" points="155.88,-255.88 103.85,-255.88 101.88,-253.9 101.88,-238.12 153.9,-238.12 155.88,-240.1 155.88,-255.88"/>
<polyline fill="none" stroke="black" points="153.9,-253.9 101.88,-253.9"/>
<polyline fill="none" stroke="black" points="153.9,-253.9 153.9,-238.12"/>
<polyline fill="none" stroke="black" points="153.9,-253.9 155.88,-255.88"/>
<text text-anchor="start" x="115.75" y="-243.32" font-family="Helvetica,sans-Serif" font-size="9.00">Profile</text>
</a>
</g>
</g>
<!-- src/App.js&#45;&gt;src/components/Profile/ -->
<g id="edge8" class="edge">
<title>src/App.js&#45;&gt;src/components/Profile/</title>
<path fill="none" stroke="#000000" stroke-width="2" stroke-opacity="0.200000" d="M27.75,-136.02C27.75,-163.93 27.75,-247 27.75,-247 27.75,-247 92.51,-247 92.51,-247"/>
<polygon fill="#000000" fill-opacity="0.200000" stroke="#000000" stroke-width="2" stroke-opacity="0.200000" points="92.51,-249.1 98.51,-247 92.51,-244.9 92.51,-249.1"/>
</g>
<!-- src/components/Room/ -->
<g id="node10" class="node">
<title>src/components/Room/</title>
<g id="a_node10"><a xlink:href="src/components/Room/" xlink:title="Room">
<polygon fill="#64b5f6" stroke="black" points="155.88,-225.88 103.85,-225.88 101.88,-223.9 101.88,-208.12 153.9,-208.12 155.88,-210.1 155.88,-225.88"/>
<polyline fill="none" stroke="black" points="153.9,-223.9 101.88,-223.9"/>
<polyline fill="none" stroke="black" points="153.9,-223.9 153.9,-208.12"/>
<polyline fill="none" stroke="black" points="153.9,-223.9 155.88,-225.88"/>
<text text-anchor="start" x="116.5" y="-213.32" font-family="Helvetica,sans-Serif" font-size="9.00">Room</text>
</a>
</g>
</g>
<!-- src/App.js&#45;&gt;src/components/Room/ -->
<g id="edge9" class="edge">
<title>src/App.js&#45;&gt;src/components/Room/</title>
<path fill="none" stroke="#000000" stroke-width="2" stroke-opacity="0.200000" d="M37.75,-136.29C37.75,-159.29 37.75,-217 37.75,-217 37.75,-217 92.53,-217 92.53,-217"/>
<polygon fill="#000000" fill-opacity="0.200000" stroke="#000000" stroke-width="2" stroke-opacity="0.200000" points="92.53,-219.1 98.53,-217 92.53,-214.9 92.53,-219.1"/>
</g>
<!-- src/components/Signin/ -->
<g id="node11" class="node">
<title>src/components/Signin/</title>
<g id="a_node11"><a xlink:href="src/components/Signin/" xlink:title="Signin">
<polygon fill="#81c784" stroke="black" points="155.88,-195.88 103.85,-195.88 101.88,-193.9 101.88,-178.12 153.9,-178.12 155.88,-180.1 155.88,-195.88"/>
<polyline fill="none" stroke="black" points="153.9,-193.9 101.88,-193.9"/>
<polyline fill="none" stroke="black" points="153.9,-193.9 153.9,-178.12"/>
<polyline fill="none" stroke="black" points="153.9,-193.9 155.88,-195.88"/>
<text text-anchor="start" x="115.75" y="-183.32" font-family="Helvetica,sans-Serif" font-size="9.00">Signin</text>
</a>
</g>
</g>
<!-- src/App.js&#45;&gt;src/components/Signin/ -->
<g id="edge10" class="edge">
<title>src/App.js&#45;&gt;src/components/Signin/</title>
<path fill="none" stroke="#000000" stroke-width="2" stroke-opacity="0.200000" d="M48.75,-136.38C48.75,-153.25 48.75,-187 48.75,-187 48.75,-187 92.75,-187 92.75,-187"/>
<polygon fill="#000000" fill-opacity="0.200000" stroke="#000000" stroke-width="2" stroke-opacity="0.200000" points="92.75,-189.1 98.75,-187 92.75,-184.9 92.75,-189.1"/>
</g>
<!-- src/components/Signup/ -->
<g id="node12" class="node">
<title>src/components/Signup/</title>
<g id="a_node12"><a xlink:href="src/components/Signup/" xlink:title="Signup">
<polygon fill="#dce775" stroke="black" points="155.88,-165.88 103.85,-165.88 101.88,-163.9 101.88,-148.12 153.9,-148.12 155.88,-150.1 155.88,-165.88"/>
<polyline fill="none" stroke="black" points="153.9,-163.9 101.88,-163.9"/>
<polyline fill="none" stroke="black" points="153.9,-163.9 153.9,-148.12"/>
<polyline fill="none" stroke="black" points="153.9,-163.9 155.88,-165.88"/>
<text text-anchor="start" x="114.25" y="-153.32" font-family="Helvetica,sans-Serif" font-size="9.00">Signup</text>
</a>
</g>
</g>
<!-- src/App.js&#45;&gt;src/components/Signup/ -->
<g id="edge11" class="edge">
<title>src/App.js&#45;&gt;src/components/Signup/</title>
<path fill="none" stroke="#000000" stroke-width="2" stroke-opacity="0.200000" d="M59.75,-136.16C59.75,-144.99 59.75,-157 59.75,-157 59.75,-157 92.55,-157 92.55,-157"/>
<polygon fill="#000000" fill-opacity="0.200000" stroke="#000000" stroke-width="2" stroke-opacity="0.200000" points="92.55,-159.1 98.55,-157 92.55,-154.9 92.55,-159.1"/>
</g>
<!-- src/components/ComputerGame/&#45;&gt;src/components/FreeBoard/ -->
<g id="edge13" class="edge">
<title>src/components/ComputerGame/&#45;&gt;src/components/FreeBoard/</title>
<path fill="none" stroke="#000000" stroke-width="2" stroke-opacity="0.200000" d="M266.48,-153.29C266.48,-153.29 274.18,-153.29 274.18,-153.29"/>
<polygon fill="#000000" fill-opacity="0.200000" stroke="#000000" stroke-width="2" stroke-opacity="0.200000" points="274.18,-155.39 280.18,-153.29 274.18,-151.19 274.18,-155.39"/>
</g>
<!-- src/components/Chessboard/ -->
<g id="node13" class="node">
<title>src/components/Chessboard/</title>
<g id="a_node13"><a xlink:href="src/components/Chessboard/" xlink:title="Chessboard">
<polygon fill="#4db6ac" stroke="black" points="426.75,-134.88 362.47,-134.88 360.5,-132.9 360.5,-117.12 424.78,-117.12 426.75,-119.1 426.75,-134.88"/>
<polyline fill="none" stroke="black" points="424.78,-132.9 360.5,-132.9"/>
<polyline fill="none" stroke="black" points="424.78,-132.9 424.78,-117.12"/>
<polyline fill="none" stroke="black" points="424.78,-132.9 426.75,-134.88"/>
<text text-anchor="start" x="368.5" y="-122.33" font-family="Helvetica,sans-Serif" font-size="9.00">Chessboard</text>
</a>
</g>
</g>
<!-- src/components/ComputerGame/&#45;&gt;src/components/Chessboard/ -->
<g id="edge12" class="edge">
<title>src/components/ComputerGame/&#45;&gt;src/components/Chessboard/</title>
<path fill="none" stroke="#000000" stroke-width="2" stroke-opacity="0.200000" d="M266.31,-142.62C312.94,-142.62 382.75,-142.62 382.75,-142.62 382.75,-142.62 382.75,-141.87 382.75,-141.87"/>
<polygon fill="#000000" fill-opacity="0.200000" stroke="#000000" stroke-width="2" stroke-opacity="0.200000" points="384.85,-144.09 382.75,-138.09 380.65,-144.09 384.85,-144.09"/>
</g>
<!-- src/components/CreateGame/&#45;&gt;src/components/Chessboard/ -->
<g id="edge14" class="edge">
<title>src/components/CreateGame/&#45;&gt;src/components/Chessboard/</title>
<path fill="none" stroke="#000000" stroke-width="2" stroke-opacity="0.200000" d="M347.84,-67C373.75,-67 404.75,-67 404.75,-67 404.75,-67 404.75,-107.78 404.75,-107.78"/>
<polygon fill="#000000" fill-opacity="0.200000" stroke="#000000" stroke-width="2" stroke-opacity="0.200000" points="402.65,-107.78 404.75,-113.78 406.85,-107.78 402.65,-107.78"/>
</g>
<!-- src/components/CreateRoom/&#45;&gt;src/components/Chessboard/ -->
<g id="edge15" class="edge">
<title>src/components/CreateRoom/&#45;&gt;src/components/Chessboard/</title>
<path fill="none" stroke="#000000" stroke-width="2" stroke-opacity="0.200000" d="M348,-97C365.38,-97 382.75,-97 382.75,-97 382.75,-97 382.75,-107.82 382.75,-107.82"/>
<polygon fill="#000000" fill-opacity="0.200000" stroke="#000000" stroke-width="2" stroke-opacity="0.200000" points="380.65,-107.82 382.75,-113.82 384.85,-107.82 380.65,-107.82"/>
</g>
<!-- src/components/FreeBoard/&#45;&gt;src/components/ComputerGame/ -->
<g id="edge17" class="edge">
<title>src/components/FreeBoard/&#45;&gt;src/components/ComputerGame/</title>
<path fill="none" stroke="#000000" stroke-width="2" stroke-opacity="0.200000" d="M283.01,-149.71C283.01,-149.71 275.38,-149.71 275.38,-149.71"/>
<polygon fill="#000000" fill-opacity="0.200000" stroke="#000000" stroke-width="2" stroke-opacity="0.200000" points="275.38,-147.61 269.38,-149.71 275.38,-151.81 275.38,-147.61"/>
</g>
<!-- src/components/FreeBoard/&#45;&gt;src/components/Chessboard/ -->
<g id="edge16" class="edge">
<title>src/components/FreeBoard/&#45;&gt;src/components/Chessboard/</title>
<path fill="none" stroke="#000000" stroke-width="2" stroke-opacity="0.200000" d="M328.75,-145.72C328.75,-138.35 328.75,-129.29 328.75,-129.29 328.75,-129.29 351.05,-129.29 351.05,-129.29"/>
<polygon fill="#000000" fill-opacity="0.200000" stroke="#000000" stroke-width="2" stroke-opacity="0.200000" points="351.05,-131.39 357.05,-129.29 351.05,-127.19 351.05,-131.39"/>
</g>
<!-- src/components/MultiplayerGame/&#45;&gt;src/components/ComputerGame/ -->
<g id="edge19" class="edge">
<title>src/components/MultiplayerGame/&#45;&gt;src/components/ComputerGame/</title>
<path fill="none" stroke="#000000" stroke-width="2" stroke-opacity="0.200000" d="M161.75,-106.13C161.75,-119.32 161.75,-142.12 161.75,-142.12 161.75,-142.12 175.36,-142.12 175.36,-142.12"/>
<polygon fill="#000000" fill-opacity="0.200000" stroke="#000000" stroke-width="2" stroke-opacity="0.200000" points="175.36,-144.23 181.36,-142.12 175.36,-140.03 175.36,-144.23"/>
</g>
<!-- src/components/MultiplayerGame/&#45;&gt;src/components/Chessboard/ -->
<g id="edge18" class="edge">
<title>src/components/MultiplayerGame/&#45;&gt;src/components/Chessboard/</title>
<path fill="none" stroke="#000000" stroke-width="2" stroke-opacity="0.200000" d="M166.75,-106.34C166.75,-114.04 166.75,-123.71 166.75,-123.71 166.75,-123.71 351.15,-123.71 351.15,-123.71"/>
<polygon fill="#000000" fill-opacity="0.200000" stroke="#000000" stroke-width="2" stroke-opacity="0.200000" points="351.15,-125.81 357.15,-123.71 351.15,-121.61 351.15,-125.81"/>
</g>
<!-- src/components/Room/&#45;&gt;src/components/ComputerGame/ -->
<g id="edge21" class="edge">
<title>src/components/Room/&#45;&gt;src/components/ComputerGame/</title>
<path fill="none" stroke="#000000" stroke-width="2" stroke-opacity="0.200000" d="M156.12,-212.56C184.77,-212.56 225.75,-212.56 225.75,-212.56 225.75,-212.56 225.75,-166.25 225.75,-166.25"/>
<polygon fill="#000000" fill-opacity="0.200000" stroke="#000000" stroke-width="2" stroke-opacity="0.200000" points="227.85,-166.25 225.75,-160.25 223.65,-166.25 227.85,-166.25"/>
</g>
<!-- src/components/Room/&#45;&gt;src/components/FreeBoard/ -->
<g id="edge22" class="edge">
<title>src/components/Room/&#45;&gt;src/components/FreeBoard/</title>
<path fill="none" stroke="#000000" stroke-width="2" stroke-opacity="0.200000" d="M156.15,-217C207.58,-217 313.75,-217 313.75,-217 313.75,-217 313.75,-173.15 313.75,-173.15"/>
<polygon fill="#000000" fill-opacity="0.200000" stroke="#000000" stroke-width="2" stroke-opacity="0.200000" points="315.85,-173.15 313.75,-167.15 311.65,-173.15 315.85,-173.15"/>
</g>
<!-- src/components/Room/&#45;&gt;src/components/Chessboard/ -->
<g id="edge20" class="edge">
<title>src/components/Room/&#45;&gt;src/components/Chessboard/</title>
<path fill="none" stroke="#000000" stroke-width="2" stroke-opacity="0.200000" d="M156.34,-221.44C226.11,-221.44 404.75,-221.44 404.75,-221.44 404.75,-221.44 404.75,-144.15 404.75,-144.15"/>
<polygon fill="#000000" fill-opacity="0.200000" stroke="#000000" stroke-width="2" stroke-opacity="0.200000" points="406.85,-144.15 404.75,-138.15 402.65,-144.15 406.85,-144.15"/>
</g>
</g>
</svg>
