<?xml version="1.0" encoding="UTF-8" standalone="no"?>
<!DOCTYPE svg PUBLIC "-//W3C//DTD SVG 1.1//EN"
 "http://www.w3.org/Graphics/SVG/1.1/DTD/svg11.dtd">
<!-- Generated by graphviz version 8.0.5 (20230430.1635)
 -->
<!-- Title: dependency&#45;cruiser output Pages: 1 -->
<svg width="401pt" height="478pt"
 viewBox="0.00 0.00 400.75 478.00" xmlns="http://www.w3.org/2000/svg" xmlns:xlink="http://www.w3.org/1999/xlink">
<g id="graph0" class="graph" transform="scale(1 1) rotate(0) translate(4 474)">
<title>dependency&#45;cruiser output</title>
<polygon fill="white" stroke="none" points="-4,4 -4,-474 396.75,-474 396.75,4 -4,4"/>
<g id="clust1" class="cluster">
<title>cluster_src</title>
<path fill="#ffffff" stroke="black" stroke-width="2" d="M20,-8C20,-8 372.75,-8 372.75,-8 378.75,-8 384.75,-14 384.75,-20 384.75,-20 384.75,-450 384.75,-450 384.75,-456 378.75,-462 372.75,-462 372.75,-462 20,-462 20,-462 14,-462 8,-456 8,-450 8,-450 8,-20 8,-20 8,-14 14,-8 20,-8"/>
<text text-anchor="middle" x="196.38" y="-449.45" font-family="Helvetica,sans-Serif" font-weight="bold" font-size="9.00">src</text>
</g>
<g id="clust2" class="cluster">
<title>cluster_src/components</title>
<path fill="#ffffff" stroke="black" stroke-width="2" d="M28,-16C28,-16 364.75,-16 364.75,-16 370.75,-16 376.75,-22 376.75,-28 376.75,-28 376.75,-424 376.75,-424 376.75,-430 370.75,-436 364.75,-436 364.75,-436 28,-436 28,-436 22,-436 16,-430 16,-424 16,-424 16,-28 16,-28 16,-22 22,-16 28,-16"/>
<text text-anchor="middle" x="196.38" y="-423.45" font-family="Helvetica,sans-Serif" font-weight="bold" font-size="9.00">components</text>
</g>
<g id="clust3" class="cluster">
<title>cluster_src/components/Chessboard</title>
<path fill="#ffffff" stroke="black" stroke-width="2" d="M156.88,-264C156.88,-264 224.12,-264 224.12,-264 230.12,-264 236.12,-270 236.12,-276 236.12,-276 236.12,-304 236.12,-304 236.12,-310 230.12,-316 224.12,-316 224.12,-316 156.88,-316 156.88,-316 150.88,-316 144.88,-310 144.88,-304 144.88,-304 144.88,-276 144.88,-276 144.88,-270 150.88,-264 156.88,-264"/>
<text text-anchor="middle" x="190.5" y="-303.45" font-family="Helvetica,sans-Serif" font-weight="bold" font-size="9.00">Chessboard</text>
</g>
<g id="clust4" class="cluster">
<title>cluster_src/components/ComputerGame</title>
<path fill="#ffffff" stroke="black" stroke-width="2" d="M153.38,-324C153.38,-324 227.62,-324 227.62,-324 233.62,-324 239.62,-330 239.62,-336 239.62,-336 239.62,-398 239.62,-398 239.62,-404 233.62,-410 227.62,-410 227.62,-410 153.38,-410 153.38,-410 147.38,-410 141.38,-404 141.38,-398 141.38,-398 141.38,-336 141.38,-336 141.38,-330 147.38,-324 153.38,-324"/>
<text text-anchor="middle" x="190.5" y="-397.45" font-family="Helvetica,sans-Serif" font-weight="bold" font-size="9.00">ComputerGame</text>
</g>
<g id="clust5" class="cluster">
<title>cluster_src/components/ComputerGame/MovesList</title>
<path fill="#ffffff" stroke="black" stroke-width="2" d="M161.38,-332C161.38,-332 219.62,-332 219.62,-332 225.62,-332 231.62,-338 231.62,-344 231.62,-344 231.62,-372 231.62,-372 231.62,-378 225.62,-384 219.62,-384 219.62,-384 161.38,-384 161.38,-384 155.38,-384 149.38,-378 149.38,-372 149.38,-372 149.38,-344 149.38,-344 149.38,-338 155.38,-332 161.38,-332"/>
<text text-anchor="middle" x="190.5" y="-371.45" font-family="Helvetica,sans-Serif" font-weight="bold" font-size="9.00">MovesList</text>
</g>
<g id="clust6" class="cluster">
<title>cluster_src/components/MultiplayerGame</title>
<path fill="#ffffff" stroke="black" stroke-width="2" d="M36,-24C36,-24 356.75,-24 356.75,-24 362.75,-24 368.75,-30 368.75,-36 368.75,-36 368.75,-244 368.75,-244 368.75,-250 362.75,-256 356.75,-256 356.75,-256 36,-256 36,-256 30,-256 24,-250 24,-244 24,-244 24,-36 24,-36 24,-30 30,-24 36,-24"/>
<text text-anchor="middle" x="196.38" y="-243.45" font-family="Helvetica,sans-Serif" font-weight="bold" font-size="9.00">MultiplayerGame</text>
</g>
<g id="clust7" class="cluster">
<title>cluster_src/components/MultiplayerGame/SurrenderModal</title>
<path fill="#ffffff" stroke="black" stroke-width="2" d="M148.62,-58C148.62,-58 348.75,-58 348.75,-58 354.75,-58 360.75,-64 360.75,-70 360.75,-70 360.75,-98 360.75,-98 360.75,-104 354.75,-110 348.75,-110 348.75,-110 148.62,-110 148.62,-110 142.62,-110 136.62,-104 136.62,-98 136.62,-98 136.62,-70 136.62,-70 136.62,-64 142.62,-58 148.62,-58"/>
<text text-anchor="middle" x="248.69" y="-97.45" font-family="Helvetica,sans-Serif" font-weight="bold" font-size="9.00">SurrenderModal</text>
</g>
<g id="clust8" class="cluster">
<title>cluster_src/components/MultiplayerGame/Timer</title>
<path fill="#ffffff" stroke="black" stroke-width="2" d="M167.5,-118C167.5,-118 326.62,-118 326.62,-118 332.62,-118 338.62,-124 338.62,-130 338.62,-130 338.62,-158 338.62,-158 338.62,-164 332.62,-170 326.62,-170 326.62,-170 167.5,-170 167.5,-170 161.5,-170 155.5,-164 155.5,-158 155.5,-158 155.5,-130 155.5,-130 155.5,-124 161.5,-118 167.5,-118"/>
<text text-anchor="middle" x="247.06" y="-157.45" font-family="Helvetica,sans-Serif" font-weight="bold" font-size="9.00">Timer</text>
</g>
<g id="clust9" class="cluster">
<title>cluster_src/components/MultiplayerGame/Toast</title>
<path fill="#ffffff" stroke="black" stroke-width="2" d="M167.5,-178C167.5,-178 326.5,-178 326.5,-178 332.5,-178 338.5,-184 338.5,-190 338.5,-190 338.5,-218 338.5,-218 338.5,-224 332.5,-230 326.5,-230 326.5,-230 167.5,-230 167.5,-230 161.5,-230 155.5,-224 155.5,-218 155.5,-218 155.5,-190 155.5,-190 155.5,-184 161.5,-178 167.5,-178"/>
<text text-anchor="middle" x="247" y="-217.45" font-family="Helvetica,sans-Serif" font-weight="bold" font-size="9.00">Toast</text>
</g>
<!-- src/components/Chessboard/Chessboard.js -->
<g id="node1" class="node">
<title>src/components/Chessboard/Chessboard.js</title>
<g id="a_node1"><a xlink:href="src/components/Chessboard/Chessboard.js" xlink:title="Chessboard.js">
<path fill="#4db6ac" stroke="black" d="M222.21,-289.88C222.21,-289.88 158.79,-289.88 158.79,-289.88 155.83,-289.88 152.88,-286.92 152.88,-283.96 152.88,-283.96 152.88,-278.04 152.88,-278.04 152.88,-275.08 155.83,-272.12 158.79,-272.12 158.79,-272.12 222.21,-272.12 222.21,-272.12 225.17,-272.12 228.12,-275.08 228.12,-278.04 228.12,-278.04 228.12,-283.96 228.12,-283.96 228.12,-286.92 225.17,-289.88 222.21,-289.88"/>
<text text-anchor="start" x="160.88" y="-277.32" font-family="Helvetica,sans-Serif" font-size="9.00">Chessboard.js</text>
</a>
</g>
</g>
<!-- src/components/ComputerGame/MovesList/MovesList.js -->
<g id="node2" class="node">
<title>src/components/ComputerGame/MovesList/MovesList.js</title>
<g id="a_node2"><a xlink:href="src/components/ComputerGame/MovesList/MovesList.js" xlink:title="MovesList.js">
<path fill="#a1887f" stroke="black" d="M217.71,-357.88C217.71,-357.88 163.29,-357.88 163.29,-357.88 160.33,-357.88 157.38,-354.92 157.38,-351.96 157.38,-351.96 157.38,-346.04 157.38,-346.04 157.38,-343.08 160.33,-340.12 163.29,-340.12 163.29,-340.12 217.71,-340.12 217.71,-340.12 220.67,-340.12 223.62,-343.08 223.62,-346.04 223.62,-346.04 223.62,-351.96 223.62,-351.96 223.62,-354.92 220.67,-357.88 217.71,-357.88"/>
<text text-anchor="start" x="165.38" y="-345.32" font-family="Helvetica,sans-Serif" font-size="9.00">MovesList.js</text>
</a>
</g>
</g>
<!-- src/components/MultiplayerGame/MultiplayerGame.css -->
<g id="node3" class="node">
<title>src/components/MultiplayerGame/MultiplayerGame.css</title>
<g id="a_node3"><a xlink:href="src/components/MultiplayerGame/MultiplayerGame.css" xlink:title="MultiplayerGame.css">
<path fill="#9575cd" stroke="black" d="M235.33,-49.88C235.33,-49.88 145.67,-49.88 145.67,-49.88 142.71,-49.88 139.75,-46.92 139.75,-43.96 139.75,-43.96 139.75,-38.04 139.75,-38.04 139.75,-35.08 142.71,-32.12 145.67,-32.12 145.67,-32.12 235.33,-32.12 235.33,-32.12 238.29,-32.12 241.25,-35.08 241.25,-38.04 241.25,-38.04 241.25,-43.96 241.25,-43.96 241.25,-46.92 238.29,-49.88 235.33,-49.88"/>
<text text-anchor="start" x="147.75" y="-37.33" font-family="Helvetica,sans-Serif" font-size="9.00">MultiplayerGame.css</text>
</a>
</g>
</g>
<!-- src/components/MultiplayerGame/MultiplayerGame.js -->
<g id="node4" class="node">
<title>src/components/MultiplayerGame/MultiplayerGame.js</title>
<g id="a_node4"><a xlink:href="src/components/MultiplayerGame/MultiplayerGame.js" xlink:title="MultiplayerGame.js">
<path fill="#9575cd" stroke="black" d="M120.83,-173.88C120.83,-173.88 37.92,-173.88 37.92,-173.88 34.96,-173.88 32,-170.92 32,-167.96 32,-167.96 32,-162.04 32,-162.04 32,-159.08 34.96,-156.12 37.92,-156.12 37.92,-156.12 120.83,-156.12 120.83,-156.12 123.79,-156.12 126.75,-159.08 126.75,-162.04 126.75,-162.04 126.75,-167.96 126.75,-167.96 126.75,-170.92 123.79,-173.88 120.83,-173.88"/>
<text text-anchor="start" x="40" y="-161.32" font-family="Helvetica,sans-Serif" font-size="9.00">MultiplayerGame.js</text>
</a>
</g>
</g>
<!-- src/components/MultiplayerGame/MultiplayerGame.js&#45;&gt;src/components/Chessboard/Chessboard.js -->
<g id="edge1" class="edge">
<title>src/components/MultiplayerGame/MultiplayerGame.js&#45;&gt;src/components/Chessboard/Chessboard.js</title>
<path fill="none" stroke="#000000" stroke-width="2" stroke-opacity="0.200000" d="M126.92,-170.32C143.83,-170.32 158.75,-170.32 158.75,-170.32 158.75,-170.32 158.75,-262.94 158.75,-262.94"/>
<polygon fill="#000000" fill-opacity="0.200000" stroke="#000000" stroke-width="2" stroke-opacity="0.200000" points="156.65,-262.94 158.75,-268.94 160.85,-262.94 156.65,-262.94"/>
</g>
<!-- src/components/MultiplayerGame/MultiplayerGame.js&#45;&gt;src/components/ComputerGame/MovesList/MovesList.js -->
<g id="edge2" class="edge">
<title>src/components/MultiplayerGame/MultiplayerGame.js&#45;&gt;src/components/ComputerGame/MovesList/MovesList.js</title>
<path fill="none" stroke="#000000" stroke-width="2" stroke-opacity="0.200000" d="M79.75,-174.12C79.75,-211.25 79.75,-349 79.75,-349 79.75,-349 147.97,-349 147.97,-349"/>
<polygon fill="#000000" fill-opacity="0.200000" stroke="#000000" stroke-width="2" stroke-opacity="0.200000" points="147.97,-351.1 153.97,-349 147.97,-346.9 147.97,-351.1"/>
</g>
<!-- src/components/MultiplayerGame/MultiplayerGame.js&#45;&gt;src/components/MultiplayerGame/MultiplayerGame.css -->
<g id="edge3" class="edge">
<title>src/components/MultiplayerGame/MultiplayerGame.js&#45;&gt;src/components/MultiplayerGame/MultiplayerGame.css</title>
<path fill="none" stroke="#000000" stroke-width="2" stroke-opacity="0.200000" d="M79.75,-155.68C79.75,-126.84 79.75,-41 79.75,-41 79.75,-41 130.34,-41 130.34,-41"/>
<polygon fill="#000000" fill-opacity="0.200000" stroke="#000000" stroke-width="2" stroke-opacity="0.200000" points="130.34,-43.1 136.34,-41 130.34,-38.9 130.34,-43.1"/>
</g>
<!-- src/components/MultiplayerGame/SurrenderModal/SurrenderModal.js -->
<g id="node5" class="node">
<title>src/components/MultiplayerGame/SurrenderModal/SurrenderModal.js</title>
<g id="a_node5"><a xlink:href="src/components/MultiplayerGame/SurrenderModal/SurrenderModal.js" xlink:title="SurrenderModal.js">
<path fill="#9575cd" stroke="black" d="M230.46,-83.88C230.46,-83.88 150.54,-83.88 150.54,-83.88 147.58,-83.88 144.62,-80.92 144.62,-77.96 144.62,-77.96 144.62,-72.04 144.62,-72.04 144.62,-69.08 147.58,-66.12 150.54,-66.12 150.54,-66.12 230.46,-66.12 230.46,-66.12 233.42,-66.12 236.38,-69.08 236.38,-72.04 236.38,-72.04 236.38,-77.96 236.38,-77.96 236.38,-80.92 233.42,-83.88 230.46,-83.88"/>
<text text-anchor="start" x="152.62" y="-71.33" font-family="Helvetica,sans-Serif" font-size="9.00">SurrenderModal.js</text>
</a>
</g>
</g>
<!-- src/components/MultiplayerGame/MultiplayerGame.js&#45;&gt;src/components/MultiplayerGame/SurrenderModal/SurrenderModal.js -->
<g id="edge4" class="edge">
<title>src/components/MultiplayerGame/MultiplayerGame.js&#45;&gt;src/components/MultiplayerGame/SurrenderModal/SurrenderModal.js</title>
<path fill="none" stroke="#000000" stroke-width="2" stroke-opacity="0.200000" d="M127.18,-159.68C139.2,-159.68 148.75,-159.68 148.75,-159.68 148.75,-159.68 148.75,-93.06 148.75,-93.06"/>
<polygon fill="#000000" fill-opacity="0.200000" stroke="#000000" stroke-width="2" stroke-opacity="0.200000" points="150.85,-93.06 148.75,-87.06 146.65,-93.06 150.85,-93.06"/>
</g>
<!-- src/components/MultiplayerGame/Timer/Timer.js -->
<g id="node6" class="node">
<title>src/components/MultiplayerGame/Timer/Timer.js</title>
<g id="a_node6"><a xlink:href="src/components/MultiplayerGame/Timer/Timer.js" xlink:title="Timer.js">
<path fill="#9575cd" stroke="black" d="M211.58,-143.88C211.58,-143.88 169.42,-143.88 169.42,-143.88 166.46,-143.88 163.5,-140.92 163.5,-137.96 163.5,-137.96 163.5,-132.04 163.5,-132.04 163.5,-129.08 166.46,-126.12 169.42,-126.12 169.42,-126.12 211.58,-126.12 211.58,-126.12 214.54,-126.12 217.5,-129.08 217.5,-132.04 217.5,-132.04 217.5,-137.96 217.5,-137.96 217.5,-140.92 214.54,-143.88 211.58,-143.88"/>
<text text-anchor="start" x="174.75" y="-131.32" font-family="Helvetica,sans-Serif" font-size="9.00">Timer.js</text>
</a>
</g>
</g>
<!-- src/components/MultiplayerGame/MultiplayerGame.js&#45;&gt;src/components/MultiplayerGame/Timer/Timer.js -->
<g id="edge5" class="edge">
<title>src/components/MultiplayerGame/MultiplayerGame.js&#45;&gt;src/components/MultiplayerGame/Timer/Timer.js</title>
<path fill="none" stroke="#000000" stroke-width="2" stroke-opacity="0.200000" d="M126.95,-163.22C160.6,-163.22 199.75,-163.22 199.75,-163.22 199.75,-163.22 199.75,-153.24 199.75,-153.24"/>
<polygon fill="#000000" fill-opacity="0.200000" stroke="#000000" stroke-width="2" stroke-opacity="0.200000" points="201.85,-153.24 199.75,-147.24 197.65,-153.24 201.85,-153.24"/>
</g>
<!-- src/components/MultiplayerGame/Toast/Toast.js -->
<g id="node7" class="node">
<title>src/components/MultiplayerGame/Toast/Toast.js</title>
<g id="a_node7"><a xlink:href="src/components/MultiplayerGame/Toast/Toast.js" xlink:title="Toast.js">
<path fill="#9575cd" stroke="black" d="M211.58,-203.88C211.58,-203.88 169.42,-203.88 169.42,-203.88 166.46,-203.88 163.5,-200.92 163.5,-197.96 163.5,-197.96 163.5,-192.04 163.5,-192.04 163.5,-189.08 166.46,-186.12 169.42,-186.12 169.42,-186.12 211.58,-186.12 211.58,-186.12 214.54,-186.12 217.5,-189.08 217.5,-192.04 217.5,-192.04 217.5,-197.96 217.5,-197.96 217.5,-200.92 214.54,-203.88 211.58,-203.88"/>
<text text-anchor="start" x="175.12" y="-191.32" font-family="Helvetica,sans-Serif" font-size="9.00">Toast.js</text>
</a>
</g>
</g>
<!-- src/components/MultiplayerGame/MultiplayerGame.js&#45;&gt;src/components/MultiplayerGame/Toast/Toast.js -->
<g id="edge6" class="edge">
<title>src/components/MultiplayerGame/MultiplayerGame.js&#45;&gt;src/components/MultiplayerGame/Toast/Toast.js</title>
<path fill="none" stroke="#000000" stroke-width="2" stroke-opacity="0.200000" d="M126.97,-166.78C153.7,-166.78 181.75,-166.78 181.75,-166.78 181.75,-166.78 181.75,-176.76 181.75,-176.76"/>
<polygon fill="#000000" fill-opacity="0.200000" stroke="#000000" stroke-width="2" stroke-opacity="0.200000" points="179.65,-176.76 181.75,-182.76 183.85,-176.76 179.65,-176.76"/>
</g>
<!-- src/components/MultiplayerGame/SurrenderModal/SurrenderModal.css -->
<g id="node8" class="node">
<title>src/components/MultiplayerGame/SurrenderModal/SurrenderModal.css</title>
<g id="a_node8"><a xlink:href="src/components/MultiplayerGame/SurrenderModal/SurrenderModal.css" xlink:title="SurrenderModal.css">
<path fill="#9575cd" stroke="black" d="M346.83,-83.88C346.83,-83.88 260.17,-83.88 260.17,-83.88 257.21,-83.88 254.25,-80.92 254.25,-77.96 254.25,-77.96 254.25,-72.04 254.25,-72.04 254.25,-69.08 257.21,-66.12 260.17,-66.12 260.17,-66.12 346.83,-66.12 346.83,-66.12 349.79,-66.12 352.75,-69.08 352.75,-72.04 352.75,-72.04 352.75,-77.96 352.75,-77.96 352.75,-80.92 349.79,-83.88 346.83,-83.88"/>
<text text-anchor="start" x="262.25" y="-71.33" font-family="Helvetica,sans-Serif" font-size="9.00">SurrenderModal.css</text>
</a>
</g>
</g>
<!-- src/components/MultiplayerGame/SurrenderModal/SurrenderModal.js&#45;&gt;src/components/MultiplayerGame/SurrenderModal/SurrenderModal.css -->
<g id="edge7" class="edge">
<title>src/components/MultiplayerGame/SurrenderModal/SurrenderModal.js&#45;&gt;src/components/MultiplayerGame/SurrenderModal/SurrenderModal.css</title>
<path fill="none" stroke="#000000" stroke-width="2" stroke-opacity="0.200000" d="M236.79,-75C236.79,-75 244.8,-75 244.8,-75"/>
<polygon fill="#000000" fill-opacity="0.200000" stroke="#000000" stroke-width="2" stroke-opacity="0.200000" points="244.8,-77.1 250.8,-75 244.8,-72.9 244.8,-77.1"/>
</g>
<!-- src/components/MultiplayerGame/Timer/Timer.css -->
<g id="node9" class="node">
<title>src/components/MultiplayerGame/Timer/Timer.css</title>
<g id="a_node9"><a xlink:href="src/components/MultiplayerGame/Timer/Timer.css" xlink:title="Timer.css">
<path fill="#9575cd" stroke="black" d="M324.71,-143.88C324.71,-143.88 282.29,-143.88 282.29,-143.88 279.33,-143.88 276.38,-140.92 276.38,-137.96 276.38,-137.96 276.38,-132.04 276.38,-132.04 276.38,-129.08 279.33,-126.12 282.29,-126.12 282.29,-126.12 324.71,-126.12 324.71,-126.12 327.67,-126.12 330.62,-129.08 330.62,-132.04 330.62,-132.04 330.62,-137.96 330.62,-137.96 330.62,-140.92 327.67,-143.88 324.71,-143.88"/>
<text text-anchor="start" x="284.38" y="-131.32" font-family="Helvetica,sans-Serif" font-size="9.00">Timer.css</text>
</a>
</g>
</g>
<!-- src/components/MultiplayerGame/Timer/Timer.js&#45;&gt;src/components/MultiplayerGame/Timer/Timer.css -->
<g id="edge8" class="edge">
<title>src/components/MultiplayerGame/Timer/Timer.js&#45;&gt;src/components/MultiplayerGame/Timer/Timer.css</title>
<path fill="none" stroke="#000000" stroke-width="2" stroke-opacity="0.200000" d="M217.85,-135C217.85,-135 267.01,-135 267.01,-135"/>
<polygon fill="#000000" fill-opacity="0.200000" stroke="#000000" stroke-width="2" stroke-opacity="0.200000" points="267.01,-137.1 273.01,-135 267.01,-132.9 267.01,-137.1"/>
</g>
<!-- src/components/MultiplayerGame/Toast/Toast.css -->
<g id="node10" class="node">
<title>src/components/MultiplayerGame/Toast/Toast.css</title>
<g id="a_node10"><a xlink:href="src/components/MultiplayerGame/Toast/Toast.css" xlink:title="Toast.css">
<path fill="#9575cd" stroke="black" d="M324.58,-203.88C324.58,-203.88 282.42,-203.88 282.42,-203.88 279.46,-203.88 276.5,-200.92 276.5,-197.96 276.5,-197.96 276.5,-192.04 276.5,-192.04 276.5,-189.08 279.46,-186.12 282.42,-186.12 282.42,-186.12 324.58,-186.12 324.58,-186.12 327.54,-186.12 330.5,-189.08 330.5,-192.04 330.5,-192.04 330.5,-197.96 330.5,-197.96 330.5,-200.92 327.54,-203.88 324.58,-203.88"/>
<text text-anchor="start" x="284.75" y="-191.32" font-family="Helvetica,sans-Serif" font-size="9.00">Toast.css</text>
</a>
</g>
</g>
<!-- src/components/MultiplayerGame/Toast/Toast.js&#45;&gt;src/components/MultiplayerGame/Toast/Toast.css -->
<g id="edge9" class="edge">
<title>src/components/MultiplayerGame/Toast/Toast.js&#45;&gt;src/components/MultiplayerGame/Toast/Toast.css</title>
<path fill="none" stroke="#000000" stroke-width="2" stroke-opacity="0.200000" d="M217.85,-195C217.85,-195 267.01,-195 267.01,-195"/>
<polygon fill="#000000" fill-opacity="0.200000" stroke="#000000" stroke-width="2" stroke-opacity="0.200000" points="267.01,-197.1 273.01,-195 267.01,-192.9 267.01,-197.1"/>
</g>
</g>
</svg>
