<?xml version="1.0" encoding="UTF-8" standalone="no"?>
<!DOCTYPE svg PUBLIC "-//W3C//DTD SVG 1.1//EN"
 "http://www.w3.org/Graphics/SVG/1.1/DTD/svg11.dtd">
<!-- Generated by graphviz version 8.0.5 (20230430.1635)
 -->
<!-- Title: dependency&#45;cruiser output Pages: 1 -->
<svg width="710pt" height="658pt"
 viewBox="0.00 0.00 709.50 658.00" xmlns="http://www.w3.org/2000/svg" xmlns:xlink="http://www.w3.org/1999/xlink">
<g id="graph0" class="graph" transform="scale(1 1) rotate(0) translate(4 654)">
<title>dependency&#45;cruiser output</title>
<polygon fill="white" stroke="none" points="-4,4 -4,-654 705.5,-654 705.5,4 -4,4"/>
<g id="clust1" class="cluster">
<title>cluster_src</title>
<path fill="#ffffff" stroke="black" stroke-width="2" d="M20,-8C20,-8 681.5,-8 681.5,-8 687.5,-8 693.5,-14 693.5,-20 693.5,-20 693.5,-630 693.5,-630 693.5,-636 687.5,-642 681.5,-642 681.5,-642 20,-642 20,-642 14,-642 8,-636 8,-630 8,-630 8,-20 8,-20 8,-14 14,-8 20,-8"/>
<text text-anchor="middle" x="350.75" y="-629.45" font-family="Helvetica,sans-Serif" font-weight="bold" font-size="9.00">src</text>
</g>
<g id="clust2" class="cluster">
<title>cluster_src/components</title>
<path fill="#ffffff" stroke="black" stroke-width="2" d="M28,-16C28,-16 673.5,-16 673.5,-16 679.5,-16 685.5,-22 685.5,-28 685.5,-28 685.5,-604 685.5,-604 685.5,-610 679.5,-616 673.5,-616 673.5,-616 28,-616 28,-616 22,-616 16,-610 16,-604 16,-604 16,-28 16,-28 16,-22 22,-16 28,-16"/>
<text text-anchor="middle" x="350.75" y="-603.45" font-family="Helvetica,sans-Serif" font-weight="bold" font-size="9.00">components</text>
</g>
<g id="clust3" class="cluster">
<title>cluster_src/components/Chessboard</title>
<path fill="#ffffff" stroke="black" stroke-width="2" d="M293.12,-504C293.12,-504 360.38,-504 360.38,-504 366.38,-504 372.38,-510 372.38,-516 372.38,-516 372.38,-544 372.38,-544 372.38,-550 366.38,-556 360.38,-556 360.38,-556 293.12,-556 293.12,-556 287.12,-556 281.12,-550 281.12,-544 281.12,-544 281.12,-516 281.12,-516 281.12,-510 287.12,-504 293.12,-504"/>
<text text-anchor="middle" x="326.75" y="-543.45" font-family="Helvetica,sans-Serif" font-weight="bold" font-size="9.00">Chessboard</text>
</g>
<g id="clust4" class="cluster">
<title>cluster_src/components/ComputerGame</title>
<path fill="#ffffff" stroke="black" stroke-width="2" d="M140.62,-504C140.62,-504 214.88,-504 214.88,-504 220.88,-504 226.88,-510 226.88,-516 226.88,-516 226.88,-578 226.88,-578 226.88,-584 220.88,-590 214.88,-590 214.88,-590 140.62,-590 140.62,-590 134.62,-590 128.62,-584 128.62,-578 128.62,-578 128.62,-516 128.62,-516 128.62,-510 134.62,-504 140.62,-504"/>
<text text-anchor="middle" x="177.75" y="-577.45" font-family="Helvetica,sans-Serif" font-weight="bold" font-size="9.00">ComputerGame</text>
</g>
<g id="clust5" class="cluster">
<title>cluster_src/components/ComputerGame/MovesList</title>
<path fill="#ffffff" stroke="black" stroke-width="2" d="M148.62,-512C148.62,-512 206.88,-512 206.88,-512 212.88,-512 218.88,-518 218.88,-524 218.88,-524 218.88,-552 218.88,-552 218.88,-558 212.88,-564 206.88,-564 206.88,-564 148.62,-564 148.62,-564 142.62,-564 136.62,-558 136.62,-552 136.62,-552 136.62,-524 136.62,-524 136.62,-518 142.62,-512 148.62,-512"/>
<text text-anchor="middle" x="177.75" y="-551.45" font-family="Helvetica,sans-Serif" font-weight="bold" font-size="9.00">MovesList</text>
</g>
<g id="clust6" class="cluster">
<title>cluster_src/components/FreeBoard</title>
<path fill="#ffffff" stroke="black" stroke-width="2" d="M36,-24C36,-24 665.5,-24 665.5,-24 671.5,-24 677.5,-30 677.5,-36 677.5,-36 677.5,-484 677.5,-484 677.5,-490 671.5,-496 665.5,-496 665.5,-496 36,-496 36,-496 30,-496 24,-490 24,-484 24,-484 24,-36 24,-36 24,-30 30,-24 36,-24"/>
<text text-anchor="middle" x="350.75" y="-483.45" font-family="Helvetica,sans-Serif" font-weight="bold" font-size="9.00">FreeBoard</text>
</g>
<g id="clust7" class="cluster">
<title>cluster_src/components/FreeBoard/EditBoardModal</title>
<path fill="#ffffff" stroke="black" stroke-width="2" d="M136.25,-178C136.25,-178 381.75,-178 381.75,-178 387.75,-178 393.75,-184 393.75,-190 393.75,-190 393.75,-218 393.75,-218 393.75,-224 387.75,-230 381.75,-230 381.75,-230 136.25,-230 136.25,-230 130.25,-230 124.25,-224 124.25,-218 124.25,-218 124.25,-190 124.25,-190 124.25,-184 130.25,-178 136.25,-178"/>
<text text-anchor="middle" x="259" y="-217.45" font-family="Helvetica,sans-Serif" font-weight="bold" font-size="9.00">EditBoardModal</text>
</g>
<g id="clust8" class="cluster">
<title>cluster_src/components/FreeBoard/EvalList</title>
<path fill="#ffffff" stroke="black" stroke-width="2" d="M153.12,-32C153.12,-32 364.88,-32 364.88,-32 370.88,-32 376.88,-38 376.88,-44 376.88,-44 376.88,-72 376.88,-72 376.88,-78 370.88,-84 364.88,-84 364.88,-84 153.12,-84 153.12,-84 147.12,-84 141.12,-78 141.12,-72 141.12,-72 141.12,-44 141.12,-44 141.12,-38 147.12,-32 153.12,-32"/>
<text text-anchor="middle" x="259" y="-71.45" font-family="Helvetica,sans-Serif" font-weight="bold" font-size="9.00">EvalList</text>
</g>
<g id="clust9" class="cluster">
<title>cluster_src/components/FreeBoard/ReplayProgressOverlay</title>
<path fill="#ffffff" stroke="black" stroke-width="2" d="M120.5,-92C120.5,-92 397.5,-92 397.5,-92 403.5,-92 409.5,-98 409.5,-104 409.5,-104 409.5,-132 409.5,-132 409.5,-138 403.5,-144 397.5,-144 397.5,-144 120.5,-144 120.5,-144 114.5,-144 108.5,-138 108.5,-132 108.5,-132 108.5,-104 108.5,-104 108.5,-98 114.5,-92 120.5,-92"/>
<text text-anchor="middle" x="259" y="-131.45" font-family="Helvetica,sans-Serif" font-weight="bold" font-size="9.00">ReplayProgressOverlay</text>
</g>
<g id="clust10" class="cluster">
<title>cluster_src/components/FreeBoard/SettingsGear</title>
<path fill="#ffffff" stroke="black" stroke-width="2" d="M142.62,-238C142.62,-238 657.5,-238 657.5,-238 663.5,-238 669.5,-244 669.5,-250 669.5,-250 669.5,-398 669.5,-398 669.5,-404 663.5,-410 657.5,-410 657.5,-410 142.62,-410 142.62,-410 136.62,-410 130.62,-404 130.62,-398 130.62,-398 130.62,-250 130.62,-250 130.62,-244 136.62,-238 142.62,-238"/>
<text text-anchor="middle" x="400.06" y="-397.45" font-family="Helvetica,sans-Serif" font-weight="bold" font-size="9.00">SettingsGear</text>
</g>
<g id="clust11" class="cluster">
<title>cluster_src/components/FreeBoard/SettingsGear/SettingsModal</title>
<path fill="#ffffff" stroke="black" stroke-width="2" d="M289,-272C289,-272 649.5,-272 649.5,-272 655.5,-272 661.5,-278 661.5,-284 661.5,-284 661.5,-372 661.5,-372 661.5,-378 655.5,-384 649.5,-384 649.5,-384 289,-384 289,-384 283,-384 277,-378 277,-372 277,-372 277,-284 277,-284 277,-278 283,-272 289,-272"/>
<text text-anchor="middle" x="469.25" y="-371.45" font-family="Helvetica,sans-Serif" font-weight="bold" font-size="9.00">SettingsModal</text>
</g>
<g id="clust12" class="cluster">
<title>cluster_src/components/FreeBoard/SettingsGear/SettingsModal/SliderSetting</title>
<path fill="#ffffff" stroke="black" stroke-width="2" d="M438,-306C438,-306 641.5,-306 641.5,-306 647.5,-306 653.5,-312 653.5,-318 653.5,-318 653.5,-346 653.5,-346 653.5,-352 647.5,-358 641.5,-358 641.5,-358 438,-358 438,-358 432,-358 426,-352 426,-346 426,-346 426,-318 426,-318 426,-312 432,-306 438,-306"/>
<text text-anchor="middle" x="539.75" y="-345.45" font-family="Helvetica,sans-Serif" font-weight="bold" font-size="9.00">SliderSetting</text>
</g>
<g id="clust13" class="cluster">
<title>cluster_src/components/FreeBoard/ToggleSwitch</title>
<path fill="#ffffff" stroke="black" stroke-width="2" d="M141.88,-418C141.88,-418 376.12,-418 376.12,-418 382.12,-418 388.12,-424 388.12,-430 388.12,-430 388.12,-458 388.12,-458 388.12,-464 382.12,-470 376.12,-470 376.12,-470 141.88,-470 141.88,-470 135.88,-470 129.88,-464 129.88,-458 129.88,-458 129.88,-430 129.88,-430 129.88,-424 135.88,-418 141.88,-418"/>
<text text-anchor="middle" x="259" y="-457.45" font-family="Helvetica,sans-Serif" font-weight="bold" font-size="9.00">ToggleSwitch</text>
</g>
<!-- src/components/Chessboard/Chessboard.js -->
<g id="node1" class="node">
<title>src/components/Chessboard/Chessboard.js</title>
<g id="a_node1"><a xlink:href="src/components/Chessboard/Chessboard.js" xlink:title="Chessboard.js">
<path fill="#4db6ac" stroke="black" d="M358.46,-529.88C358.46,-529.88 295.04,-529.88 295.04,-529.88 292.08,-529.88 289.12,-526.92 289.12,-523.96 289.12,-523.96 289.12,-518.04 289.12,-518.04 289.12,-515.08 292.08,-512.12 295.04,-512.12 295.04,-512.12 358.46,-512.12 358.46,-512.12 361.42,-512.12 364.38,-515.08 364.38,-518.04 364.38,-518.04 364.38,-523.96 364.38,-523.96 364.38,-526.92 361.42,-529.88 358.46,-529.88"/>
<text text-anchor="start" x="297.12" y="-517.33" font-family="Helvetica,sans-Serif" font-size="9.00">Chessboard.js</text>
</a>
</g>
</g>
<!-- src/components/ComputerGame/MovesList/MovesList.js -->
<g id="node2" class="node">
<title>src/components/ComputerGame/MovesList/MovesList.js</title>
<g id="a_node2"><a xlink:href="src/components/ComputerGame/MovesList/MovesList.js" xlink:title="MovesList.js">
<path fill="#a1887f" stroke="black" d="M204.96,-537.88C204.96,-537.88 150.54,-537.88 150.54,-537.88 147.58,-537.88 144.62,-534.92 144.62,-531.96 144.62,-531.96 144.62,-526.04 144.62,-526.04 144.62,-523.08 147.58,-520.12 150.54,-520.12 150.54,-520.12 204.96,-520.12 204.96,-520.12 207.92,-520.12 210.88,-523.08 210.88,-526.04 210.88,-526.04 210.88,-531.96 210.88,-531.96 210.88,-534.92 207.92,-537.88 204.96,-537.88"/>
<text text-anchor="start" x="152.62" y="-525.33" font-family="Helvetica,sans-Serif" font-size="9.00">MovesList.js</text>
</a>
</g>
</g>
<!-- src/components/FreeBoard/EditBoardModal/EditBoardModal.js -->
<g id="node3" class="node">
<title>src/components/FreeBoard/EditBoardModal/EditBoardModal.js</title>
<g id="a_node3"><a xlink:href="src/components/FreeBoard/EditBoardModal/EditBoardModal.js" xlink:title="EditBoardModal.js">
<path fill="#7986cb" stroke="black" d="M217.33,-203.88C217.33,-203.88 138.17,-203.88 138.17,-203.88 135.21,-203.88 132.25,-200.92 132.25,-197.96 132.25,-197.96 132.25,-192.04 132.25,-192.04 132.25,-189.08 135.21,-186.12 138.17,-186.12 138.17,-186.12 217.33,-186.12 217.33,-186.12 220.29,-186.12 223.25,-189.08 223.25,-192.04 223.25,-192.04 223.25,-197.96 223.25,-197.96 223.25,-200.92 220.29,-203.88 217.33,-203.88"/>
<text text-anchor="start" x="140.25" y="-191.32" font-family="Helvetica,sans-Serif" font-size="9.00">EditBoardModal.js</text>
</a>
</g>
</g>
<!-- src/components/FreeBoard/EditBoardModal/EditBoardModal.js&#45;&gt;src/components/Chessboard/Chessboard.js -->
<g id="edge1" class="edge">
<title>src/components/FreeBoard/EditBoardModal/EditBoardModal.js&#45;&gt;src/components/Chessboard/Chessboard.js</title>
<path fill="none" stroke="#000000" stroke-width="2" stroke-opacity="0.200000" d="M223.57,-192.04C228.35,-192.04 231.5,-192.04 231.5,-192.04 231.5,-192.04 231.5,-514.79 231.5,-514.79 231.5,-514.79 279.83,-514.79 279.83,-514.79"/>
<polygon fill="#000000" fill-opacity="0.200000" stroke="#000000" stroke-width="2" stroke-opacity="0.200000" points="279.83,-516.89 285.83,-514.79 279.83,-512.69 279.83,-516.89"/>
</g>
<!-- src/components/FreeBoard/EditBoardModal/EditBoardModalStyle.css -->
<g id="node4" class="node">
<title>src/components/FreeBoard/EditBoardModal/EditBoardModalStyle.css</title>
<g id="a_node4"><a xlink:href="src/components/FreeBoard/EditBoardModal/EditBoardModalStyle.css" xlink:title="EditBoardModalStyle.css">
<path fill="#7986cb" stroke="black" d="M379.83,-203.88C379.83,-203.88 273.67,-203.88 273.67,-203.88 270.71,-203.88 267.75,-200.92 267.75,-197.96 267.75,-197.96 267.75,-192.04 267.75,-192.04 267.75,-189.08 270.71,-186.12 273.67,-186.12 273.67,-186.12 379.83,-186.12 379.83,-186.12 382.79,-186.12 385.75,-189.08 385.75,-192.04 385.75,-192.04 385.75,-197.96 385.75,-197.96 385.75,-200.92 382.79,-203.88 379.83,-203.88"/>
<text text-anchor="start" x="275.75" y="-191.32" font-family="Helvetica,sans-Serif" font-size="9.00">EditBoardModalStyle.css</text>
</a>
</g>
</g>
<!-- src/components/FreeBoard/EditBoardModal/EditBoardModal.js&#45;&gt;src/components/FreeBoard/EditBoardModal/EditBoardModalStyle.css -->
<g id="edge2" class="edge">
<title>src/components/FreeBoard/EditBoardModal/EditBoardModal.js&#45;&gt;src/components/FreeBoard/EditBoardModal/EditBoardModalStyle.css</title>
<path fill="none" stroke="#000000" stroke-width="2" stroke-opacity="0.200000" d="M223.67,-197.96C223.67,-197.96 258.52,-197.96 258.52,-197.96"/>
<polygon fill="#000000" fill-opacity="0.200000" stroke="#000000" stroke-width="2" stroke-opacity="0.200000" points="258.52,-200.06 264.52,-197.96 258.52,-195.86 258.52,-200.06"/>
</g>
<!-- src/components/FreeBoard/EvalList/EvalList.js -->
<g id="node5" class="node">
<title>src/components/FreeBoard/EvalList/EvalList.js</title>
<g id="a_node5"><a xlink:href="src/components/FreeBoard/EvalList/EvalList.js" xlink:title="EvalList.js">
<path fill="#7986cb" stroke="black" d="M200.46,-57.88C200.46,-57.88 155.04,-57.88 155.04,-57.88 152.08,-57.88 149.12,-54.92 149.12,-51.96 149.12,-51.96 149.12,-46.04 149.12,-46.04 149.12,-43.08 152.08,-40.12 155.04,-40.12 155.04,-40.12 200.46,-40.12 200.46,-40.12 203.42,-40.12 206.38,-43.08 206.38,-46.04 206.38,-46.04 206.38,-51.96 206.38,-51.96 206.38,-54.92 203.42,-57.88 200.46,-57.88"/>
<text text-anchor="start" x="157.12" y="-45.33" font-family="Helvetica,sans-Serif" font-size="9.00">EvalList.js</text>
</a>
</g>
</g>
<!-- src/components/FreeBoard/EvalList/EvalListStyle.css -->
<g id="node6" class="node">
<title>src/components/FreeBoard/EvalList/EvalListStyle.css</title>
<g id="a_node6"><a xlink:href="src/components/FreeBoard/EvalList/EvalListStyle.css" xlink:title="EvalListStyle.css">
<path fill="#7986cb" stroke="black" d="M362.96,-57.88C362.96,-57.88 290.54,-57.88 290.54,-57.88 287.58,-57.88 284.62,-54.92 284.62,-51.96 284.62,-51.96 284.62,-46.04 284.62,-46.04 284.62,-43.08 287.58,-40.12 290.54,-40.12 290.54,-40.12 362.96,-40.12 362.96,-40.12 365.92,-40.12 368.88,-43.08 368.88,-46.04 368.88,-46.04 368.88,-51.96 368.88,-51.96 368.88,-54.92 365.92,-57.88 362.96,-57.88"/>
<text text-anchor="start" x="292.62" y="-45.33" font-family="Helvetica,sans-Serif" font-size="9.00">EvalListStyle.css</text>
</a>
</g>
</g>
<!-- src/components/FreeBoard/EvalList/EvalList.js&#45;&gt;src/components/FreeBoard/EvalList/EvalListStyle.css -->
<g id="edge3" class="edge">
<title>src/components/FreeBoard/EvalList/EvalList.js&#45;&gt;src/components/FreeBoard/EvalList/EvalListStyle.css</title>
<path fill="none" stroke="#000000" stroke-width="2" stroke-opacity="0.200000" d="M206.83,-49C206.83,-49 275.2,-49 275.2,-49"/>
<polygon fill="#000000" fill-opacity="0.200000" stroke="#000000" stroke-width="2" stroke-opacity="0.200000" points="275.2,-51.1 281.2,-49 275.2,-46.9 275.2,-51.1"/>
</g>
<!-- src/components/FreeBoard/FreeBoard.css -->
<g id="node7" class="node">
<title>src/components/FreeBoard/FreeBoard.css</title>
<g id="a_node7"><a xlink:href="src/components/FreeBoard/FreeBoard.css" xlink:title="FreeBoard.css">
<path fill="#7986cb" stroke="black" d="M209.46,-169.88C209.46,-169.88 146.04,-169.88 146.04,-169.88 143.08,-169.88 140.12,-166.92 140.12,-163.96 140.12,-163.96 140.12,-158.04 140.12,-158.04 140.12,-155.08 143.08,-152.12 146.04,-152.12 146.04,-152.12 209.46,-152.12 209.46,-152.12 212.42,-152.12 215.38,-155.08 215.38,-158.04 215.38,-158.04 215.38,-163.96 215.38,-163.96 215.38,-166.92 212.42,-169.88 209.46,-169.88"/>
<text text-anchor="start" x="148.12" y="-157.32" font-family="Helvetica,sans-Serif" font-size="9.00">FreeBoard.css</text>
</a>
</g>
</g>
<!-- src/components/FreeBoard/FreeBoard.js -->
<g id="node8" class="node">
<title>src/components/FreeBoard/FreeBoard.js</title>
<g id="a_node8"><a xlink:href="src/components/FreeBoard/FreeBoard.js" xlink:title="FreeBoard.js">
<path fill="#7986cb" stroke="black" d="M94.58,-233.88C94.58,-233.88 37.92,-233.88 37.92,-233.88 34.96,-233.88 32,-230.92 32,-227.96 32,-227.96 32,-222.04 32,-222.04 32,-219.08 34.96,-216.12 37.92,-216.12 37.92,-216.12 94.58,-216.12 94.58,-216.12 97.54,-216.12 100.5,-219.08 100.5,-222.04 100.5,-222.04 100.5,-227.96 100.5,-227.96 100.5,-230.92 97.54,-233.88 94.58,-233.88"/>
<text text-anchor="start" x="40" y="-221.32" font-family="Helvetica,sans-Serif" font-size="9.00">FreeBoard.js</text>
</a>
</g>
</g>
<!-- src/components/FreeBoard/FreeBoard.js&#45;&gt;src/components/Chessboard/Chessboard.js -->
<g id="edge4" class="edge">
<title>src/components/FreeBoard/FreeBoard.js&#45;&gt;src/components/Chessboard/Chessboard.js</title>
<path fill="none" stroke="#000000" stroke-width="2" stroke-opacity="0.200000" d="M59.5,-234.07C59.5,-283.44 59.5,-517.46 59.5,-517.46 59.5,-517.46 279.74,-517.46 279.74,-517.46"/>
<polygon fill="#000000" fill-opacity="0.200000" stroke="#000000" stroke-width="2" stroke-opacity="0.200000" points="279.74,-519.56 285.74,-517.46 279.74,-515.36 279.74,-519.56"/>
</g>
<!-- src/components/FreeBoard/FreeBoard.js&#45;&gt;src/components/ComputerGame/MovesList/MovesList.js -->
<g id="edge5" class="edge">
<title>src/components/FreeBoard/FreeBoard.js&#45;&gt;src/components/ComputerGame/MovesList/MovesList.js</title>
<path fill="none" stroke="#000000" stroke-width="2" stroke-opacity="0.200000" d="M46.5,-234.1C46.5,-284.68 46.5,-529 46.5,-529 46.5,-529 135.29,-529 135.29,-529"/>
<polygon fill="#000000" fill-opacity="0.200000" stroke="#000000" stroke-width="2" stroke-opacity="0.200000" points="135.29,-531.1 141.29,-529 135.29,-526.9 135.29,-531.1"/>
</g>
<!-- src/components/FreeBoard/FreeBoard.js&#45;&gt;src/components/FreeBoard/EditBoardModal/EditBoardModal.js -->
<g id="edge6" class="edge">
<title>src/components/FreeBoard/FreeBoard.js&#45;&gt;src/components/FreeBoard/EditBoardModal/EditBoardModal.js</title>
<path fill="none" stroke="#000000" stroke-width="2" stroke-opacity="0.200000" d="M83.5,-215.84C83.5,-207.01 83.5,-195 83.5,-195 83.5,-195 123.01,-195 123.01,-195"/>
<polygon fill="#000000" fill-opacity="0.200000" stroke="#000000" stroke-width="2" stroke-opacity="0.200000" points="123.01,-197.1 129.01,-195 123.01,-192.9 123.01,-197.1"/>
</g>
<!-- src/components/FreeBoard/FreeBoard.js&#45;&gt;src/components/FreeBoard/EvalList/EvalList.js -->
<g id="edge7" class="edge">
<title>src/components/FreeBoard/FreeBoard.js&#45;&gt;src/components/FreeBoard/EvalList/EvalList.js</title>
<path fill="none" stroke="#000000" stroke-width="2" stroke-opacity="0.200000" d="M49.5,-216.03C49.5,-180.16 49.5,-49 49.5,-49 49.5,-49 139.65,-49 139.65,-49"/>
<polygon fill="#000000" fill-opacity="0.200000" stroke="#000000" stroke-width="2" stroke-opacity="0.200000" points="139.65,-51.1 145.65,-49 139.65,-46.9 139.65,-51.1"/>
</g>
<!-- src/components/FreeBoard/FreeBoard.js&#45;&gt;src/components/FreeBoard/FreeBoard.css -->
<g id="edge8" class="edge">
<title>src/components/FreeBoard/FreeBoard.js&#45;&gt;src/components/FreeBoard/FreeBoard.css</title>
<path fill="none" stroke="#000000" stroke-width="2" stroke-opacity="0.200000" d="M66.5,-215.83C66.5,-198.13 66.5,-161 66.5,-161 66.5,-161 130.78,-161 130.78,-161"/>
<polygon fill="#000000" fill-opacity="0.200000" stroke="#000000" stroke-width="2" stroke-opacity="0.200000" points="130.78,-163.1 136.78,-161 130.78,-158.9 130.78,-163.1"/>
</g>
<!-- src/components/FreeBoard/ReplayProgressOverlay/ReplayProgressOverlay.js -->
<g id="node9" class="node">
<title>src/components/FreeBoard/ReplayProgressOverlay/ReplayProgressOverlay.js</title>
<g id="a_node9"><a xlink:href="src/components/FreeBoard/ReplayProgressOverlay/ReplayProgressOverlay.js" xlink:title="ReplayProgressOverlay.js">
<path fill="#7986cb" stroke="black" d="M233.08,-117.88C233.08,-117.88 122.42,-117.88 122.42,-117.88 119.46,-117.88 116.5,-114.92 116.5,-111.96 116.5,-111.96 116.5,-106.04 116.5,-106.04 116.5,-103.08 119.46,-100.12 122.42,-100.12 122.42,-100.12 233.08,-100.12 233.08,-100.12 236.04,-100.12 239,-103.08 239,-106.04 239,-106.04 239,-111.96 239,-111.96 239,-114.92 236.04,-117.88 233.08,-117.88"/>
<text text-anchor="start" x="124.5" y="-105.33" font-family="Helvetica,sans-Serif" font-size="9.00">ReplayProgressOverlay.js</text>
</a>
</g>
</g>
<!-- src/components/FreeBoard/FreeBoard.js&#45;&gt;src/components/FreeBoard/ReplayProgressOverlay/ReplayProgressOverlay.js -->
<g id="edge9" class="edge">
<title>src/components/FreeBoard/FreeBoard.js&#45;&gt;src/components/FreeBoard/ReplayProgressOverlay/ReplayProgressOverlay.js</title>
<path fill="none" stroke="#000000" stroke-width="2" stroke-opacity="0.200000" d="M100.81,-225C113.35,-225 124.5,-225 124.5,-225 124.5,-225 124.5,-127.1 124.5,-127.1"/>
<polygon fill="#000000" fill-opacity="0.200000" stroke="#000000" stroke-width="2" stroke-opacity="0.200000" points="126.6,-127.1 124.5,-121.1 122.4,-127.1 126.6,-127.1"/>
</g>
<!-- src/components/FreeBoard/SettingsGear/SettingsGear.js -->
<g id="node10" class="node">
<title>src/components/FreeBoard/SettingsGear/SettingsGear.js</title>
<g id="a_node10"><a xlink:href="src/components/FreeBoard/SettingsGear/SettingsGear.js" xlink:title="SettingsGear.js">
<path fill="#7986cb" stroke="black" d="M210.96,-263.88C210.96,-263.88 144.54,-263.88 144.54,-263.88 141.58,-263.88 138.62,-260.92 138.62,-257.96 138.62,-257.96 138.62,-252.04 138.62,-252.04 138.62,-249.08 141.58,-246.12 144.54,-246.12 144.54,-246.12 210.96,-246.12 210.96,-246.12 213.92,-246.12 216.88,-249.08 216.88,-252.04 216.88,-252.04 216.88,-257.96 216.88,-257.96 216.88,-260.92 213.92,-263.88 210.96,-263.88"/>
<text text-anchor="start" x="146.62" y="-251.32" font-family="Helvetica,sans-Serif" font-size="9.00">SettingsGear.js</text>
</a>
</g>
</g>
<!-- src/components/FreeBoard/FreeBoard.js&#45;&gt;src/components/FreeBoard/SettingsGear/SettingsGear.js -->
<g id="edge10" class="edge">
<title>src/components/FreeBoard/FreeBoard.js&#45;&gt;src/components/FreeBoard/SettingsGear/SettingsGear.js</title>
<path fill="none" stroke="#000000" stroke-width="2" stroke-opacity="0.200000" d="M87.5,-234.16C87.5,-242.99 87.5,-255 87.5,-255 87.5,-255 129.17,-255 129.17,-255"/>
<polygon fill="#000000" fill-opacity="0.200000" stroke="#000000" stroke-width="2" stroke-opacity="0.200000" points="129.17,-257.1 135.17,-255 129.17,-252.9 129.17,-257.1"/>
</g>
<!-- src/components/FreeBoard/ToggleSwitch/ToggleSwitch.js -->
<g id="node11" class="node">
<title>src/components/FreeBoard/ToggleSwitch/ToggleSwitch.js</title>
<g id="a_node11"><a xlink:href="src/components/FreeBoard/ToggleSwitch/ToggleSwitch.js" xlink:title="ToggleSwitch.js">
<path fill="#7986cb" stroke="black" d="M211.71,-443.88C211.71,-443.88 143.79,-443.88 143.79,-443.88 140.83,-443.88 137.88,-440.92 137.88,-437.96 137.88,-437.96 137.88,-432.04 137.88,-432.04 137.88,-429.08 140.83,-426.12 143.79,-426.12 143.79,-426.12 211.71,-426.12 211.71,-426.12 214.67,-426.12 217.62,-429.08 217.62,-432.04 217.62,-432.04 217.62,-437.96 217.62,-437.96 217.62,-440.92 214.67,-443.88 211.71,-443.88"/>
<text text-anchor="start" x="145.88" y="-431.32" font-family="Helvetica,sans-Serif" font-size="9.00">ToggleSwitch.js</text>
</a>
</g>
</g>
<!-- src/components/FreeBoard/FreeBoard.js&#45;&gt;src/components/FreeBoard/ToggleSwitch/ToggleSwitch.js -->
<g id="edge11" class="edge">
<title>src/components/FreeBoard/FreeBoard.js&#45;&gt;src/components/FreeBoard/ToggleSwitch/ToggleSwitch.js</title>
<path fill="none" stroke="#000000" stroke-width="2" stroke-opacity="0.200000" d="M73.5,-234.29C73.5,-274.94 73.5,-435 73.5,-435 73.5,-435 128.44,-435 128.44,-435"/>
<polygon fill="#000000" fill-opacity="0.200000" stroke="#000000" stroke-width="2" stroke-opacity="0.200000" points="128.44,-437.1 134.44,-435 128.44,-432.9 128.44,-437.1"/>
</g>
<!-- src/components/FreeBoard/ReplayProgressOverlay/ReplayProgressOverlayStyle.css -->
<g id="node12" class="node">
<title>src/components/FreeBoard/ReplayProgressOverlay/ReplayProgressOverlayStyle.css</title>
<g id="a_node12"><a xlink:href="src/components/FreeBoard/ReplayProgressOverlay/ReplayProgressOverlayStyle.css" xlink:title="ReplayProgressOverlayStyle.css">
<path fill="#7986cb" stroke="black" d="M395.58,-117.88C395.58,-117.88 257.92,-117.88 257.92,-117.88 254.96,-117.88 252,-114.92 252,-111.96 252,-111.96 252,-106.04 252,-106.04 252,-103.08 254.96,-100.12 257.92,-100.12 257.92,-100.12 395.58,-100.12 395.58,-100.12 398.54,-100.12 401.5,-103.08 401.5,-106.04 401.5,-106.04 401.5,-111.96 401.5,-111.96 401.5,-114.92 398.54,-117.88 395.58,-117.88"/>
<text text-anchor="start" x="260" y="-105.33" font-family="Helvetica,sans-Serif" font-size="9.00">ReplayProgressOverlayStyle.css</text>
</a>
</g>
</g>
<!-- src/components/FreeBoard/ReplayProgressOverlay/ReplayProgressOverlay.js&#45;&gt;src/components/FreeBoard/ReplayProgressOverlay/ReplayProgressOverlayStyle.css -->
<g id="edge12" class="edge">
<title>src/components/FreeBoard/ReplayProgressOverlay/ReplayProgressOverlay.js&#45;&gt;src/components/FreeBoard/ReplayProgressOverlay/ReplayProgressOverlayStyle.css</title>
<path fill="none" stroke="#000000" stroke-width="2" stroke-opacity="0.200000" d="M239.21,-109C239.21,-109 242.83,-109 242.83,-109"/>
<polygon fill="#000000" fill-opacity="0.200000" stroke="#000000" stroke-width="2" stroke-opacity="0.200000" points="242.83,-111.1 248.83,-109 242.83,-106.9 242.83,-111.1"/>
</g>
<!-- src/components/FreeBoard/SettingsGear/SettingsGearStyle.css -->
<g id="node13" class="node">
<title>src/components/FreeBoard/SettingsGear/SettingsGearStyle.css</title>
<g id="a_node13"><a xlink:href="src/components/FreeBoard/SettingsGear/SettingsGearStyle.css" xlink:title="SettingsGearStyle.css">
<path fill="#7986cb" stroke="black" d="M373.46,-263.88C373.46,-263.88 280.04,-263.88 280.04,-263.88 277.08,-263.88 274.12,-260.92 274.12,-257.96 274.12,-257.96 274.12,-252.04 274.12,-252.04 274.12,-249.08 277.08,-246.12 280.04,-246.12 280.04,-246.12 373.46,-246.12 373.46,-246.12 376.42,-246.12 379.38,-249.08 379.38,-252.04 379.38,-252.04 379.38,-257.96 379.38,-257.96 379.38,-260.92 376.42,-263.88 373.46,-263.88"/>
<text text-anchor="start" x="282.12" y="-251.32" font-family="Helvetica,sans-Serif" font-size="9.00">SettingsGearStyle.css</text>
</a>
</g>
</g>
<!-- src/components/FreeBoard/SettingsGear/SettingsGear.js&#45;&gt;src/components/FreeBoard/SettingsGear/SettingsGearStyle.css -->
<g id="edge13" class="edge">
<title>src/components/FreeBoard/SettingsGear/SettingsGear.js&#45;&gt;src/components/FreeBoard/SettingsGear/SettingsGearStyle.css</title>
<path fill="none" stroke="#000000" stroke-width="2" stroke-opacity="0.200000" d="M217.29,-255C217.29,-255 264.83,-255 264.83,-255"/>
<polygon fill="#000000" fill-opacity="0.200000" stroke="#000000" stroke-width="2" stroke-opacity="0.200000" points="264.83,-257.1 270.83,-255 264.83,-252.9 264.83,-257.1"/>
</g>
<!-- src/components/FreeBoard/SettingsGear/SettingsModal/SettingsModal.js -->
<g id="node14" class="node">
<title>src/components/FreeBoard/SettingsGear/SettingsModal/SettingsModal.js</title>
<g id="a_node14"><a xlink:href="src/components/FreeBoard/SettingsGear/SettingsModal/SettingsModal.js" xlink:title="SettingsModal.js">
<path fill="#7986cb" stroke="black" d="M362.58,-297.88C362.58,-297.88 290.92,-297.88 290.92,-297.88 287.96,-297.88 285,-294.92 285,-291.96 285,-291.96 285,-286.04 285,-286.04 285,-283.08 287.96,-280.12 290.92,-280.12 290.92,-280.12 362.58,-280.12 362.58,-280.12 365.54,-280.12 368.5,-283.08 368.5,-286.04 368.5,-286.04 368.5,-291.96 368.5,-291.96 368.5,-294.92 365.54,-297.88 362.58,-297.88"/>
<text text-anchor="start" x="293" y="-285.32" font-family="Helvetica,sans-Serif" font-size="9.00">SettingsModal.js</text>
</a>
</g>
</g>
<!-- src/components/FreeBoard/SettingsGear/SettingsGear.js&#45;&gt;src/components/FreeBoard/SettingsGear/SettingsModal/SettingsModal.js -->
<g id="edge14" class="edge">
<title>src/components/FreeBoard/SettingsGear/SettingsGear.js&#45;&gt;src/components/FreeBoard/SettingsGear/SettingsModal/SettingsModal.js</title>
<path fill="none" stroke="#000000" stroke-width="2" stroke-opacity="0.200000" d="M178.5,-264.29C178.5,-274.36 178.5,-289 178.5,-289 178.5,-289 275.66,-289 275.66,-289"/>
<polygon fill="#000000" fill-opacity="0.200000" stroke="#000000" stroke-width="2" stroke-opacity="0.200000" points="275.66,-291.1 281.66,-289 275.66,-286.9 275.66,-291.1"/>
</g>
<!-- src/components/FreeBoard/ToggleSwitch/ToggleSwitchStyle.css -->
<g id="node18" class="node">
<title>src/components/FreeBoard/ToggleSwitch/ToggleSwitchStyle.css</title>
<g id="a_node18"><a xlink:href="src/components/FreeBoard/ToggleSwitch/ToggleSwitchStyle.css" xlink:title="ToggleSwitchStyle.css">
<path fill="#7986cb" stroke="black" d="M374.21,-443.88C374.21,-443.88 279.29,-443.88 279.29,-443.88 276.33,-443.88 273.38,-440.92 273.38,-437.96 273.38,-437.96 273.38,-432.04 273.38,-432.04 273.38,-429.08 276.33,-426.12 279.29,-426.12 279.29,-426.12 374.21,-426.12 374.21,-426.12 377.17,-426.12 380.12,-429.08 380.12,-432.04 380.12,-432.04 380.12,-437.96 380.12,-437.96 380.12,-440.92 377.17,-443.88 374.21,-443.88"/>
<text text-anchor="start" x="281.38" y="-431.32" font-family="Helvetica,sans-Serif" font-size="9.00">ToggleSwitchStyle.css</text>
</a>
</g>
</g>
<!-- src/components/FreeBoard/ToggleSwitch/ToggleSwitch.js&#45;&gt;src/components/FreeBoard/ToggleSwitch/ToggleSwitchStyle.css -->
<g id="edge18" class="edge">
<title>src/components/FreeBoard/ToggleSwitch/ToggleSwitch.js&#45;&gt;src/components/FreeBoard/ToggleSwitch/ToggleSwitchStyle.css</title>
<path fill="none" stroke="#000000" stroke-width="2" stroke-opacity="0.200000" d="M218.07,-435C218.07,-435 263.96,-435 263.96,-435"/>
<polygon fill="#000000" fill-opacity="0.200000" stroke="#000000" stroke-width="2" stroke-opacity="0.200000" points="263.96,-437.1 269.96,-435 263.96,-432.9 263.96,-437.1"/>
</g>
<!-- src/components/FreeBoard/SettingsGear/SettingsModal/SettingsModalStyle.css -->
<g id="node15" class="node">
<title>src/components/FreeBoard/SettingsGear/SettingsModal/SettingsModalStyle.css</title>
<g id="a_node15"><a xlink:href="src/components/FreeBoard/SettingsGear/SettingsModal/SettingsModalStyle.css" xlink:title="SettingsModalStyle.css">
<path fill="#7986cb" stroke="black" d="M522.08,-297.88C522.08,-297.88 423.42,-297.88 423.42,-297.88 420.46,-297.88 417.5,-294.92 417.5,-291.96 417.5,-291.96 417.5,-286.04 417.5,-286.04 417.5,-283.08 420.46,-280.12 423.42,-280.12 423.42,-280.12 522.08,-280.12 522.08,-280.12 525.04,-280.12 528,-283.08 528,-286.04 528,-286.04 528,-291.96 528,-291.96 528,-294.92 525.04,-297.88 522.08,-297.88"/>
<text text-anchor="start" x="425.5" y="-285.32" font-family="Helvetica,sans-Serif" font-size="9.00">SettingsModalStyle.css</text>
</a>
</g>
</g>
<!-- src/components/FreeBoard/SettingsGear/SettingsModal/SettingsModal.js&#45;&gt;src/components/FreeBoard/SettingsGear/SettingsModal/SettingsModalStyle.css -->
<g id="edge15" class="edge">
<title>src/components/FreeBoard/SettingsGear/SettingsModal/SettingsModal.js&#45;&gt;src/components/FreeBoard/SettingsGear/SettingsModal/SettingsModalStyle.css</title>
<path fill="none" stroke="#000000" stroke-width="2" stroke-opacity="0.200000" d="M368.98,-289C368.98,-289 408.02,-289 408.02,-289"/>
<polygon fill="#000000" fill-opacity="0.200000" stroke="#000000" stroke-width="2" stroke-opacity="0.200000" points="408.02,-291.1 414.02,-289 408.02,-286.9 408.02,-291.1"/>
</g>
<!-- src/components/FreeBoard/SettingsGear/SettingsModal/SliderSetting/SliderSetting.js -->
<g id="node16" class="node">
<title>src/components/FreeBoard/SettingsGear/SettingsModal/SliderSetting/SliderSetting.js</title>
<g id="a_node16"><a xlink:href="src/components/FreeBoard/SettingsGear/SettingsModal/SliderSetting/SliderSetting.js" xlink:title="SliderSetting.js">
<path fill="#7986cb" stroke="black" d="M505.58,-331.88C505.58,-331.88 439.92,-331.88 439.92,-331.88 436.96,-331.88 434,-328.92 434,-325.96 434,-325.96 434,-320.04 434,-320.04 434,-317.08 436.96,-314.12 439.92,-314.12 439.92,-314.12 505.58,-314.12 505.58,-314.12 508.54,-314.12 511.5,-317.08 511.5,-320.04 511.5,-320.04 511.5,-325.96 511.5,-325.96 511.5,-328.92 508.54,-331.88 505.58,-331.88"/>
<text text-anchor="start" x="442" y="-319.32" font-family="Helvetica,sans-Serif" font-size="9.00">SliderSetting.js</text>
</a>
</g>
</g>
<!-- src/components/FreeBoard/SettingsGear/SettingsModal/SettingsModal.js&#45;&gt;src/components/FreeBoard/SettingsGear/SettingsModal/SliderSetting/SliderSetting.js -->
<g id="edge16" class="edge">
<title>src/components/FreeBoard/SettingsGear/SettingsModal/SettingsModal.js&#45;&gt;src/components/FreeBoard/SettingsGear/SettingsModal/SliderSetting/SliderSetting.js</title>
<path fill="none" stroke="#000000" stroke-width="2" stroke-opacity="0.200000" d="M327.5,-298.29C327.5,-308.36 327.5,-323 327.5,-323 327.5,-323 424.83,-323 424.83,-323"/>
<polygon fill="#000000" fill-opacity="0.200000" stroke="#000000" stroke-width="2" stroke-opacity="0.200000" points="424.83,-325.1 430.83,-323 424.83,-320.9 424.83,-325.1"/>
</g>
<!-- src/components/FreeBoard/SettingsGear/SettingsModal/SliderSetting/SliderSettingStyle.css -->
<g id="node17" class="node">
<title>src/components/FreeBoard/SettingsGear/SettingsModal/SliderSetting/SliderSettingStyle.css</title>
<g id="a_node17"><a xlink:href="src/components/FreeBoard/SettingsGear/SettingsModal/SliderSetting/SliderSettingStyle.css" xlink:title="SliderSettingStyle.css">
<path fill="#7986cb" stroke="black" d="M639.58,-331.88C639.58,-331.88 546.92,-331.88 546.92,-331.88 543.96,-331.88 541,-328.92 541,-325.96 541,-325.96 541,-320.04 541,-320.04 541,-317.08 543.96,-314.12 546.92,-314.12 546.92,-314.12 639.58,-314.12 639.58,-314.12 642.54,-314.12 645.5,-317.08 645.5,-320.04 645.5,-320.04 645.5,-325.96 645.5,-325.96 645.5,-328.92 642.54,-331.88 639.58,-331.88"/>
<text text-anchor="start" x="549" y="-319.32" font-family="Helvetica,sans-Serif" font-size="9.00">SliderSettingStyle.css</text>
</a>
</g>
</g>
<!-- src/components/FreeBoard/SettingsGear/SettingsModal/SliderSetting/SliderSetting.js&#45;&gt;src/components/FreeBoard/SettingsGear/SettingsModal/SliderSetting/SliderSettingStyle.css -->
<g id="edge17" class="edge">
<title>src/components/FreeBoard/SettingsGear/SettingsModal/SliderSetting/SliderSetting.js&#45;&gt;src/components/FreeBoard/SettingsGear/SettingsModal/SliderSetting/SliderSettingStyle.css</title>
<path fill="none" stroke="#000000" stroke-width="2" stroke-opacity="0.200000" d="M511.87,-323C511.87,-323 531.74,-323 531.74,-323"/>
<polygon fill="#000000" fill-opacity="0.200000" stroke="#000000" stroke-width="2" stroke-opacity="0.200000" points="531.74,-325.1 537.74,-323 531.74,-320.9 531.74,-325.1"/>
</g>
</g>
</svg>
