<?xml version="1.0" encoding="UTF-8" standalone="no"?>
<svg
   viewBox="0 0 512 512"
   version="1.1"
   id="svg826"
   sodipodi:docname="1_best.svg"
   inkscape:version="1.1.1 (c3084ef, 2021-09-22)"
   xmlns:inkscape="http://www.inkscape.org/namespaces/inkscape"
   xmlns:sodipodi="http://sodipodi.sourceforge.net/DTD/sodipodi-0.dtd"
   xmlns="http://www.w3.org/2000/svg"
   xmlns:svg="http://www.w3.org/2000/svg">
  <defs
     id="defs830" />
  <sodipodi:namedview
     id="namedview828"
     pagecolor="#ffffff"
     bordercolor="#666666"
     borderopacity="1.0"
     inkscape:pageshadow="2"
     inkscape:pageopacity="0.0"
     inkscape:pagecheckerboard="0"
     showgrid="false"
     inkscape:zoom="1.0722656"
     inkscape:cx="256.00001"
     inkscape:cy="256.00001"
     inkscape:window-width="1440"
     inkscape:window-height="771"
     inkscape:window-x="0"
     inkscape:window-y="25"
     inkscape:window-maximized="1"
     inkscape:current-layer="svg826" />
  <!--! Font Awesome Pro 6.0.0 by @fontawesome - https://fontawesome.com License - https://fontawesome.com/license (Commercial License) Copyright 2022 Fonticons, Inc. -->
  <path
     id="path824"
     d="M 256 0 C 114.6 0 0 114.6 0 256 C 0 397.4 114.6 512 256 512 C 397.4 512 512 397.4 512 256 C 512 114.6 397.4 0 256 0 z M 255.97461 119.89062 C 262.51343 119.89062 268.46762 123.60861 271.28516 129.46484 L 305.4668 199.8125 L 381.85938 211.08203 C 388.18556 211.98576 393.50332 216.45092 395.52344 222.56445 C 397.54357 228.73114 395.89413 235.4301 391.32227 240.00195 L 335.92969 294.33203 L 349.00586 372.26758 C 350.06908 378.64692 347.46456 385.1318 342.14844 388.90625 C 336.88549 392.68069 329.92261 393.15909 324.23438 390.12891 L 255.97461 353.71484 L 187.76953 390.12891 C 182.02813 393.15909 175.06374 392.68069 169.80078 388.90625 C 164.53783 385.1318 161.87971 378.64692 162.99609 372.26758 L 176.07422 294.33203 L 120.66992 240.00195 C 116.09275 235.4301 114.46512 228.73114 116.47461 222.56445 C 118.47878 216.45092 123.77832 211.98576 130.15234 211.08203 L 206.48242 199.8125 L 240.7168 129.46484 C 243.53434 123.60861 249.48896 119.89063 255.97461 119.89062 z "
     style="fill:#4fb4bf;fill-opacity:1" />
</svg>
