<?xml version="1.0" encoding="UTF-8" standalone="no"?>
<svg
   viewBox="0 0 640 512"
   version="1.1"
   id="svg826"
   sodipodi:docname="board-slash.svg"
   width="640"
   height="512"
   inkscape:version="1.1.1 (c3084ef, 2021-09-22)"
   xmlns:inkscape="http://www.inkscape.org/namespaces/inkscape"
   xmlns:sodipodi="http://sodipodi.sourceforge.net/DTD/sodipodi-0.dtd"
   xmlns="http://www.w3.org/2000/svg"
   xmlns:svg="http://www.w3.org/2000/svg">
  <defs
     id="defs830" />
  <sodipodi:namedview
     id="namedview828"
     pagecolor="#ffffff"
     bordercolor="#666666"
     borderopacity="1.0"
     inkscape:pageshadow="2"
     inkscape:pageopacity="0.0"
     inkscape:pagecheckerboard="0"
     showgrid="false"
     inkscape:zoom="0.68176606"
     inkscape:cx="254.48612"
     inkscape:cy="340.29268"
     inkscape:window-width="1440"
     inkscape:window-height="900"
     inkscape:window-x="0"
     inkscape:window-y="0"
     inkscape:window-maximized="1"
     inkscape:current-layer="svg826" />
  <!--! Font Awesome Pro 6.1.1 by @fontawesome - https://fontawesome.com License - https://fontawesome.com/license (Commercial License) Copyright 2022 Fonticons, Inc. -->
  <path
     id="path824"
     d="M 160 32 C 144.52691 32 130.33845 37.489543 119.27344 46.626953 L 181.79297 96 L 224 96 L 224 129.33398 L 262.83203 160 L 288 160 L 288 96 L 352 96 L 352 160 L 416 160 L 416 96 L 480 96 L 480 160 L 416 160 L 416 224 L 480 224 L 480 288 L 424.91016 288 L 544 382.05078 L 544 96 C 544 60.649997 515.3 32 480 32 L 160 32 z M 416 224 L 352 224 L 352 230.41992 L 416 280.96289 L 416 224 z M 352 224 L 352 160 L 288 160 L 288 179.87695 L 343.87109 224 L 352 224 z M 96 131.13477 L 96 416 C 96 451.35 124.65 480 160 480 L 480 480 C 495.34033 480 509.40855 474.5925 520.43164 465.5957 L 457.49414 416 L 416 416 L 416 383.30273 L 376.27734 352 L 352 352 L 352 416 L 288 416 L 288 352 L 224 352 L 224 416 L 160 416 L 160 352 L 224 352 L 224 288 L 160 288 L 160 224 L 213.8457 224 L 96 131.13477 z M 224 288 L 288 288 L 288 282.43555 L 224 232.00195 L 224 288 z M 288 288 L 288 352 L 352 352 L 352 332.86914 L 295.0625 288 L 288 288 z " />
  <path
     id="path912"
     style="stroke-width:0.976537"
     d="m 622.02302,465.43292 -126.69806,-99.91913 -0.0496,0.0629 L 147.21724,90.70129 45.205362,10.698408 C 40.918184,7.3288322 35.826655,5.6802696 30.787756,5.666035 23.834848,5.646378 16.920642,8.7118449 12.295722,14.588304 4.2722443,24.760861 6.0039165,39.501897 16.174398,47.508994 L 592.12488,501.37199 c 10.23075,8.03976 24.95301,6.25068 32.91117,-3.88869 8.93421,-9.2626 7.12031,-24.01408 -3.01301,-32.05038 z" />
</svg>
