<?xml version="1.0" encoding="UTF-8" standalone="no"?>
<svg
   viewBox="0 0 640 512"
   version="1.1"
   id="svg826"
   sodipodi:docname="board.svg"
   width="640"
   height="512"
   inkscape:version="1.1.1 (c3084ef, 2021-09-22)"
   xmlns:inkscape="http://www.inkscape.org/namespaces/inkscape"
   xmlns:sodipodi="http://sodipodi.sourceforge.net/DTD/sodipodi-0.dtd"
   xmlns="http://www.w3.org/2000/svg"
   xmlns:svg="http://www.w3.org/2000/svg">
  <defs
     id="defs830" />
  <sodipodi:namedview
     id="namedview828"
     pagecolor="#ffffff"
     bordercolor="#666666"
     borderopacity="1.0"
     inkscape:pageshadow="2"
     inkscape:pageopacity="0.0"
     inkscape:pagecheckerboard="0"
     showgrid="false"
     inkscape:zoom="0.79078851"
     inkscape:cx="235.84055"
     inkscape:cy="264.29317"
     inkscape:window-width="1440"
     inkscape:window-height="900"
     inkscape:window-x="0"
     inkscape:window-y="0"
     inkscape:window-maximized="1"
     inkscape:current-layer="svg826" />
  <!--! Font Awesome Pro 6.1.1 by @fontawesome - https://fontawesome.com License - https://fontawesome.com/license (Commercial License) Copyright 2022 Fonticons, Inc. -->
  <path
     d="m 288,224 h -64 v 64 h 64 z M 480,32 H 160 C 124.65,32 96.000001,60.65 96.000001,96.000003 V 416 c 0,35.35 28.649999,64 63.999999,64 h 320 c 35.35,0 64,-28.65 64,-64 V 96.000003 C 544,60.65 515.3,32 480,32 Z m 0,128 h -64 v 64 h 64 v 64 h -64 v 64 h 64 v 64 h -64 v -64 h -64 v 64 h -64 v -64 h -64 v 64 h -64 v -64 h 64 v -64 h -64 v -64 h 64 V 160 H 160 V 96.000003 h 64 V 160 h 64 V 96.000003 h 64 V 160 h 64 V 96.000003 h 64 z M 288,288 v 64 h 64 v -64 z m 64,-64 v -64 h -64 v 64 z m 0,64 h 64 v -64 h -64 z"
     id="path824" />
</svg>
