<?xml version="1.0" encoding="UTF-8" standalone="no"?>
<svg
   viewBox="0 0 448 512"
   version="1.1"
   id="svg826"
   sodipodi:docname="edit_board.svg"
   inkscape:version="1.1.1 (c3084ef, 2021-09-22)"
   xmlns:inkscape="http://www.inkscape.org/namespaces/inkscape"
   xmlns:sodipodi="http://sodipodi.sourceforge.net/DTD/sodipodi-0.dtd"
   xmlns="http://www.w3.org/2000/svg"
   xmlns:svg="http://www.w3.org/2000/svg">
  <defs
     id="defs830" />
  <sodipodi:namedview
     id="namedview828"
     pagecolor="#ffffff"
     bordercolor="#666666"
     borderopacity="1.0"
     inkscape:pageshadow="2"
     inkscape:pageopacity="0.0"
     inkscape:pagecheckerboard="0"
     showgrid="false"
     inkscape:zoom="0.98275115"
     inkscape:cx="216.22971"
     inkscape:cy="289.49343"
     inkscape:window-width="1440"
     inkscape:window-height="771"
     inkscape:window-x="0"
     inkscape:window-y="25"
     inkscape:window-maximized="0"
     inkscape:current-layer="svg826" />
  <!--! Font Awesome Pro 6.0.0 by @fontawesome - https://fontawesome.com License - https://fontawesome.com/license (Commercial License) Copyright 2022 Fonticons, Inc. -->
  <path
     id="path824"
     style="stroke-width:0.886615"
     d="M 63.826172 75.279297 C 32.59362 75.279297 7.2792969 100.76917 7.2792969 132.2207 L 7.2792969 416.92969 C 7.2792969 448.38121 32.59362 473.87305 63.826172 473.87305 L 346.55273 473.87305 C 377.78528 473.87305 403.09766 448.38122 403.09766 416.92969 L 403.09766 165.4707 L 319.38086 246.10547 L 346.55273 246.10547 L 346.55273 303.04688 L 290.00781 303.04688 L 290.00781 359.98828 L 346.55273 359.98828 L 346.55273 416.92969 L 290.00781 416.92969 L 290.00781 359.98828 L 233.46094 359.98828 L 233.46094 416.92969 L 176.91602 416.92969 L 176.91602 359.98828 L 146.50781 359.98828 L 142.78516 361.14453 C 137.75307 362.50637 133.08819 362.11825 129.03516 359.98828 L 120.37109 359.98828 L 120.37109 416.92969 L 63.826172 416.92969 L 63.826172 359.98828 L 120.37109 359.98828 L 120.37109 351.59375 C 117.13929 346.51165 116.42366 339.67532 118.5918 333.46875 L 120.37109 328.48242 L 120.37109 303.04688 L 63.826172 303.04688 L 63.826172 246.10547 L 120.37109 246.10547 L 120.37109 189.16211 L 63.826172 189.16211 L 63.826172 132.2207 L 120.37109 132.2207 L 120.37109 189.16211 L 176.91602 189.16211 L 176.91602 132.2207 L 233.46094 132.2207 L 233.46094 160.14062 L 321.48242 75.279297 L 63.826172 75.279297 z M 176.91602 189.16211 L 176.91602 219.11719 L 179.49805 216.58203 C 182.11733 211.13097 185.60905 206.20559 189.94336 202.0957 L 203.35938 189.16211 L 176.91602 189.16211 z M 120.37109 246.10547 L 120.37109 303.04688 L 129.44727 303.04688 L 146.08984 256.40234 C 147.40736 252.74992 149.11105 249.29908 151.1582 246.10547 L 120.37109 246.10547 z M 176.91602 359.98828 L 233.46094 359.98828 L 233.46094 328.9707 C 228.72712 333.0363 223.30061 336.1106 217.39648 337.96875 L 176.91602 350.54297 L 176.91602 359.98828 z M 290.00781 303.04688 L 290.00781 274.39648 L 270.79688 292.90039 C 269.93495 293.74469 268.99719 294.48577 268.08008 295.25586 L 260.13867 303.04688 L 290.00781 303.04688 z " />
  <path
     id="path912-8-3"
     d="m 348.81353,78.16669 c -10.12064,-0.212431 -20.33025,3.59334 -28.24214,11.468593 l -21.74834,21.645747 67.66329,73.4596 21.67859,-21.67595 c 15.82372,-15.74795 16.39336,-41.80761 1.27227,-58.20507 L 376.52721,90.809747 C 368.96672,82.609743 358.93417,78.379113 348.81353,78.16669 Z m -66.32049,49.40246 -120.88689,120.51481 c -4.47832,4.39108 -7.84842,9.83504 -9.95998,15.89337 l -22.3387,64.82251 c -2.11637,6.2788 -0.71411,13.2926 3.71753,17.50303 4.47499,5.46133 10.5153,7.20653 17.27206,5.28965 l 63.2121,-20.438 c 5.90893,-1.93469 11.28187,-5.20382 15.69111,-9.66987 L 350.15659,201.01582 Z"
     style="stroke-width:0.720737" />
</svg>
