<?xml version="1.0" encoding="UTF-8" standalone="no"?>
<svg
   viewBox="0 0 550 512"
   version="1.1"
   id="svg914"
   sodipodi:docname="endVote.svg"
   width="550"
   height="512"
   inkscape:version="1.1.1 (c3084ef, 2021-09-22)"
   xmlns:inkscape="http://www.inkscape.org/namespaces/inkscape"
   xmlns:sodipodi="http://sodipodi.sourceforge.net/DTD/sodipodi-0.dtd"
   xmlns="http://www.w3.org/2000/svg"
   xmlns:svg="http://www.w3.org/2000/svg">
  <defs
     id="defs918" />
  <sodipodi:namedview
     id="namedview916"
     pagecolor="#ffffff"
     bordercolor="#666666"
     borderopacity="1.0"
     inkscape:pageshadow="2"
     inkscape:pageopacity="0.0"
     inkscape:pagecheckerboard="0"
     showgrid="false"
     inkscape:zoom="0.70526292"
     inkscape:cx="141.08214"
     inkscape:cy="231.11948"
     inkscape:window-width="1440"
     inkscape:window-height="900"
     inkscape:window-x="0"
     inkscape:window-y="0"
     inkscape:window-maximized="0"
     inkscape:current-layer="svg914" />
  <!--! Font Awesome Pro 6.1.1 by @fontawesome - https://fontawesome.com License - https://fontawesome.com/license (Commercial License) Copyright 2022 Fonticons, Inc. -->
  <path
     id="path912"
     d="M 118.12138,14.990065 239.32614,131.14328 c 6.3729,-7.1041 15.53013,-11.65296 25.84655,-11.65296 19.26723,0 34.83342,15.56619 34.83342,34.83342 v 34.97163 L 509.00664,389.5854 V 84.656911 c 0,-38.480047 -31.24122,-69.666847 -69.66685,-69.666847 z M 21.640643,78.682672 c -0.167889,1.97323 -0.301901,3.957499 -0.301901,5.974239 V 432.99111 c 0,38.42562 31.186799,69.66685 69.666849,69.66685 H 439.33979 c 7.40347,0 14.53073,-1.18202 21.22875,-3.32941 L 300.00611,345.45472 v 17.86956 c 0,19.26723 -15.56619,34.83342 -34.83342,34.83342 -19.26723,0 -34.83342,-15.56619 -34.83342,-34.83342 V 278.68994 L 189.87816,239.9148 c 3.53102,5.4492 5.62769,11.91921 5.62769,18.90921 v 104.50027 c 0,19.26723 -15.56619,34.83342 -34.83343,34.83342 -19.26723,0 -34.83342,-15.56619 -34.83342,-34.83342 V 258.82401 c 0,-19.26723 15.56619,-34.83342 34.83342,-34.83342 6.57112,0 12.64287,1.92014 17.88232,5.07066 z"
     style="stroke-width:1.08855" />
  <path
     d="M 38.601726,21.217125 C 50.033501,9.2783893 65.729931,5.754012 73.676251,13.34482 L 524.16608,444.1132 c 7.89904,7.61945 5.13559,23.45964 -6.30835,35.3667 -11.44396,11.90705 -27.18241,15.50896 -35.08149,7.88951 L 32.279182,56.57913 C 24.34187,48.984237 27.170337,33.15789 38.601726,21.217125 Z"
     id="path824"
     style="stroke-width:1.01654" />
</svg>
