<?xml version="1.0" encoding="UTF-8" standalone="no"?>
<svg
   viewBox="0 0 448 512"
   version="1.1"
   id="svg826"
   sodipodi:docname="load_board.svg"
   inkscape:version="1.1.1 (c3084ef, 2021-09-22)"
   xmlns:inkscape="http://www.inkscape.org/namespaces/inkscape"
   xmlns:sodipodi="http://sodipodi.sourceforge.net/DTD/sodipodi-0.dtd"
   xmlns="http://www.w3.org/2000/svg"
   xmlns:svg="http://www.w3.org/2000/svg">
  <defs
     id="defs830" />
  <sodipodi:namedview
     id="namedview828"
     pagecolor="#ffffff"
     bordercolor="#666666"
     borderopacity="1.0"
     inkscape:pageshadow="2"
     inkscape:pageopacity="0.0"
     inkscape:pagecheckerboard="0"
     showgrid="false"
     inkscape:zoom="1.0310485"
     inkscape:cx="24.732106"
     inkscape:cy="257.50486"
     inkscape:window-width="1440"
     inkscape:window-height="771"
     inkscape:window-x="0"
     inkscape:window-y="25"
     inkscape:window-maximized="0"
     inkscape:current-layer="svg826" />
  <!--! Font Awesome Pro 6.0.0 by @fontawesome - https://fontawesome.com License - https://fontawesome.com/license (Commercial License) Copyright 2022 Fonticons, Inc. -->
  <path
     id="path922-7"
     d="m 166.17129,143.3239 c -2.56493,-0.0769 -5.16358,0.37113 -7.614,1.37249 -6.53664,2.68163 -10.77418,8.80604 -10.77418,15.57187 l -0.0682,50.84962 H 52.66903 c -13.135662,0 -23.777462,10.12049 -23.777462,22.59985 v 45.19965 c 0,12.47936 10.649227,22.59984 23.777462,22.59984 h 95.04594 l 0.0682,50.21372 c 0,6.76442 4.23756,12.88952 10.7742,15.57325 6.53662,2.67032 14.13066,1.40138 19.30622,-3.24431 l 107.00062,-96.04929 c 7.12845,-5.72907 7.12846,-17.59376 0,-24.0206 l -107.0007,-96.04928 c -3.23705,-2.90356 -7.41733,-4.48862 -11.69222,-4.61681 z"
     style="stroke-width:0.72417" />
  <path
     id="path931"
     d="m 132.18055,72.29207 c -28.99141,0 -52.487982,23.496573 -52.487982,52.48798 v 71.92109 h 52.487982 v -19.43311 -52.48798 h 52.48798 v 8.89963 l 46.18487,43.58835 h 6.30311 v -52.48798 h 52.48798 v 52.48798 h 52.48798 v -52.48798 h 52.48798 v 52.48798 h -52.48798 v 52.48798 h 52.48798 v 52.48798 h -52.48798 v 52.48798 h 52.48798 v 52.48798 h -52.48798 v -52.48798 h -52.48798 v 52.48798 h -52.48798 v -52.48798 h -6.34316 l -46.14482,43.5499 v 8.93808 H 132.18055 V 345.88214 334.73197 315.29886 H 79.692568 v 71.92109 c 0,28.99141 23.496572,52.48798 52.487982,52.48798 h 262.4399 c 28.99142,0 52.48798,-23.49657 52.48798,-52.48798 v -262.4399 c 0,-28.991407 -23.53758,-52.48798 -52.48798,-52.48798 z m 104.97596,262.4399 h 52.48798 v -52.48798 h -3.21803 l -49.26995,46.50043 z m 52.48798,-52.48798 h 52.48798 v -52.48798 h -52.48798 v 2.99858 l 9.90556,9.34814 c 7.83412,7.42609 7.8341,21.13628 0,27.7561 l -9.90556,9.34814 z m 0,-52.48798 v -52.48798 h -52.48798 v 5.94911 l 49.31159,46.53887 z"
     style="stroke-width:0.820125" />
</svg>
