<?xml version="1.0" encoding="UTF-8" standalone="no"?>
<svg
   viewBox="0 0 30 30"
   version="1.1"
   id="svg826"
   sodipodi:docname="magnifying-glass-solid.svg"
   width="30"
   height="30"
   inkscape:version="1.1.1 (c3084ef, 2021-09-22)"
   xmlns:inkscape="http://www.inkscape.org/namespaces/inkscape"
   xmlns:sodipodi="http://sodipodi.sourceforge.net/DTD/sodipodi-0.dtd"
   xmlns="http://www.w3.org/2000/svg"
   xmlns:svg="http://www.w3.org/2000/svg">
  <defs
     id="defs830" />
  <sodipodi:namedview
     id="namedview828"
     pagecolor="#ffffff"
     bordercolor="#666666"
     borderopacity="1.0"
     inkscape:pageshadow="2"
     inkscape:pageopacity="0.0"
     inkscape:pagecheckerboard="0"
     showgrid="false"
     inkscape:zoom="13.028677"
     inkscape:cx="25.443873"
     inkscape:cy="22.872622"
     inkscape:window-width="1440"
     inkscape:window-height="900"
     inkscape:window-x="0"
     inkscape:window-y="0"
     inkscape:window-maximized="0"
     inkscape:current-layer="svg826"
     width="50px" />
  <!--! Font Awesome Pro 6.0.0 by @fontawesome - https://fontawesome.com License - https://fontawesome.com/license (Commercial License) Copyright 2022 Fonticons, Inc. -->
  <path
     d="m 27.205577,24.525072 -6.085709,-6.097681 c 1.383901,-2.058539 2.066699,-4.630568 1.70115,-7.371213 C 22.197704,6.3945343 18.384603,2.6009315 13.727537,2.0101646 6.8034557,1.1322922 0.98110613,6.9660958 1.8573057,13.903799 c 0.5897594,4.668266 4.3764218,8.491924 9.0294213,9.113408 2.735263,0.366219 5.302751,-0.317669 7.356741,-1.704496 l 6.085708,6.09768 c 0.794141,0.795703 2.081953,0.795703 2.876094,0 0.79343,-0.796722 0.79343,-2.090635 2.03e-4,-2.885319 z M 5.7912046,12.518194 c 0,-3.5954405 2.9193096,-6.520493 6.5076914,-6.520493 3.588381,0 6.507691,2.9250525 6.507691,6.520493 0,3.595441 -2.91931,6.520494 -6.507691,6.520494 -3.5883818,0 -6.5076914,-2.924035 -6.5076914,-6.520494 z"
     id="path824"
     style="fill:#ffffff;stroke-width:0.0508913" />
</svg>
