<?xml version="1.0" encoding="UTF-8" standalone="no"?>
<svg
   viewBox="0 0 640 512"
   version="1.1"
   id="svg826"
   sodipodi:docname="microphone-solid.svg"
   width="640"
   height="512"
   inkscape:version="1.1.1 (c3084ef, 2021-09-22)"
   xmlns:inkscape="http://www.inkscape.org/namespaces/inkscape"
   xmlns:sodipodi="http://sodipodi.sourceforge.net/DTD/sodipodi-0.dtd"
   xmlns="http://www.w3.org/2000/svg"
   xmlns:svg="http://www.w3.org/2000/svg">
  <defs
     id="defs830" />
  <sodipodi:namedview
     id="namedview828"
     pagecolor="#ffffff"
     bordercolor="#666666"
     borderopacity="1.0"
     inkscape:pageshadow="2"
     inkscape:pageopacity="0.0"
     inkscape:pagecheckerboard="0"
     showgrid="false"
     inkscape:zoom="0.53271631"
     inkscape:cx="14.078788"
     inkscape:cy="309.73333"
     inkscape:window-width="1440"
     inkscape:window-height="900"
     inkscape:window-x="0"
     inkscape:window-y="0"
     inkscape:window-maximized="0"
     inkscape:current-layer="svg826" />
  <!--! Font Awesome Pro 6.1.0 by @fontawesome - https://fontawesome.com License - https://fontawesome.com/license (Commercial License) Copyright 2022 Fonticons, Inc. -->
  <path
     d="m 320,349.75 c 51.7871,0 93.75,-41.96289 93.75,-93.75 V 99.749999 C 413.75,47.96289 371.7871,6 320,6 268.21289,6 226.25,47.96289 226.25,99.749999 V 256 c 0,51.75782 41.11328,93.75 93.75,93.75 z M 468.43749,193.49999 c -12.98829,0 -23.4375,10.44923 -23.4375,22.5586 V 256 c 0,71.61133 -60.51757,129.29687 -133.10546,124.70701 C 247.36328,376.63574 195,315.67772 195,251.01953 v -34.96094 c 0,-12.10937 -10.49805,-22.5586 -23.4375,-22.5586 -12.93945,0 -23.4375,10.44923 -23.4375,22.5586 v 31.39648 c 0,87.55859 62.4707,165.62501 148.43749,177.44141 v 34.22851 H 257.5 c -17.76368,0 -32.07031,14.82423 -31.21094,32.7832 C 226.66992,499.9453 233.86719,506 241.875,506 h 156.25 c 8.02929,0 15.20507,-6.07034 15.58594,-14.09181 0.82032,-17.93944 -13.43751,-32.7832 -31.21095,-32.7832 H 343.4375 V 426.14648 C 427.12892,414.69139 491.875,342.81641 491.875,256 v -39.94141 c 0,-12.10937 -10.44922,-22.5586 -23.43751,-22.5586 z"
     id="path824"
     style="stroke-width:0.976561" />
</svg>
