<?xml version="1.0" encoding="UTF-8" standalone="no"?>
<svg
   viewBox="0 0 550 512"
   version="1.1"
   id="svg826"
   sodipodi:docname="startVote.svg"
   width="550"
   height="512"
   inkscape:version="1.1.1 (c3084ef, 2021-09-22)"
   xmlns:inkscape="http://www.inkscape.org/namespaces/inkscape"
   xmlns:sodipodi="http://sodipodi.sourceforge.net/DTD/sodipodi-0.dtd"
   xmlns="http://www.w3.org/2000/svg"
   xmlns:svg="http://www.w3.org/2000/svg">
  <defs
     id="defs830" />
  <sodipodi:namedview
     id="namedview828"
     pagecolor="#ffffff"
     bordercolor="#666666"
     borderopacity="1.0"
     inkscape:pageshadow="2"
     inkscape:pageopacity="0.0"
     inkscape:pagecheckerboard="0"
     showgrid="false"
     inkscape:zoom="0.58125989"
     inkscape:cx="57.633428"
     inkscape:cy="301.93035"
     inkscape:window-width="1440"
     inkscape:window-height="771"
     inkscape:window-x="0"
     inkscape:window-y="25"
     inkscape:window-maximized="1"
     inkscape:current-layer="svg826" />
  <!--! Font Awesome Pro 6.1.1 by @fontawesome - https://fontawesome.com License - https://fontawesome.com/license (Commercial License) Copyright 2022 Fonticons, Inc. -->
  <path
     d="m 447.28856,14.795987 c 38.01118,0 68.91545,30.850423 68.91545,68.915427 V 428.28856 c 0,38.01118 -30.90427,68.91545 -68.91545,68.91545 H 102.71142 c -38.065009,0 -68.915432,-30.90426 -68.915432,-68.91544 V 83.711414 c 0,-38.065004 30.850423,-68.915427 68.915432,-68.915427 z M 171.62685,221.54227 c -19.05942,0 -34.45772,15.39829 -34.45772,34.45771 v 103.37315 c 0,19.05943 15.3983,34.45772 34.45772,34.45772 19.05943,0 34.45772,-15.39829 34.45772,-34.45772 V 255.99998 c 0,-19.05942 -15.39829,-34.45771 -34.45772,-34.45771 z m 68.91543,137.83086 c 0,19.05943 15.39829,34.45772 34.45771,34.45772 19.05944,0 34.45773,-15.39829 34.45773,-34.45772 V 152.62684 c 0,-19.05942 -15.39829,-34.45771 -34.45773,-34.45771 -19.05942,0 -34.45771,15.39829 -34.45771,34.45771 z m 137.83086,-68.91542 c -19.05942,0 -34.45771,15.39829 -34.45771,34.45771 v 34.45771 c 0,19.05943 15.39829,34.45772 34.45771,34.45772 19.05943,0 34.45772,-15.39829 34.45772,-34.45772 v -34.45771 c 0,-19.05942 -15.39829,-34.45771 -34.45772,-34.45771 z"
     id="path824"
     style="stroke-width:1.07681" />
</svg>
