<?xml version="1.0" encoding="UTF-8" standalone="no"?>
<svg
   viewBox="0 0 384 512"
   version="1.1"
   id="svg826"
   sodipodi:docname="white_r.svg"
   inkscape:version="1.1.1 (c3084ef, 2021-09-22)"
   xmlns:inkscape="http://www.inkscape.org/namespaces/inkscape"
   xmlns:sodipodi="http://sodipodi.sourceforge.net/DTD/sodipodi-0.dtd"
   xmlns="http://www.w3.org/2000/svg"
   xmlns:svg="http://www.w3.org/2000/svg">
  <defs
     id="defs830" />
  <sodipodi:namedview
     id="namedview828"
     pagecolor="#ffffff"
     bordercolor="#666666"
     borderopacity="1.0"
     inkscape:pageshadow="2"
     inkscape:pageopacity="0.0"
     inkscape:pagecheckerboard="0"
     showgrid="false"
     inkscape:zoom="1.0722656"
     inkscape:cx="191.65027"
     inkscape:cy="256"
     inkscape:window-width="1440"
     inkscape:window-height="771"
     inkscape:window-x="0"
     inkscape:window-y="25"
     inkscape:window-maximized="1"
     inkscape:current-layer="svg826" />
  <!--! Font Awesome Pro 6.0.0 by @fontawesome - https://fontawesome.com License - https://fontawesome.com/license (Commercial License) Copyright 2022 Fonticons, Inc. -->
  <path
     d="M368 32h-56c-8.875 0-16 7.125-16 16V96h-48V48c0-8.875-7.125-16-16-16h-80c-8.875 0-16 7.125-16 16V96H88.12V48c0-8.875-7.25-16-16-16H16C7.125 32 0 39.12 0 48V224l64 32c0 48.38-1.5 95-13.25 160h282.5C321.5 351 320 303.8 320 256l64-32V48C384 39.12 376.9 32 368 32zM224 320H160V256c0-17.62 14.38-32 32-32s32 14.38 32 32V320zM336 448H47.1C21.49 448 0 469.5 0 495.1C0 504.8 7.163 512 16 512h352c8.837 0 16-7.163 16-16C384 469.5 362.5 448 336 448z"
     id="path824"
     style="fill:#ffffff" />
</svg>
