<?xml version="1.0" encoding="UTF-8" standalone="no"?>
<svg
   viewBox="0 0 448 512"
   version="1.1"
   id="svg826"
   sodipodi:docname="white_K.svg"
   inkscape:version="1.1.1 (c3084ef, 2021-09-22)"
   xmlns:inkscape="http://www.inkscape.org/namespaces/inkscape"
   xmlns:sodipodi="http://sodipodi.sourceforge.net/DTD/sodipodi-0.dtd"
   xmlns="http://www.w3.org/2000/svg"
   xmlns:svg="http://www.w3.org/2000/svg">
  <defs
     id="defs830" />
  <sodipodi:namedview
     id="namedview828"
     pagecolor="#ffffff"
     bordercolor="#666666"
     borderopacity="1.0"
     inkscape:pageshadow="2"
     inkscape:pageopacity="0.0"
     inkscape:pagecheckerboard="0"
     showgrid="false"
     inkscape:zoom="1.0722656"
     inkscape:cx="224.29144"
     inkscape:cy="256"
     inkscape:window-width="1440"
     inkscape:window-height="771"
     inkscape:window-x="0"
     inkscape:window-y="25"
     inkscape:window-maximized="1"
     inkscape:current-layer="svg826" />
  <!--! Font Awesome Pro 6.0.0 by @fontawesome - https://fontawesome.com License - https://fontawesome.com/license (Commercial License) Copyright 2022 Fonticons, Inc. -->
  <path
     d="M367.1 448H79.97c-26.51 0-48.01 21.49-48.01 47.1C31.96 504.8 39.13 512 47.96 512h352c8.838 0 16-7.163 16-16C416 469.5 394.5 448 367.1 448zM416.1 160h-160V112h16.01c17.6 0 31.98-14.4 31.98-32C303.1 62.4 289.6 48 272 48h-16.01V32C256 14.4 241.6 0 223.1 0C206.4 0 191.1 14.4 191.1 32.01V48H175.1c-17.6 0-32.01 14.4-32.01 32C143.1 97.6 158.4 112 175.1 112h16.01V160h-160C17.34 160 0 171.5 0 192C0 195.2 .4735 198.4 1.437 201.5L74.46 416h299.1l73.02-214.5C447.5 198.4 448 195.2 448 192C448 171.6 430.1 160 416.1 160z"
     id="path824"
     style="fill:#ffffff" />
</svg>
