<?xml version="1.0" encoding="UTF-8" standalone="no"?>
<svg
   viewBox="0 0 384 512"
   version="1.1"
   id="svg826"
   sodipodi:docname="white_N.svg"
   inkscape:version="1.1.1 (c3084ef, 2021-09-22)"
   xmlns:inkscape="http://www.inkscape.org/namespaces/inkscape"
   xmlns:sodipodi="http://sodipodi.sourceforge.net/DTD/sodipodi-0.dtd"
   xmlns="http://www.w3.org/2000/svg"
   xmlns:svg="http://www.w3.org/2000/svg">
  <defs
     id="defs830" />
  <sodipodi:namedview
     id="namedview828"
     pagecolor="#ffffff"
     bordercolor="#666666"
     borderopacity="1.0"
     inkscape:pageshadow="2"
     inkscape:pageopacity="0.0"
     inkscape:pagecheckerboard="0"
     showgrid="false"
     inkscape:zoom="1.0722656"
     inkscape:cx="191.65027"
     inkscape:cy="256"
     inkscape:window-width="1440"
     inkscape:window-height="771"
     inkscape:window-x="0"
     inkscape:window-y="25"
     inkscape:window-maximized="1"
     inkscape:current-layer="svg826" />
  <!--! Font Awesome Pro 6.0.0 by @fontawesome - https://fontawesome.com License - https://fontawesome.com/license (Commercial License) Copyright 2022 Fonticons, Inc. -->
  <path
     d="M19 272.5l40.62 18C63.78 292.3 68.25 293.3 72.72 293.3c4 0 8.001-.7543 11.78-2.289l12.75-5.125c9.125-3.625 16-11.12 18.75-20.5L125.2 234.8C127 227.9 131.5 222.2 137.9 219.1L160 208v50.38C160 276.5 149.6 293.1 133.4 301.2L76.25 329.9C49.12 343.5 32 371.1 32 401.5V416h319.9l-.0417-192c0-105.1-85.83-192-191.8-192H12C5.375 32 0 37.38 0 44c0 2.625 .625 5.25 1.75 7.625L16 80L7 89C2.5 93.5 0 99.62 0 106V243.2C0 255.9 7.5 267.4 19 272.5zM52 128C63 128 72 137 72 148S63 168 52 168S32 159 32 148S41 128 52 128zM336 448H47.1C21.49 448 0 469.5 0 495.1C0 504.8 7.163 512 16 512h352c8.837 0 16-7.163 16-16C384 469.5 362.5 448 336 448z"
     id="path824"
     style="fill:#ffffff" />
</svg>
