<?xml version="1.0" encoding="UTF-8" standalone="no"?>
<svg
   version="1.1"
   width="45"
   height="45"
   id="svg840"
   sodipodi:docname="move.svg"
   inkscape:version="1.1.1 (c3084ef, 2021-09-22)"
   xmlns:inkscape="http://www.inkscape.org/namespaces/inkscape"
   xmlns:sodipodi="http://sodipodi.sourceforge.net/DTD/sodipodi-0.dtd"
   xmlns="http://www.w3.org/2000/svg"
   xmlns:svg="http://www.w3.org/2000/svg">
  <defs
     id="defs844" />
  <sodipodi:namedview
     id="namedview842"
     pagecolor="#ffffff"
     bordercolor="#666666"
     borderopacity="1.0"
     inkscape:pageshadow="2"
     inkscape:pageopacity="0.0"
     inkscape:pagecheckerboard="0"
     showgrid="false"
     inkscape:zoom="7.0346175"
     inkscape:cx="24.805898"
     inkscape:cy="23.881896"
     inkscape:window-width="1440"
     inkscape:window-height="900"
     inkscape:window-x="0"
     inkscape:window-y="0"
     inkscape:window-maximized="0"
     inkscape:current-layer="svg840" />
  <path
     d="m 39.405948,12.416834 v 16.385147 c 0,7.64509 -6.219271,13.86436 -13.864361,13.86436 h -2.971388 c -4.208148,0 -8.168945,-1.638516 -11.138755,-4.614629 L 2.5220209,29.14229 c -0.620277,-0.616023 -0.927969,-1.427397 -0.927969,-2.230901 0,-1.677905 1.350988,-3.150991 3.1509905,-3.150991 0.8058708,0 1.6125211,0.307692 2.2277548,0.923236 l 4.7044298,4.701284 V 7.3752418 c 0,-1.3919441 1.128843,-2.5207868 2.520787,-2.5207868 1.391954,0 2.520796,1.1288427 2.520796,2.5207868 l 0.0056,13.8643602 c 0.0019,0.69322 0.56144,1.260398 1.25466,1.260398 0.693211,0 1.265911,-0.564341 1.265911,-1.260398 l -0.0056,-16.385147 c 0,-1.3919535 1.128843,-2.5207962 2.520796,-2.5207962 1.391954,0 2.520796,1.1288427 2.520796,2.5207962 l 0.0038,16.385147 c 0,0.696057 0.560162,1.260398 1.256454,1.260398 0.696291,0 1.26052,-0.567178 1.26052,-1.260398 V 7.3752418 c 0,-1.3919441 1.128842,-2.5207868 2.520796,-2.5207868 1.391953,0 2.520796,1.1288427 2.520796,2.5207868 l 0.0056,13.8643602 c 0,0.696057 0.558594,1.260398 1.254885,1.260398 0.696292,0 1.260164,-0.567178 1.260164,-1.260398 v -8.822768 c 0,-1.391954 1.128842,-2.5207957 2.520796,-2.5207957 1.391953,0 2.520796,1.1264757 2.520796,2.5207957 z"
     id="path908-3"
     style="stroke-width:0.0787748" />
</svg>
